<svg width="698.5789473056791" height="688.9473683834078" fill="none" xmlns="http://www.w3.org/2000/svg" style=""><rect id="backgroundrect" width="100%" height="100%" x="0" y="0" fill="none" stroke="none" style="" class=""/>






































































































































































































































































































<defs>
<linearGradient id="paint0_linear" x1="0.21410061419010162" y1="0.883977472782135" x2="0.9235484600067139" y2="0.01716405525803566">
<stop offset="0.2234" stop-color="white"/>
<stop offset="0.342" stop-color="#FBFBFB"/>
<stop offset="0.4528" stop-color="#F0F0F0"/>
<stop offset="0.5605" stop-color="#DDDDDD"/>
<stop offset="0.6663" stop-color="#C2C2C2"/>
<stop offset="0.7708" stop-color="#A0A0A0"/>
<stop offset="0.8742" stop-color="#767676"/>
<stop offset="0.975" stop-color="#454545"/>
<stop offset="1" stop-color="#383838"/>
</linearGradient>
<linearGradient id="paint1_linear" x1="0.19677479565143585" y1="0.9139482975006104" x2="0.9379138350486755" y2="-0.051101457327604294">
<stop offset="0.2234" stop-color="white"/>
<stop offset="0.342" stop-color="#FBFBFB"/>
<stop offset="0.4528" stop-color="#F0F0F0"/>
<stop offset="0.5605" stop-color="#DDDDDD"/>
<stop offset="0.6663" stop-color="#C2C2C2"/>
<stop offset="0.7708" stop-color="#A0A0A0"/>
<stop offset="0.8742" stop-color="#767676"/>
<stop offset="0.975" stop-color="#454545"/>
<stop offset="1" stop-color="#383838"/>
</linearGradient>
<linearGradient id="paint2_linear" x1="0.24322573840618134" y1="0.9064732193946838" x2="1.1990102529525757" y2="-0.05619865655899048">
<stop offset="0.2234" stop-color="white"/>
<stop offset="0.342" stop-color="#FBFBFB"/>
<stop offset="0.4528" stop-color="#F0F0F0"/>
<stop offset="0.5605" stop-color="#DDDDDD"/>
<stop offset="0.6663" stop-color="#C2C2C2"/>
<stop offset="0.7708" stop-color="#A0A0A0"/>
<stop offset="0.8742" stop-color="#767676"/>
<stop offset="0.975" stop-color="#454545"/>
<stop offset="1" stop-color="#383838"/>
</linearGradient>
<linearGradient id="paint3_linear" x1="0.24465201795101166" y1="0.8471254706382751" x2="1.166192889213562" y2="-0.04445056617259979">
<stop offset="0.2234" stop-color="white"/>
<stop offset="0.342" stop-color="#FBFBFB"/>
<stop offset="0.4528" stop-color="#F0F0F0"/>
<stop offset="0.5605" stop-color="#DDDDDD"/>
<stop offset="0.6663" stop-color="#C2C2C2"/>
<stop offset="0.7708" stop-color="#A0A0A0"/>
<stop offset="0.8742" stop-color="#767676"/>
<stop offset="0.975" stop-color="#454545"/>
<stop offset="1" stop-color="#383838"/>
</linearGradient>
<linearGradient id="paint4_linear" x1="0.24404430389404297" y1="0.8479054570198059" x2="1.1615571975708008" y2="-0.04368440434336662">
<stop offset="0.2234" stop-color="white"/>
<stop offset="0.342" stop-color="#FBFBFB"/>
<stop offset="0.4528" stop-color="#F0F0F0"/>
<stop offset="0.5605" stop-color="#DDDDDD"/>
<stop offset="0.6663" stop-color="#C2C2C2"/>
<stop offset="0.7708" stop-color="#A0A0A0"/>
<stop offset="0.8742" stop-color="#767676"/>
<stop offset="0.975" stop-color="#454545"/>
<stop offset="1" stop-color="#383838"/>
</linearGradient>
<linearGradient id="paint5_linear" x1="0.014865157194435596" y1="0.6049708127975464" x2="0.7966746091842651" y2="0.35658496618270874">
<stop stop-color="white"/>
<stop offset="0.1099" stop-color="#F5F5F5"/>
<stop offset="0.2944" stop-color="#DBDBDB"/>
<stop offset="0.5308" stop-color="#B1B1B1"/>
<stop offset="0.8069" stop-color="#777777"/>
<stop offset="1" stop-color="#4A4A4A"/>
</linearGradient>
<linearGradient id="paint6_linear" x1="0.45781517028808594" y1="0.5351330041885376" x2="0.9723141193389893" y2="0.30343562364578247">
<stop stop-color="white"/>
<stop offset="0.4046" stop-color="#B8B8B8"/>
<stop offset="1" stop-color="#4A4A4A"/>
</linearGradient>
<linearGradient id="paint7_linear" x1="0.6356185078620911" y1="0.4599457383155823" x2="1.0650569200515747" y2="0.23357994854450226">
<stop stop-color="white"/>
<stop offset="0.4046" stop-color="#B8B8B8"/>
<stop offset="1" stop-color="#4A4A4A"/>
</linearGradient>
</defs>
<g class="currentLayer" style=""><title>Layer 1</title><path d="M102.884 339.412V320.482H149.673V338.21V339.112H102.884V339.412ZM148.755 338.511V337.609V338.511ZM105.024 337.609H147.532V322.886H105.024V337.609Z" fill="#D0E9F4" id="svg_1" class="" transform="translate(-5.26316, -132.895)"/><path d="M118.174 357.441V338.511H164.963V356.239V357.141H118.174V357.441ZM163.74 356.54V355.638V356.54ZM120.315 355.338H162.822V340.614H120.315V355.338Z" fill="#D0E9F4" id="svg_2" class="" transform="translate(-5.26316, -132.895)"/><path d="M72.3024 357.441V338.511H119.091V356.239V357.141H72.3024V357.441ZM117.868 356.54V355.638V356.54ZM74.443 355.338H116.951V340.614H74.443V355.338Z" fill="#D0E9F4" id="svg_3" class="" transform="translate(-5.26316, -132.895)"/><path d="M26.1252 357.441V338.511H72.9142V356.239V357.141H26.1252V357.441ZM71.9968 356.54V355.638V356.54ZM28.5717 355.338H71.0793V340.614H28.5717V355.338Z" fill="#D0E9F4" id="svg_4" class="" transform="translate(-5.26316, -132.895)"/><path d="M152.731 375.47V356.54H199.52V374.268V375.169H152.731V375.47ZM198.296 374.568V373.667V374.568ZM154.871 373.366H197.379V358.643H154.871V373.366Z" fill="#D0E9F4" id="svg_5" class="" transform="translate(-5.26316, -132.895)"/><path d="M44.7795 375.47V356.54H91.5685V374.268V375.169H44.7795V375.47ZM90.6511 374.568V373.667V374.568ZM47.226 373.366H89.7336V358.643H47.226V373.366Z" fill="#D0E9F4" id="svg_6" class="" transform="translate(-5.26316, -132.895)"/><path d="M113.587 392.297V373.367H160.376V391.095V391.997H113.587V392.297ZM159.458 391.396V390.494V391.396ZM116.033 390.194H158.541V375.47H116.033V390.194Z" fill="#D0E9F4" id="svg_7" class="" transform="translate(-5.26316, -132.895)"/><path d="M67.7153 392.297V373.367H114.504V391.095V391.997H67.7153V392.297ZM113.587 391.396V390.494V391.396ZM70.1618 390.194H112.669V375.47H70.1618V390.194Z" fill="#D0E9F4" id="svg_8" class="" transform="translate(-5.26316, -132.895)"/><path d="M21.8438 392.297V373.367H68.6327V391.095V391.997H21.8438V392.297ZM67.7153 391.396V390.494V391.396ZM23.9844 390.194H66.492V375.47H23.9844V390.194Z" fill="#D0E9F4" id="svg_9" class="" transform="translate(-5.26316, -132.895)"/><path d="M130.101 410.326V391.396H176.89V409.124V410.025H130.101V410.326ZM175.972 409.424V408.523V409.424ZM132.547 408.223H175.055V393.499H132.547V408.223Z" fill="#D0E9F4" id="svg_10" class="" transform="translate(-5.26316, -132.895)"/><path d="M9 339.412V320.482H55.789V338.21V339.112H9V339.412ZM54.5657 338.511V337.609V338.511ZM11.1407 337.609H53.6483V322.886H11.1407V337.609Z" fill="#D0E9F4" id="svg_11" class="" transform="translate(-5.26316, -132.895)"/><path d="M73.5258 322.285V303.354H120.315V321.083V321.984H73.5258V322.285ZM119.091 321.383V320.482V321.383ZM75.6664 320.181H118.174V305.458H75.6664V320.181Z" fill="#D0E9F4" id="svg_12" class="" transform="translate(-5.26316, -132.895)"/><path d="M9 445.782V426.852H55.789V444.58V445.482H9V445.782ZM54.5657 444.58V443.679V444.58ZM11.1407 443.679H53.6483V428.955H11.1407V443.679Z" fill="#D0E9F4" id="svg_13" class="" transform="translate(-5.26316, -132.895)"/><path d="M44.7795 410.326V391.396H91.5685V409.124V410.025H44.7795V410.326ZM90.6511 409.424V408.523V409.424ZM47.226 408.223H89.7336V393.499H47.226V408.223Z" fill="#D0E9F4" id="svg_14" class="" transform="translate(-5.26316, -132.895)"/><path d="M145.391 428.355V409.425H192.18V427.153V428.054H145.391V428.355ZM191.263 427.153V426.251V427.153ZM147.532 426.251H190.039V411.528H147.532V426.251Z" fill="#D0E9F4" id="svg_15" class="" transform="translate(-5.26316, -132.895)"/><path d="M53.6481 428.355V409.425H100.437V427.153V428.054H53.6481V428.355ZM99.2138 427.153V426.251V427.153ZM55.7887 426.251H98.2964V411.528H55.7887V426.251Z" fill="#D0E9F4" id="svg_16" class="" transform="translate(-5.26316, -132.895)"/><path d="M186.981 446.384V427.453H233.77V445.182V446.083H186.981V446.384ZM232.547 445.182V444.28V445.182ZM189.122 444.28H231.63V429.557H189.122V444.28Z" fill="#D0E9F4" id="svg_17" class="" transform="translate(-5.26316, -132.895)"/><path d="M141.11 463.21V444.28H187.899V462.008V463.21H141.11ZM186.981 462.008V461.107V462.008ZM143.251 461.107H185.758V446.383H143.251V461.107Z" fill="#D0E9F4" id="svg_18" class="" transform="translate(-5.26316, -132.895)"/><path d="M95.2382 463.21V444.28H142.027V462.008V463.21H95.2382ZM140.804 462.008V461.107V462.008ZM97.3788 461.107H139.886V446.383H97.3788V461.107Z" fill="#D0E9F4" id="svg_19" class="" transform="translate(-5.26316, -132.895)"/><path d="M49.0609 463.21V444.28H95.8499V462.008V463.21H49.0609ZM94.9324 462.008V461.107V462.008ZM51.5074 461.107H94.015V446.383H51.5074V461.107Z" fill="#D0E9F4" id="svg_20" class="" transform="translate(-5.26316, -132.895)"/><path d="M106.248 499.268V480.338H153.037V498.066V499.268H106.248ZM152.119 498.066V497.165V498.066ZM108.388 497.165H150.896V482.441H108.388V497.165Z" fill="#D0E9F4" id="svg_21" class="" transform="translate(-5.26316, -132.895)"/><path d="M189.122 516.997V498.066H235.911V515.795V516.696H189.122V516.997ZM234.994 516.095V515.194V516.095ZM191.263 515.194H233.77V500.47H191.263V515.194Z" fill="#D0E9F4" id="svg_22" class="" transform="translate(-5.26316, -132.895)"/><path d="M29.795 516.997V498.066H76.584V515.795V516.696H29.795V516.997ZM75.3608 516.095V515.194V516.095ZM31.9357 515.194H74.4433V500.47H31.9357V515.194Z" fill="#D0E9F4" id="svg_23" class="" transform="translate(-5.26316, -132.895)"/><path d="M140.193 535.026V516.095H186.981V533.824V534.725H140.193V535.026ZM185.758 534.124V533.223V534.124ZM142.333 533.223H184.841V518.499H142.333V533.223Z" fill="#D0E9F4" id="svg_24" class="" transform="translate(-5.26316, -132.895)"/><path d="M94.3209 535.026V516.095H141.11V533.824V534.725H94.3209V535.026ZM139.887 534.124V533.223V534.124ZM96.4616 533.223H138.969V518.499H96.4616V533.223Z" fill="#D0E9F4" id="svg_25" class="" transform="translate(-5.26316, -132.895)"/><path d="M48.1437 535.026V516.095H94.9326V533.824V534.725H48.1437V535.026ZM94.0152 534.124V533.223V534.124ZM50.5902 533.223H93.0978V518.499H50.5902V533.223Z" fill="#D0E9F4" id="svg_26" class="" transform="translate(-5.26316, -132.895)"/><path d="M117.257 553.054V552.153H118.174H117.257V553.054H116.034V533.823H164.963V551.251V553.355H117.257V553.054ZM161.905 550.951V550.049H163.128V535.927H118.174V551.251H161.905V550.951Z" fill="#D0E9F4" id="svg_27" class="" transform="translate(-5.26316, -132.895)"/><path d="M314.81 551.852V532.922H361.599V550.65V551.551H314.81V551.852ZM360.682 550.95V550.049V550.95ZM316.951 550.049H359.459V535.325H316.951V550.049Z" fill="#D0E9F4" id="svg_28" class="" transform="translate(-5.26316, -132.895)"/><path d="M25.2079 551.852V532.922H71.9968V550.65V551.551H25.2079V551.852ZM71.0794 550.95V550.049V550.95ZM27.6544 550.049H69.8562V535.325H27.6544V550.049Z" fill="#D0E9F4" id="svg_29" class="" transform="translate(-5.26316, -132.895)"/><path d="M133.464 569.881V550.951H180.253V568.679V569.581H133.464V569.881ZM179.336 568.98V568.078V568.98ZM135.911 567.778H178.419V553.054H135.911V567.778Z" fill="#D0E9F4" id="svg_30" class="" transform="translate(-5.26316, -132.895)"/><path d="M12.3636 499.268V480.338H59.1526V498.066V499.268H12.3636ZM57.9294 498.066V497.165V498.066ZM14.5043 497.165H57.0119V482.441H14.5043V497.165Z" fill="#D0E9F4" id="svg_31" class="" transform="translate(-5.26316, -132.895)"/><path d="M76.8896 481.84V462.91H123.679V480.638V481.539H76.8896V481.84ZM122.761 480.938V480.037V480.938ZM79.0303 479.736H121.538V465.013H79.0303V479.736Z" fill="#D0E9F4" id="svg_32" class="" transform="translate(-5.26316, -132.895)"/><path d="M12.3636 605.338V586.407H59.1526V604.136V605.037H12.3636V605.338ZM57.9294 604.436V603.535V604.436ZM14.5043 603.234H57.0119V588.511H14.5043V603.234Z" fill="#D0E9F4" id="svg_33" class="" transform="translate(-5.26316, -132.895)"/><path d="M48.1437 569.881V550.951H94.9326V568.679V569.581H48.1437V569.881ZM94.0152 568.98V568.078V568.98ZM50.5902 567.778H93.0978V553.054H50.5902V567.778Z" fill="#D0E9F4" id="svg_34" class="" transform="translate(-5.26316, -132.895)"/><path d="M148.755 587.91V568.979H195.544V586.708V587.609H148.755V587.91ZM194.626 587.008V586.107V587.008ZM150.896 585.806H193.403V571.083H150.896V585.806Z" fill="#D0E9F4" id="svg_35" class="" transform="translate(-5.26316, -132.895)"/><path d="M102.884 587.91V568.979H149.673V586.708V587.609H102.884V587.91ZM148.755 587.008V586.107V587.008ZM105.024 585.806H147.532V571.083H105.024V585.806Z" fill="#D0E9F4" id="svg_36" class="" transform="translate(-5.26316, -132.895)"/><path d="M57.0118 587.91V568.979H103.801V586.708V587.609H57.0118V587.91ZM102.883 587.008V586.107V587.008ZM59.1525 585.806H101.66V571.083H59.1525V585.806Z" fill="#D0E9F4" id="svg_37" class="" transform="translate(-5.26316, -132.895)"/><path d="M167.41 605.939V587.008H214.199V604.737V605.638H167.41V605.939ZM213.281 604.737V603.835V604.737ZM169.55 603.835H212.058V589.112H169.55V603.835Z" fill="#D0E9F4" id="svg_38" class="" transform="translate(-5.26316, -132.895)"/><path d="M121.538 605.939V587.008H168.327V604.737V605.638H121.538V605.939ZM167.41 604.737V603.835V604.737ZM123.679 603.835H166.186V589.112H123.679V603.835Z" fill="#D0E9F4" id="svg_39" class="" transform="translate(-5.26316, -132.895)"/><path d="M75.6666 605.939V587.008H122.456V604.737V605.638H75.6666V605.939ZM121.232 604.737V603.835V604.737ZM77.8073 603.835H120.315V589.112H77.8073V603.835Z" fill="#D0E9F4" id="svg_40" class="" transform="translate(-5.26316, -132.895)"/><path d="M144.474 622.766V603.836H191.263V621.564V622.466H144.474V622.766ZM190.345 621.564V620.663V621.564ZM146.615 620.663H189.122V605.939H146.615V620.663Z" fill="#D0E9F4" id="svg_41" class="" transform="translate(-5.26316, -132.895)"/><path d="M98.6024 622.766V603.836H145.391V621.564V622.466H98.6024V622.766ZM144.474 621.564V620.663V621.564ZM100.743 620.663H143.251V605.939H100.743V620.663Z" fill="#D0E9F4" id="svg_42" class="" transform="translate(-5.26316, -132.895)"/><path d="M52.731 622.766V603.836H99.5199V621.564V622.466H52.731V622.766ZM98.2967 621.564V620.663V621.564ZM54.8716 620.663H97.3792V605.939H54.8716V620.663Z" fill="#D0E9F4" id="svg_43" class="" transform="translate(-5.26316, -132.895)"/><path d="M116.034 640.494V621.564H162.823V639.292V640.194H116.034V640.494ZM161.599 639.292V638.391V639.292ZM118.174 638.391H160.682V623.667H118.174V638.391Z" fill="#D0E9F4" id="svg_44" class="" transform="translate(-5.26316, -132.895)"/><path d="M179.03 657.621V638.691H216.033V656.419V657.321H179.03V657.621ZM214.81 656.419V655.518V656.419ZM181.171 655.518H213.893V640.494H181.171V655.518Z" fill="#D0E9F4" id="svg_45" class="" transform="translate(-5.26316, -132.895)"/><path d="M132.853 657.621V638.691H179.948V656.419V657.321H132.853V657.621ZM178.724 656.419V655.518V656.419ZM135.299 655.518H177.807V640.494H135.299V655.518Z" fill="#D0E9F4" id="svg_46" class="" transform="translate(-5.26316, -132.895)"/><path d="M86.9814 657.621V638.691H134.076V656.419V657.321H86.9814V657.621ZM132.853 656.419V655.518V656.419ZM89.4279 655.518H131.936V640.494H89.4279V655.518Z" fill="#D0E9F4" id="svg_47" class="" transform="translate(-5.26316, -132.895)"/><path d="M155.789 674.448V655.518H202.578V673.246V674.148H155.789V674.448ZM201.66 673.246V672.345V673.246ZM158.235 672.345H200.743V657.621H158.235V672.345Z" fill="#D0E9F4" id="svg_48" class="" transform="translate(-5.26316, -132.895)"/><path d="M109.917 674.448V655.518H156.706V673.246V674.148H109.917V674.448ZM155.789 673.246V672.345V673.246ZM112.364 672.345H154.871V657.621H112.364V672.345Z" fill="#D0E9F4" id="svg_49" class="" transform="translate(-5.26316, -132.895)"/><path d="M64.0457 674.448V655.518H110.835V673.246V674.148H64.0457V674.448ZM109.917 673.246V672.345V673.246ZM66.1863 672.345H108.694V657.621H66.1863V672.345Z" fill="#D0E9F4" id="svg_50" class="" transform="translate(-5.26316, -132.895)"/><path d="M42.0275 692.177V673.547H88.8164V691.275V692.177H42.0275ZM87.899 691.275V690.374V691.275ZM44.1681 690.374H86.6757V675.65H44.1681V690.374Z" fill="#D0E9F4" id="svg_51" class="" transform="translate(-5.26316, -132.895)"/><path d="M86.9814 692.177V673.547H134.076V691.275V692.177H86.9814ZM132.853 691.275V690.374V691.275ZM89.4279 690.374H131.936V675.65H89.4279V690.374Z" fill="#D0E9F4" id="svg_52" class="" transform="translate(-5.26316, -132.895)"/><path d="M109.917 710.205V691.275H156.706V709.004V709.905H109.917V710.205ZM155.789 709.304V708.403V709.304ZM112.364 708.102H154.871V693.379H112.364V708.102Z" fill="#D0E9F4" id="svg_53" class="" transform="translate(-5.26316, -132.895)"/><path d="M64.0457 710.205V691.275H110.835V709.004V709.905H64.0457V710.205ZM109.917 709.304V708.403V709.304ZM66.1863 708.102H108.694V693.379H66.1863V708.102Z" fill="#D0E9F4" id="svg_54" class="" transform="translate(-5.26316, -132.895)"/><path d="M18.1742 710.205V691.275H64.9632V709.004V709.905H18.1742V710.205ZM64.0457 709.304V708.403V709.304ZM20.3149 708.102H62.8225V693.379H20.3149V708.102Z" fill="#D0E9F4" id="svg_55" class="" transform="translate(-5.26316, -132.895)"/><path d="M601.354 339.412V320.482H648.143V338.21V339.112H601.354V339.412ZM647.226 338.511V337.609V338.511ZM603.8 337.609H646.308V322.886H603.8V337.609Z" fill="#D0E9F4" id="svg_56" class="" transform="translate(-5.26316, -132.895)"/><path d="M570.773 357.441V338.511H617.562V356.239V357.141H570.773V357.441ZM616.644 356.54V355.638V356.54ZM572.914 355.338H615.421V340.614H572.914V355.338Z" fill="#D0E9F4" id="svg_57" class="" transform="translate(-5.26316, -132.895)"/><path d="M524.902 357.441V338.511H571.691V356.239V357.141H524.902V357.441ZM570.467 356.54V355.638V356.54ZM527.042 355.338H569.55V340.614H527.042V355.338Z" fill="#D0E9F4" id="svg_58" class="" transform="translate(-5.26316, -132.895)"/><path d="M543.25 375.47V356.54H590.039V374.268V375.169H543.25V375.47ZM589.122 374.568V373.667V374.568ZM545.697 373.366H588.204V358.643H545.697V373.366Z" fill="#D0E9F4" id="svg_59" class="" transform="translate(-5.26316, -132.895)"/><path d="M566.492 392.297V373.367H613.281V391.095V391.997H566.492V392.297ZM612.057 391.396V390.494V391.396ZM568.632 390.194H611.14V375.47H568.632V390.194Z" fill="#D0E9F4" id="svg_60" class="" transform="translate(-5.26316, -132.895)"/><path d="M520.314 392.297V373.367H567.103V391.095V391.997H520.314V392.297ZM566.186 391.396V390.494V391.396ZM522.761 390.194H565.268V375.47H522.761V390.194Z" fill="#D0E9F4" id="svg_61" class="" transform="translate(-5.26316, -132.895)"/><path d="M507.471 339.412V320.482H554.259V338.21V339.112H507.471V339.412ZM553.342 338.511V337.609V338.511ZM509.611 337.609H552.119V322.886H509.611V337.609Z" fill="#D0E9F4" id="svg_62" class="" transform="translate(-5.26316, -132.895)"/><path d="M571.996 322.285V303.354H618.785V321.083V321.984H571.996V322.285ZM617.868 321.383V320.482V321.383ZM574.137 320.181H616.645V305.458H574.137V320.181Z" fill="#D0E9F4" id="svg_63" class="" transform="translate(-5.26316, -132.895)"/><path d="M507.471 445.782V426.852H554.259V444.58V445.482H507.471V445.782ZM553.342 444.58V443.679V444.58ZM509.611 443.679H552.119V428.955H509.611V443.679Z" fill="#D0E9F4" id="svg_64" class="" transform="translate(-5.26316, -132.895)"/><path d="M543.25 410.326V391.396H590.039V409.124V410.025H543.25V410.326ZM589.122 409.424V408.523V409.424ZM545.697 408.223H588.204V393.499H545.697V408.223Z" fill="#D0E9F4" id="svg_65" class="" transform="translate(-5.26316, -132.895)"/><path d="M552.119 428.355V409.425H598.908V427.153V428.054H552.119V428.355ZM597.99 427.153V426.251V427.153ZM554.259 426.251H596.767V411.528H554.259V426.251Z" fill="#D0E9F4" id="svg_66" class="" transform="translate(-5.26316, -132.895)"/><path d="M593.709 463.21V444.28H640.498V462.008V463.21H593.709ZM639.58 462.008V461.107V462.008ZM595.85 461.107H638.357V446.383H595.85V461.107Z" fill="#D0E9F4" id="svg_67" class="" transform="translate(-5.26316, -132.895)"/><path d="M547.837 463.21V444.28H594.626V462.008V463.21H547.837ZM593.403 462.008V461.107V462.008ZM549.978 461.107H592.486V446.383H549.978V461.107Z" fill="#D0E9F4" id="svg_68" class="" transform="translate(-5.26316, -132.895)"/><path d="M604.718 499.268V480.338H651.507V498.066V499.268H604.718ZM650.589 498.066V497.165V498.066ZM607.164 497.165H649.672V482.441H607.164V497.165Z" fill="#D0E9F4" id="svg_69" class="" transform="translate(-5.26316, -132.895)"/><path d="M528.265 516.997V498.066H575.054V515.795V516.696H528.265V516.997ZM574.137 516.095V515.194V516.095ZM530.406 515.194H572.914V500.47H530.406V515.194Z" fill="#D0E9F4" id="svg_70" class="" transform="translate(-5.26316, -132.895)"/><path d="M592.792 535.026V516.095H639.581V533.824V534.725H592.792V535.026ZM638.663 534.124V533.223V534.124ZM594.932 533.223H637.44V518.499H594.932V533.223Z" fill="#D0E9F4" id="svg_71" class="" transform="translate(-5.26316, -132.895)"/><path d="M546.92 535.026V516.095H593.709V533.824V534.725H546.92V535.026ZM592.486 534.124V533.223V534.124ZM549.061 533.223H591.568V518.499H549.061V533.223Z" fill="#D0E9F4" id="svg_72" class="" transform="translate(-5.26316, -132.895)"/><path d="M523.984 551.852V532.922H570.773V550.65V551.551H523.984V551.852ZM569.55 550.95V550.049V550.95ZM526.125 550.049H568.632V535.325H526.125V550.049Z" fill="#D0E9F4" id="svg_73" class="" transform="translate(-5.26316, -132.895)"/><path d="M510.834 499.268V480.338H557.623V498.066V499.268H510.834ZM556.706 498.066V497.165V498.066ZM512.975 497.165H555.483V482.441H512.975V497.165Z" fill="#D0E9F4" id="svg_74" class="" transform="translate(-5.26316, -132.895)"/><path d="M575.36 481.84V462.91H622.149V480.638V481.539H575.36V481.84ZM621.232 480.938V480.037V480.938ZM577.501 479.736H620.008V465.013H577.501V479.736Z" fill="#D0E9F4" id="svg_75" class="" transform="translate(-5.26316, -132.895)"/><path d="M510.834 605.338V586.407H557.623V604.136V605.037H510.834V605.338ZM556.706 604.436V603.535V604.436ZM512.975 603.234H555.483V588.511H512.975V603.234Z" fill="#D0E9F4" id="svg_76" class="" transform="translate(-5.26316, -132.895)"/><path d="M546.92 569.881V550.951H593.709V568.679V569.581H546.92V569.881ZM592.486 568.98V568.078V568.98ZM549.061 567.778H591.568V553.054H549.061V567.778Z" fill="#D0E9F4" id="svg_77" class="" transform="translate(-5.26316, -132.895)"/><path d="M601.354 587.91V568.979H648.143V586.708V587.609H601.354V587.91ZM647.226 587.008V586.107V587.008ZM603.8 585.806H646.308V571.083H603.8V585.806Z" fill="#D0E9F4" id="svg_78" class="" transform="translate(-5.26316, -132.895)"/><path d="M555.482 587.91V568.979H602.271V586.708V587.609H555.482V587.91ZM601.354 587.008V586.107V587.008ZM557.623 585.806H600.131V571.083H557.623V585.806Z" fill="#D0E9F4" id="svg_79" class="" transform="translate(-5.26316, -132.895)"/><path d="M574.137 605.939V587.008H620.926V604.737V605.638H574.137V605.939ZM620.008 604.737V603.835V604.737ZM576.278 603.835H618.785V589.112H576.278V603.835Z" fill="#D0E9F4" id="svg_80" class="" transform="translate(-5.26316, -132.895)"/><path d="M597.073 622.766V603.836H643.862V621.564V622.466H597.073V622.766ZM642.944 621.564V620.663V621.564ZM599.213 620.663H641.721V605.939H599.213V620.663Z" fill="#D0E9F4" id="svg_81" class="" transform="translate(-5.26316, -132.895)"/><path d="M551.201 622.766V603.836H597.99V621.564V622.466H551.201V622.766ZM597.073 621.564V620.663V621.564ZM553.342 620.663H595.849V605.939H553.342V620.663Z" fill="#D0E9F4" id="svg_82" class="" transform="translate(-5.26316, -132.895)"/><path d="M585.758 657.621V638.691H632.547V656.419V657.321H585.758V657.621ZM631.323 656.419V655.518V656.419ZM587.898 655.518H630.406V640.494H587.898V655.518Z" fill="#D0E9F4" id="svg_83" class="" transform="translate(-5.26316, -132.895)"/><path d="M608.693 674.448V655.518H655.482V673.246V674.148H608.693V674.448ZM654.259 673.246V672.345V673.246ZM610.834 672.345H653.342V657.621H610.834V672.345Z" fill="#D0E9F4" id="svg_84" class="" transform="translate(-5.26316, -132.895)"/><path d="M562.516 674.448V655.518H609.305V673.246V674.148H562.516V674.448ZM608.388 673.246V672.345V673.246ZM564.963 672.345H607.47V657.621H564.963V672.345Z" fill="#D0E9F4" id="svg_85" class="" transform="translate(-5.26316, -132.895)"/><path d="M540.498 692.177V673.547H587.287V691.275V692.177H540.498ZM586.369 691.275V690.374V691.275ZM542.944 690.374H585.452V675.65H542.944V690.374Z" fill="#D0E9F4" id="svg_86" class="" transform="translate(-5.26316, -132.895)"/><path d="M585.758 692.177V673.547H632.547V691.275V692.177H585.758ZM631.323 691.275V690.374V691.275ZM587.898 690.374H630.406V675.65H587.898V690.374Z" fill="#D0E9F4" id="svg_87" class="" transform="translate(-5.26316, -132.895)"/><path d="M608.693 710.205V691.275H655.482V709.004V709.905H608.693V710.205ZM654.259 709.304V708.403V709.304ZM610.834 708.102H653.342V693.379H610.834V708.102Z" fill="#D0E9F4" id="svg_88" class="" transform="translate(-5.26316, -132.895)"/><path d="M562.516 710.205V691.275H609.305V709.004V709.905H562.516V710.205ZM608.388 709.304V708.403V709.304ZM564.963 708.102H607.47V693.379H564.963V708.102Z" fill="#D0E9F4" id="svg_89" class="" transform="translate(-5.26316, -132.895)"/><path d="M516.645 710.205V691.275H563.434V709.004V709.905H516.645V710.205ZM562.516 709.304V708.403V709.304ZM519.091 708.102H561.599V693.379H519.091V708.102Z" fill="#D0E9F4" id="svg_90" class="" transform="translate(-5.26316, -132.895)"/><path d="M498.602 677.754H451.813V676.852V659.124H498.602V677.754ZM452.73 676.852V675.951V676.852ZM496.461 675.951V661.227H453.954V675.951H496.461Z" fill="#D0E9F4" id="svg_91" class="" transform="translate(-5.26316, -132.895)"/><path d="M405.33 675.951H358.541V675.05V657.321H405.33V675.951ZM359.458 675.05V674.148V675.05ZM403.189 674.148V659.425H360.682V674.148H403.189Z" fill="#D0E9F4" id="svg_92" class="" transform="translate(-5.26316, -132.895)"/><path d="M386.675 693.98H339.886V693.079V675.35H386.675V693.98ZM340.804 693.079V692.177V693.079ZM384.534 692.177V677.454H342.027V692.177H384.534Z" fill="#D0E9F4" id="svg_93" class="" transform="translate(-5.26316, -132.895)"/><path d="M521.538 709.605H474.749V708.703V690.975H521.538V709.605ZM475.666 708.703V707.802V708.703ZM519.397 707.502V692.778H476.889V707.502H519.397Z" fill="#D0E9F4" id="svg_94" class="" transform="translate(-5.26316, -132.895)"/><path d="M409.611 710.806H362.822V709.905V692.176H409.611V710.806ZM363.74 709.905V709.003V709.905ZM407.47 709.003V694.28H364.963V709.003H407.47Z" fill="#D0E9F4" id="svg_95" class="" transform="translate(-5.26316, -132.895)"/><path d="M422.761 658.222H375.667V657.321V639.593H422.455V658.222H422.761ZM376.89 657.02V656.119V657.02ZM420.315 656.119V641.395H377.807V656.119H420.315Z" fill="#D0E9F4" id="svg_96" class="" transform="translate(-5.26316, -132.895)"/><path d="M420.009 321.384H373.22V320.482V302.754H420.009V321.384ZM374.137 320.182V319.28V320.182ZM417.868 319.28V304.557H375.36V319.28H417.868Z" fill="#D0E9F4" id="svg_97" class="" transform="translate(-5.26316, -132.895)"/><path d="M264.963 321.684H217.868V320.782V303.054H264.657V321.684H264.963ZM219.092 320.782V319.881V320.782ZM262.517 319.881V305.157H220.315V319.881H262.517Z" fill="#D0E9F4" id="svg_98" class="" transform="translate(-5.26316, -132.895)"/><path d="M310.835 321.684H263.74V320.782V303.054H310.529V321.684H310.835ZM264.963 320.782V319.881V320.782ZM308.694 319.881V305.157H266.186V319.881H308.694Z" fill="#D0E9F4" id="svg_99" class="" transform="translate(-5.26316, -132.895)"/><path d="M356.706 321.984H309.917V321.083V303.354H356.706V321.984ZM310.835 320.782V319.881V320.782ZM354.566 319.881V305.157H312.058V319.881H354.566Z" fill="#D0E9F4" id="svg_100" class="" transform="translate(-5.26316, -132.895)"/><path d="M287.899 338.811H240.804V337.909V320.181H287.593V338.811H287.899ZM242.027 337.609V336.707V337.609ZM285.452 336.707V321.984H243.251V336.707H285.452Z" fill="#D0E9F4" id="svg_101" class="" transform="translate(-5.26316, -132.895)"/><path d="M443.25 338.811H396.461V337.909V320.181H443.25V338.811ZM397.379 337.609V336.707V337.609ZM440.804 336.707V321.984H398.296V336.707H440.804Z" fill="#D0E9F4" id="svg_102" class="" transform="translate(-5.26316, -132.895)"/><path d="M487.898 338.811H441.109V337.909V320.181H487.898V338.811ZM442.333 337.609V336.707V337.609ZM485.758 336.707V321.984H443.25V336.707H485.758Z" fill="#D0E9F4" id="svg_103" class="" transform="translate(-5.26316, -132.895)"/><path d="M322.455 374.869H275.666V373.967V356.239H322.455V374.869ZM276.889 373.667V372.765V373.667ZM320.315 372.765V358.042H277.807V372.765H320.315Z" fill="#D0E9F4" id="svg_104" class="" transform="translate(-5.26316, -132.895)"/><path d="M246.003 392.597H199.214V391.696V373.968H246.003V392.597ZM200.131 391.696V390.795V391.696ZM243.862 390.795V376.071H201.354V390.795H243.862Z" fill="#D0E9F4" id="svg_105" class="" transform="translate(-5.26316, -132.895)"/><path d="M370.162 392.597H323.373V391.696V373.968H370.162V392.597ZM324.29 391.696V390.795V391.696ZM368.021 390.795V376.071H325.513V390.795H368.021Z" fill="#D0E9F4" id="svg_106" class="" transform="translate(-5.26316, -132.895)"/><path d="M476.889 392.597H430.1V391.696V373.968H476.889V392.597ZM431.018 391.696V390.795V391.696ZM474.748 390.795V376.071H432.241V390.795H474.748Z" fill="#D0E9F4" id="svg_107" class="" transform="translate(-5.26316, -132.895)"/><path d="M288.816 410.626H241.721V409.725V391.996H288.51V410.626H288.816ZM242.945 409.725V408.823V409.725ZM286.37 408.823V394.1H244.168V408.823H286.37Z" fill="#D0E9F4" id="svg_108" class="" transform="translate(-5.26316, -132.895)"/><path d="M334.688 410.626H287.899V409.725V391.996H334.688V410.626ZM288.816 409.725V408.823V409.725ZM332.547 408.823V394.1H290.039V408.823H332.547Z" fill="#D0E9F4" id="svg_109" class="" transform="translate(-5.26316, -132.895)"/><path d="M521.538 410.626H474.749V409.725V391.996H521.538V410.626ZM475.666 409.725V408.823V409.725ZM519.397 408.823V394.1H476.889V408.823H519.397Z" fill="#D0E9F4" id="svg_110" class="" transform="translate(-5.26316, -132.895)"/><path d="M311.752 427.453H264.657V426.551V408.823H311.446V427.453H311.752ZM265.88 426.551V425.65V426.551ZM309.611 425.65V410.926H267.103V425.65H309.611Z" fill="#D0E9F4" id="svg_111" class="" transform="translate(-5.26316, -132.895)"/><path d="M357.623 427.453H310.834V426.551V408.823H357.623V427.453ZM311.752 426.551V425.65V426.551ZM355.483 425.65V410.926H312.975V425.65H355.483Z" fill="#D0E9F4" id="svg_112" class="" transform="translate(-5.26316, -132.895)"/><path d="M403.495 427.453H356.706V426.551V408.823H403.495V427.453ZM357.623 426.551V425.65V426.551ZM401.354 425.65V410.926H358.847V425.65H401.354Z" fill="#D0E9F4" id="svg_113" class="" transform="translate(-5.26316, -132.895)"/><path d="M295.238 445.482H248.449V444.58V426.852H295.238V445.482ZM249.367 444.58V443.679V444.58ZM293.098 443.378V428.655H250.59V443.378H293.098Z" fill="#D0E9F4" id="svg_114" class="" transform="translate(-5.26316, -132.895)"/><path d="M416.645 374.869H369.55V373.967V356.239H416.339V374.869H416.645ZM370.773 373.667V372.765V373.667ZM414.504 372.765V358.042H371.997V372.765H414.504Z" fill="#D0E9F4" id="svg_115" class="" transform="translate(-5.26316, -132.895)"/><path d="M463.433 374.869H416.645V373.967V356.239H463.433V374.869ZM417.562 373.667V372.765V373.667ZM460.987 372.765V358.042H418.479V372.765H460.987Z" fill="#D0E9F4" id="svg_116" class="" transform="translate(-5.26316, -132.895)"/><path d="M352.119 357.441H305.33V356.54V338.812H352.119V357.441ZM306.248 356.54V355.638V356.54ZM349.673 355.338V340.614H307.165V355.338H349.673Z" fill="#D0E9F4" id="svg_117" class="" transform="translate(-5.26316, -132.895)"/><path d="M416.645 480.939H369.55V480.037V462.309H416.339V480.939H416.645ZM370.773 480.037V479.136V480.037ZM414.504 478.835V464.112H371.997V478.835H414.504Z" fill="#D0E9F4" id="svg_118" class="" transform="translate(-5.26316, -132.895)"/><path d="M380.559 445.482H333.77V444.58V426.852H380.559V445.482ZM334.687 444.58V443.679V444.58ZM378.418 443.378V428.655H335.911V443.378H378.418Z" fill="#D0E9F4" id="svg_119" class="" transform="translate(-5.26316, -132.895)"/><path d="M279.948 463.511H233.159V462.609V444.881H279.948V463.511ZM234.382 462.609V461.708V462.609ZM277.807 461.407V446.684H235.299V461.407H277.807Z" fill="#D0E9F4" id="svg_120" class="" transform="translate(-5.26316, -132.895)"/><path d="M326.125 463.511H279.03V462.609V444.881H325.819V463.511H326.125ZM280.254 462.609V461.708V462.609ZM323.679 461.407V446.684H281.171V461.407H323.679Z" fill="#D0E9F4" id="svg_121" class="" transform="translate(-5.26316, -132.895)"/><path d="M468.633 463.511H421.844V462.609V444.881H468.633V463.511ZM422.761 462.609V461.708V462.609ZM466.492 461.407V446.684H423.984V461.407H466.492Z" fill="#D0E9F4" id="svg_122" class="" transform="translate(-5.26316, -132.895)"/><path d="M261.293 481.539H214.504V480.638V462.91H261.293V481.539ZM215.727 480.337V479.436V480.337ZM259.152 479.436V464.712H216.645V479.436H259.152Z" fill="#D0E9F4" id="svg_123" class="" transform="translate(-5.26316, -132.895)"/><path d="M491.874 481.539H445.085V480.638V462.91H491.874V481.539ZM446.002 480.337V479.436V480.337ZM489.427 479.436V464.712H446.92V479.436H489.427Z" fill="#D0E9F4" id="svg_124" class="" transform="translate(-5.26316, -132.895)"/><path d="M284.535 498.367H237.44V497.465V479.737H284.229V498.367H284.535ZM238.663 497.165V496.263V497.165ZM282.088 496.263V481.54H239.581V496.263H282.088Z" fill="#D0E9F4" id="svg_125" class="" transform="translate(-5.26316, -132.895)"/><path d="M330.406 498.367H283.312V497.465V479.737H330.1V498.367H330.406ZM284.535 497.165V496.263V497.165ZM327.96 496.263V481.54H285.758V496.263H327.96Z" fill="#D0E9F4" id="svg_126" class="" transform="translate(-5.26316, -132.895)"/><path d="M376.278 498.367H329.489V497.465V479.737H376.278V498.367ZM330.406 497.165V496.263V497.165ZM374.137 496.263V481.54H331.63V496.263H374.137Z" fill="#D0E9F4" id="svg_127" class="" transform="translate(-5.26316, -132.895)"/><path d="M283.617 533.223H236.523V532.321V514.292H283.312V533.223H283.617ZM237.746 532.321V531.42V532.321ZM281.171 531.119V516.396H238.663V531.119H281.171Z" fill="#D0E9F4" id="svg_128" class="" transform="translate(-5.26316, -132.895)"/><path d="M341.416 569.28H294.627V568.379V550.35H341.416V569.28ZM295.85 568.078V567.177V568.078ZM339.275 567.177V552.453H296.767V567.177H339.275Z" fill="#D0E9F4" id="svg_129" class="" transform="translate(-5.26316, -132.895)"/><path d="M318.48 586.107H271.691V585.206V567.477H318.48V586.107ZM272.608 584.905V584.004V584.905ZM316.339 584.004V569.28H273.832V584.004H316.339Z" fill="#D0E9F4" id="svg_130" class="" transform="translate(-5.26316, -132.895)"/><path d="M364.351 586.107H317.562V585.206V567.477H364.351V586.107ZM318.786 584.905V584.004V584.905ZM362.211 584.004V569.28H319.703V584.004H362.211Z" fill="#D0E9F4" id="svg_131" class="" transform="translate(-5.26316, -132.895)"/><path d="M448.755 604.136H401.966V603.234V585.506H448.755V604.136ZM402.883 602.934V602.032V602.934ZM446.308 602.032V587.309H403.801V602.032H446.308Z" fill="#D0E9F4" id="svg_132" class="" transform="translate(-5.26316, -132.895)"/><path d="M377.501 533.223H330.712V532.321V514.292H377.501V533.223ZM331.63 532.321V531.42V532.321ZM375.36 531.119V516.396H332.853V531.119H375.36Z" fill="#D0E9F4" id="svg_133" class="" transform="translate(-5.26316, -132.895)"/><path d="M312.975 516.095H266.186V515.193V497.465H312.975V516.095ZM267.104 514.893V513.991V514.893ZM310.834 513.991V499.268H268.327V513.991H310.834Z" fill="#D0E9F4" id="svg_134" class="" transform="translate(-5.26316, -132.895)"/><path d="M366.798 621.564H320.009V620.662V602.934H366.798V621.564ZM320.926 620.662V619.461V620.662ZM364.351 619.461V604.737H321.844V619.461H364.351Z" fill="#D0E9F4" id="svg_135" class="" transform="translate(-5.26316, -132.895)"/><path d="M491.568 621.564H444.779V620.662V602.934H491.568V621.564ZM446.003 620.662V619.461V620.662ZM489.428 619.461V604.737H446.92V619.461H489.428Z" fill="#D0E9F4" id="svg_136" class="" transform="translate(-5.26316, -132.895)"/><path d="M397.073 639.893H350.284V638.992V621.263H397.073V639.893ZM351.201 638.992V638.09V638.992ZM394.626 638.09V623.367H352.119V638.09H394.626Z" fill="#D0E9F4" id="svg_137" class="" transform="translate(-5.26316, -132.895)"/><path d="M443.862 639.893H397.073V638.992V621.263H443.862V639.893ZM397.991 638.992V638.09V638.992ZM441.721 638.09V623.367H399.214V638.09H441.721Z" fill="#D0E9F4" id="svg_138" class="" transform="translate(-5.26316, -132.895)"/><path d="M9 264.292H55.789V265.194V282.922H9V264.292ZM54.5657 265.194V266.095V265.194ZM11.1407 266.395V281.119H53.6483V266.395H11.1407Z" fill="#D0E9F4" id="svg_139" class="" transform="translate(-5.26316, -132.895)"/><path d="M145.391 281.72H192.18V282.622V300.35H145.391V281.72ZM191.263 282.622V283.523V282.622ZM147.532 283.823V298.547H190.039V283.823H147.532Z" fill="#D0E9F4" id="svg_140" class="" transform="translate(-5.26316, -132.895)"/><path d="M53.6481 281.72H100.437V282.622V300.35H53.6481V281.72ZM55.7887 283.823V298.547H98.2964V283.823H55.7887Z" fill="#D0E9F4" id="svg_141" class="" transform="translate(-5.26316, -132.895)"/><path d="M186.981 263.691H233.77V264.593V282.321H186.981V263.691ZM232.547 264.593V265.494V264.593ZM189.122 265.795V280.518H231.63V265.795H189.122Z" fill="#D0E9F4" id="svg_142" class="" transform="translate(-5.26316, -132.895)"/><path d="M141.11 246.864H187.899V247.765V265.494H141.11V246.864ZM186.981 247.765V248.667V247.765ZM143.251 248.967V263.691H185.758V248.967H143.251Z" fill="#D0E9F4" id="svg_143" class="" transform="translate(-5.26316, -132.895)"/><path d="M95.2382 246.864H142.027V247.765V265.494H95.2382V246.864ZM140.804 247.765V248.667V247.765ZM97.3788 248.967V263.691H139.886V248.967H97.3788Z" fill="#D0E9F4" id="svg_144" class="" transform="translate(-5.26316, -132.895)"/><path d="M49.0609 246.864H95.8499V247.765V265.494H49.0609V246.864ZM94.9324 247.765V248.667V247.765ZM51.5074 248.967V263.691H94.015V248.967H51.5074Z" fill="#D0E9F4" id="svg_145" class="" transform="translate(-5.26316, -132.895)"/><path d="M106.248 210.806H153.037V211.708V229.436H106.248V210.806ZM152.119 211.708V212.609V211.708ZM108.388 212.91V227.633H150.896V212.91H108.388Z" fill="#D0E9F4" id="svg_146" class="" transform="translate(-5.26316, -132.895)"/><path d="M12.3636 210.806H59.1526V211.708V229.436H12.3636V210.806ZM57.9294 211.708V212.609V211.708ZM14.5043 212.91V227.633H57.0119V212.91H14.5043Z" fill="#D0E9F4" id="svg_147" class="" transform="translate(-5.26316, -132.895)"/><path d="M76.8896 227.933H123.679V228.835V246.864H76.8896V227.933ZM122.761 229.135V230.037V229.135ZM79.0303 230.037V244.76H121.538V230.037H79.0303Z" fill="#D0E9F4" id="svg_148" class="" transform="translate(-5.26316, -132.895)"/><path d="M507.471 264.292H554.259V265.194V282.922H507.471V264.292ZM553.342 265.194V266.095V265.194ZM509.611 266.395V281.119H552.119V266.395H509.611Z" fill="#D0E9F4" id="svg_149" class="" transform="translate(-5.26316, -132.895)"/><path d="M552.119 281.72H598.908V282.622V300.35H552.119V281.72ZM597.99 282.622V283.523V282.622ZM554.259 283.823V298.547H596.767V283.823H554.259Z" fill="#D0E9F4" id="svg_150" class="" transform="translate(-5.26316, -132.895)"/><path d="M593.709 246.864H640.498V247.765V265.494H593.709V246.864ZM639.58 247.765V248.667V247.765ZM595.85 248.967V263.691H638.357V248.967H595.85Z" fill="#D0E9F4" id="svg_151" class="" transform="translate(-5.26316, -132.895)"/><path d="M547.837 246.864H594.626V247.765V265.494H547.837V246.864ZM593.403 247.765V248.667V247.765ZM549.978 248.967V263.691H592.486V248.967H549.978Z" fill="#D0E9F4" id="svg_152" class="" transform="translate(-5.26316, -132.895)"/><path d="M604.718 210.806H651.507V211.708V229.436H604.718V210.806ZM650.589 211.708V212.609V211.708ZM607.164 212.91V227.633H649.672V212.91H607.164Z" fill="#D0E9F4" id="svg_153" class="" transform="translate(-5.26316, -132.895)"/><path d="M510.834 210.806H557.623V211.708V229.436H510.834V210.806ZM556.706 211.708V212.609V211.708ZM512.975 212.91V227.633H555.483V212.91H512.975Z" fill="#D0E9F4" id="svg_154" class="" transform="translate(-5.26316, -132.895)"/><path d="M575.36 227.933H622.149V228.835V246.864H575.36V227.933ZM621.232 229.135V230.037V229.135ZM577.501 230.037V244.76H620.008V230.037H577.501Z" fill="#D0E9F4" id="svg_155" class="" transform="translate(-5.26316, -132.895)"/><path d="M311.752 282.321V301.251H264.657V283.523V282.621H311.752V282.321ZM265.88 283.523V284.424V283.523ZM309.611 284.424H267.103V299.148H309.611V284.424Z" fill="#D0E9F4" id="svg_156" class="" transform="translate(-5.26316, -132.895)"/><path d="M357.623 282.321V301.251H310.834V283.523V282.621H357.623V282.321ZM311.752 283.523V284.424V283.523ZM355.483 284.424H312.975V299.148H355.483V284.424Z" fill="#D0E9F4" id="svg_157" class="" transform="translate(-5.26316, -132.895)"/><path d="M403.495 282.321V301.251H356.706V283.523V282.621H403.495V282.321ZM357.623 283.523V284.424V283.523ZM401.354 284.424H358.847V299.148H401.354V284.424Z" fill="#D0E9F4" id="svg_158" class="" transform="translate(-5.26316, -132.895)"/><path d="M295.238 264.292V283.222H248.449V265.494V264.593H295.238V264.292ZM249.367 265.494V266.395V265.494ZM293.098 266.395H250.59V281.119H293.098V266.395Z" fill="#D0E9F4" id="svg_159" class="" transform="translate(-5.26316, -132.895)"/><path d="M416.645 229.136V248.066H369.55V230.037V229.136H416.645ZM370.773 230.037V230.939V230.037ZM414.504 230.939H371.997V245.662H414.504V230.939Z" fill="#D0E9F4" id="svg_160" class="" transform="translate(-5.26316, -132.895)"/><path d="M380.559 264.592V283.522H333.77V265.794V264.893H380.559V264.592ZM334.687 265.493V266.395V265.493ZM378.418 266.395H335.911V281.118H378.418V266.395Z" fill="#D0E9F4" id="svg_161" class="" transform="translate(-5.26316, -132.895)"/><path d="M279.948 246.563V265.494H233.159V247.765V246.864H279.948V246.563ZM234.382 247.465V248.366V247.465ZM277.807 248.366H235.299V263.09H277.807V248.366Z" fill="#D0E9F4" id="svg_162" class="" transform="translate(-5.26316, -132.895)"/><path d="M326.125 246.563V265.494H279.03V247.765V246.864H326.125V246.563ZM280.254 247.465V248.366V247.465ZM323.679 248.366H281.171V263.09H323.679V248.366Z" fill="#D0E9F4" id="svg_163" class="" transform="translate(-5.26316, -132.895)"/><path d="M468.633 246.563V265.494H421.844V247.765V246.864H468.633V246.563ZM422.761 247.465V248.366V247.465ZM466.492 248.366H423.984V263.09H466.492V248.366Z" fill="#D0E9F4" id="svg_164" class="" transform="translate(-5.26316, -132.895)"/><path d="M261.293 228.534V247.465H214.504V229.436V228.534H261.293ZM215.727 229.436V230.337V229.436ZM259.152 230.638H216.645V245.361H259.152V230.638Z" fill="#D0E9F4" id="svg_165" class="" transform="translate(-5.26316, -132.895)"/><path d="M491.874 228.534V247.465H445.085V229.436V228.534H491.874ZM446.002 229.436V230.337V229.436ZM489.427 230.638H446.92V245.361H489.427V230.638Z" fill="#D0E9F4" id="svg_166" class="" transform="translate(-5.26316, -132.895)"/><path d="M284.535 211.708V230.638H237.44V212.609V211.708H284.535ZM238.663 212.609V213.811V212.609ZM282.088 213.811H239.581V228.535H282.088V213.811Z" fill="#D0E9F4" id="svg_167" class="" transform="translate(-5.26316, -132.895)"/><path d="M330.406 211.708V230.638H283.312V212.609V211.708H330.406ZM284.535 212.609V213.811V212.609ZM327.96 213.811H285.758V228.535H328.266V213.811H327.96Z" fill="#D0E9F4" id="svg_168" class="" transform="translate(-5.26316, -132.895)"/><path d="M376.278 211.708V230.638H329.489V212.609V211.708H376.278ZM330.406 212.609V213.811V212.609ZM374.137 213.811H331.63V228.535H374.137V213.811Z" fill="#D0E9F4" id="svg_169" class="" transform="translate(-5.26316, -132.895)"/><path d="M311.888 159.639C311.888 159.639 210.069 152.596 169.289 257.178C128.451 361.66 161.673 470.285 186.136 559.24C210.599 648.194 288.609 692.526 374.395 669.337C460.182 646.149 460.657 570.481 541.449 496.823C622.184 423.332 678.999 411.754 695.034 321.448C711.069 231.142 637.44 163.458 516.665 141.13C395.889 118.802 311.888 159.639 311.888 159.639Z" fill="white" id="svg_170" class="" transform="translate(-5.26316, -132.895)"/><path opacity="0.81" d="M289.652 712.925C408.754 712.925 505.304 616.375 505.304 497.273C505.304 378.172 408.754 281.621 289.652 281.621C170.551 281.621 74 378.172 74 497.273C74 616.375 170.551 712.925 289.652 712.925Z" fill="#BBDDEA" id="svg_171" class="" transform="translate(-5.26316, -132.895)"/><path d="M570.344 694.541L511.323 735.401L468.476 698.797L534.307 652.262L570.344 694.541Z" fill="url(#paint0_linear)" id="svg_172" class="" transform="translate(-5.26316, -132.895)"/><path d="M527.781 695.96L474.719 733.699L438.115 705.323L500.824 665.031L527.781 695.96Z" fill="url(#paint1_linear)" id="svg_173" class="" transform="translate(-5.26316, -132.895)"/><path d="M515.012 663.329C507.634 663.329 501.959 663.896 501.959 664.747V695.109C502.243 696.244 507.918 697.095 515.012 697.095C522.106 697.095 527.781 696.244 528.064 695.109V664.747C528.064 664.18 522.106 663.329 515.012 663.329Z" fill="#B20000" id="svg_174" class="" transform="translate(-5.26316, -132.895)"/><path d="M524.943 665.882C524.943 666.45 520.403 667.017 515.012 667.017C509.62 667.017 505.08 666.45 505.08 665.882C505.08 665.315 509.62 664.747 515.012 664.747C520.403 664.747 524.943 665.315 524.943 665.882Z" fill="#829AC4" id="svg_175" class="" transform="translate(-5.26316, -132.895)"/><path d="M501.675 665.031V695.392C501.959 696.527 507.634 697.378 514.728 697.378C515.012 697.378 515.295 697.378 515.579 697.378V666.449C515.295 666.449 515.012 666.449 514.728 666.449C507.634 666.449 501.959 665.031 501.675 665.031Z" fill="#77000C" id="svg_176" class="" transform="translate(-5.26316, -132.895)"/><path d="M501.959 665.882C501.392 665.598 500.54 665.598 500.54 664.747C500.54 663.896 501.392 663.896 501.959 663.612C502.81 663.328 503.662 663.328 505.08 663.045C507.634 662.761 511.039 662.477 515.012 662.477C520.687 662.477 525.794 662.761 528.064 663.612C528.632 663.896 529.483 663.896 529.483 664.747C529.483 665.598 528.632 665.598 528.064 665.882C527.213 666.166 526.362 666.166 524.943 666.45C522.389 666.733 518.984 667.017 515.012 667.017C509.053 667.017 504.229 666.45 501.959 665.882ZM502.243 665.031C502.81 665.315 503.945 665.315 505.08 665.598C507.634 665.882 511.039 666.166 514.728 666.166C521.254 666.166 526.929 665.598 528.064 665.031C528.064 665.031 527.781 664.747 527.497 664.747C526.929 664.463 525.794 664.463 524.659 664.18C522.106 663.896 518.7 663.612 515.012 663.612C508.485 663.612 502.81 664.18 501.675 664.747C501.675 664.747 501.959 664.747 502.243 665.031Z" fill="white" id="svg_177" class="" transform="translate(-5.26316, -132.895)"/><path d="M525.511 683.758V674.962C522.389 675.246 518.417 675.529 514.728 675.529C511.039 675.529 507.351 675.246 504.229 674.962V683.475C507.634 683.758 511.323 684.042 515.296 684.042C518.984 684.326 522.389 684.042 525.511 683.758Z" fill="white" id="svg_178" class="" transform="translate(-5.26316, -132.895)"/><path d="M570.627 693.974V652.546C570.627 651.411 562.682 650.276 552.751 650.276C542.819 650.276 534.874 651.127 534.874 652.546V693.974C534.874 695.392 542.819 696.527 552.751 696.527C562.682 696.244 570.627 695.392 570.627 693.974Z" fill="#C14E00" id="svg_179" class="" transform="translate(-5.26316, -132.895)"/><path d="M564.952 653.113H565.236C563.533 652.545 558.426 651.978 552.183 651.978C545.941 651.978 540.833 652.545 539.131 653.113C542.536 653.396 547.076 653.68 552.183 653.68C557.291 653.964 561.547 653.68 564.952 653.113Z" fill="#E26713" id="svg_180" class="" transform="translate(-5.26316, -132.895)"/><path d="M567.222 678.083V666.165C562.682 666.733 557.575 666.733 552.183 666.733C547.076 666.733 541.968 666.449 537.712 666.165V678.083C542.252 678.65 547.36 678.934 552.751 678.934C558.142 678.934 562.966 678.65 567.222 678.083Z" fill="white" id="svg_181" class="" transform="translate(-5.26316, -132.895)"/><g opacity="0.52" id="svg_182" class="" transform="translate(-5.26316, -132.895)">
<path opacity="0.52" d="M570.627 693.974V653.397C570.627 652.262 562.682 654.816 552.751 654.816V696.527C562.682 696.244 570.627 695.392 570.627 693.974Z" fill="#E26713" id="svg_183"/>
</g><path d="M534.875 653.68C534.023 653.397 533.172 653.113 532.888 652.262C533.172 651.127 534.023 651.127 534.875 650.843C536.01 650.559 537.428 650.275 539.131 649.992C542.536 649.708 547.36 649.424 552.751 649.424C560.696 649.424 567.506 649.992 570.344 650.843C571.195 651.127 572.046 651.41 572.33 652.262C572.046 653.397 571.479 653.397 570.344 653.68C569.209 653.964 567.79 654.248 566.087 654.532C562.682 655.099 557.858 655.099 552.467 655.099C544.806 655.099 537.996 654.532 534.875 653.68ZM535.158 652.545C536.01 652.829 537.428 653.113 539.131 653.397C542.536 653.68 547.36 653.964 552.467 653.964C557.291 653.964 561.831 653.68 565.236 653.397C567.79 653.113 570.06 652.545 570.627 652.262C570.344 652.262 570.06 651.978 569.776 651.978C568.925 651.694 567.506 651.41 565.804 651.127C562.399 650.843 557.575 650.559 552.467 650.559C547.643 650.559 543.103 650.843 539.698 651.127C537.145 651.41 534.875 651.978 534.307 652.262C534.591 652.262 534.875 652.262 535.158 652.545Z" fill="#E26713" id="svg_184" class="" transform="translate(-5.26316, -132.895)"/><path d="M558.142 640.344C551.616 640.344 546.225 640.912 546.225 641.763V652.546C546.225 653.397 551.9 653.681 558.142 653.681C564.669 653.681 569.493 652.829 570.06 652.546V641.763C570.06 640.912 564.669 640.344 558.142 640.344Z" fill="#282626" id="svg_185" class="" transform="translate(-5.26316, -132.895)"/><path d="M568.357 642.33C568.357 642.898 563.25 642.898 558.142 642.898C553.035 642.898 548.211 642.898 548.211 642.33C548.211 641.763 553.318 641.479 558.142 641.479C562.966 641.763 568.357 641.763 568.357 642.33Z" fill="#D3D3D3" id="svg_186" class="" transform="translate(-5.26316, -132.895)"/><path d="M546.225 642.33V652.545C546.509 653.396 550.765 653.68 555.872 653.68C556.156 653.68 556.156 653.68 556.44 653.68V642.898C556.156 642.898 556.156 642.898 555.872 642.898C550.481 642.614 546.509 642.33 546.225 642.33Z" fill="#282626" id="svg_187" class="" transform="translate(-5.26316, -132.895)"/><path d="M546.508 642.614C545.941 642.33 545.373 642.331 545.09 641.763C545.09 640.912 545.657 640.912 546.508 640.912C547.076 640.628 548.211 640.628 549.346 640.628C551.616 640.344 554.737 640.344 558.426 640.344C563.534 640.344 568.074 640.628 570.06 641.195C570.627 641.479 571.195 641.479 571.479 642.047C571.479 642.898 570.911 642.898 570.06 642.898C569.492 643.182 568.357 643.182 567.222 643.182C564.952 643.466 561.831 643.465 558.142 643.465C552.751 643.182 548.495 642.898 546.508 642.614ZM546.508 641.763C547.076 641.763 547.927 642.047 549.062 642.047C551.332 642.33 554.454 642.33 557.859 642.33C563.534 642.33 568.641 642.047 569.776 641.763C569.776 641.763 569.492 641.763 569.209 641.479C568.641 641.195 567.79 641.195 566.655 641.195C564.385 640.912 561.264 640.912 557.859 640.912C552.184 640.912 547.076 641.479 545.941 641.763C546.225 641.763 546.508 641.763 546.508 641.763Z" fill="#829AC4" id="svg_188" class="" transform="translate(-5.26316, -132.895)"/><path d="M562.966 649.424V645.452C561.264 645.452 559.561 645.452 557.859 645.452C552.751 645.452 548.495 645.168 546.792 644.6V648.573C548.779 649.14 553.035 649.424 557.859 649.424C559.561 649.708 561.264 649.708 562.966 649.424Z" fill="#829AC4" id="svg_189" class="" transform="translate(-5.26316, -132.895)"/><path d="M591.058 701.634C591.058 702.202 590.49 702.486 589.923 702.486H578.289C577.721 702.486 577.154 702.202 577.154 701.634V658.788C577.154 658.22 577.721 657.937 578.289 657.937H589.923C590.49 657.937 591.058 658.22 591.058 658.788V701.634Z" fill="#003893" id="svg_190" class="" transform="translate(-5.26316, -132.895)"/><path d="M591.058 658.504H577.437C576.87 658.504 578.856 657.085 578.856 657.085C579.14 656.801 579.424 656.801 579.708 656.801H588.504C588.788 656.801 589.071 656.801 589.355 657.085C589.923 657.085 591.341 658.504 591.058 658.504Z" fill="#627982" id="svg_191" class="" transform="translate(-5.26316, -132.895)"/><path d="M586.234 655.099H582.261V657.369H586.234V655.099Z" fill="#627982" id="svg_192" class="" transform="translate(-5.26316, -132.895)"/><path d="M587.085 655.383C587.085 655.95 586.801 656.234 586.234 656.234H582.261C581.694 656.234 581.41 655.95 581.41 655.383V652.261C581.41 651.694 581.694 651.41 582.261 651.41H586.234C586.801 651.41 587.085 651.694 587.085 652.261V655.383Z" fill="#003893" id="svg_193" class="" transform="translate(-5.26316, -132.895)"/><path d="M366.609 699.932L325.748 724.902L280.915 690.001L358.096 640.06L366.609 699.932Z" fill="url(#paint2_linear)" id="svg_194" class="" transform="translate(-5.26316, -132.895)"/><path d="M332.275 702.202L297.657 725.186L267.579 694.541L323.762 658.504L332.275 702.202Z" fill="url(#paint3_linear)" id="svg_195" class="" transform="translate(-5.26316, -132.895)"/><path d="M348.449 706.175L313.831 729.159L283.469 698.797L339.652 662.477L348.449 706.175Z" fill="url(#paint4_linear)" id="svg_196" class="" transform="translate(-5.26316, -132.895)"/><path d="M368.312 701.351C368.312 701.919 367.744 702.486 366.893 702.486H352.705C351.854 702.486 351.286 701.919 351.286 701.351V648.573C351.286 648.005 351.854 647.438 352.705 647.438H366.893C367.744 647.438 368.312 648.005 368.312 648.573V701.351Z" fill="#003893" id="svg_197" class="" transform="translate(-5.26316, -132.895)"/><path d="M368.028 648.289H351.286C350.719 648.289 353.272 646.586 353.272 646.586C353.84 646.303 354.124 646.302 354.407 646.302H365.474C365.758 646.302 366.325 646.303 366.609 646.586C366.609 646.586 368.595 648.289 368.028 648.289Z" fill="#829AC4" id="svg_198" class="" transform="translate(-5.26316, -132.895)"/><path d="M362.352 644.317H357.529V647.154H362.352V644.317Z" fill="#829AC4" id="svg_199" class="" transform="translate(-5.26316, -132.895)"/><path d="M363.204 644.317C363.204 644.884 362.636 645.452 362.069 645.452H357.245C356.678 645.452 356.11 644.884 356.11 644.317V640.628C356.11 640.06 356.678 639.493 357.245 639.493H362.069C362.636 639.493 363.204 640.06 363.204 640.628V644.317Z" fill="#003893" id="svg_200" class="" transform="translate(-5.26316, -132.895)"/><path d="M348.449 666.733H335.396V705.891H348.449V666.733Z" fill="black" id="svg_201" class="" transform="translate(-5.26316, -132.895)"/><path d="M348.449 666.733C348.449 667.301 345.611 667.584 341.922 667.584C338.234 667.584 335.396 667.301 335.396 666.733C335.396 666.166 338.234 665.882 341.922 665.882C345.327 665.882 348.449 666.166 348.449 666.733Z" fill="#D3D3D3" id="svg_202" class="" transform="translate(-5.26316, -132.895)"/><path d="M343.909 664.179H339.653V666.449H343.909V664.179Z" fill="#D3D3D3" id="svg_203" class="" transform="translate(-5.26316, -132.895)"/><path d="M344.476 662.193H339.369V664.747H344.476V662.193Z" fill="black" id="svg_204" class="" transform="translate(-5.26316, -132.895)"/><path d="M332.558 663.045H319.506V702.203H332.558V663.045Z" fill="black" id="svg_205" class="" transform="translate(-5.26316, -132.895)"/><path d="M332.275 663.045C332.275 663.612 329.437 663.896 325.748 663.896C322.06 663.896 319.222 663.612 319.222 663.045C319.222 662.477 322.06 662.193 325.748 662.193C329.437 662.193 332.275 662.477 332.275 663.045Z" fill="#D3D3D3" id="svg_206" class="" transform="translate(-5.26316, -132.895)"/><path d="M328.018 660.491H323.762V662.761H328.018V660.491Z" fill="#D3D3D3" id="svg_207" class="" transform="translate(-5.26316, -132.895)"/><path d="M328.586 658.504H323.478V661.058H328.586V658.504Z" fill="black" id="svg_208" class="" transform="translate(-5.26316, -132.895)"/><path opacity="0.8" d="M204.586 274.586L297.941 237.982L298.792 278.275L188.128 357.158L195.789 548.691L0.851259 646.586L0 333.039L206.288 224.078L204.586 274.586Z" fill="url(#paint5_linear)" id="svg_209" class="" transform="translate(-5.26316, -132.895)"/><path opacity="0.8" d="M379.094 445.689L426.481 550.962L477.84 722.065L253.959 817.406H175.359L174.508 503.859L380.796 394.898L379.094 445.689Z" fill="url(#paint6_linear)" id="svg_210" class="" transform="translate(-5.26316, -132.895)"/><path d="M235.515 357.158C238.92 357.442 242.041 359.144 242.325 361.131C242.609 363.117 240.055 364.536 236.366 364.252L184.723 360.279C181.318 359.996 178.197 358.293 178.197 356.307C177.913 354.321 180.75 352.902 184.156 353.186L235.515 357.158Z" fill="#4D5A89" id="svg_211" class="" transform="translate(-5.26316, -132.895)"/><path d="M238.92 383.263C242.325 383.547 245.446 385.25 245.73 387.52C246.014 389.506 243.46 390.925 239.771 390.641L187.561 386.385C184.156 386.101 181.034 384.398 180.751 382.412C180.467 380.426 183.304 379.007 186.709 379.291L238.92 383.263Z" fill="#4D5A89" id="svg_212" class="" transform="translate(-5.26316, -132.895)"/><path d="M242.893 410.219C246.581 410.503 249.703 412.489 249.987 414.476C250.27 416.462 247.433 417.881 244.028 417.597L190.115 413.341C186.426 413.057 183.305 411.071 183.305 409.084C183.021 407.098 185.858 405.679 189.547 405.963L242.893 410.219Z" fill="#4D5A89" id="svg_213" class="" transform="translate(-5.26316, -132.895)"/><path d="M247.149 437.744C250.838 438.028 254.243 440.014 254.527 442C254.81 443.986 251.973 445.689 248.284 445.405L192.385 440.865C188.696 440.581 185.291 438.595 185.291 436.609C185.007 434.623 187.845 432.92 191.817 433.487L247.149 437.744Z" fill="#4D5A89" id="svg_214" class="" transform="translate(-5.26316, -132.895)"/><path d="M250.27 465.835C254.243 466.119 257.364 468.105 257.931 470.375C258.215 472.645 255.378 474.064 251.405 473.78L194.087 468.957C190.115 468.673 186.993 466.687 186.709 464.417C186.426 462.147 189.547 460.728 193.236 461.012L250.27 465.835Z" fill="#4D5A89" id="svg_215" class="" transform="translate(-5.26316, -132.895)"/><path d="M257.648 498.751C261.62 499.034 265.025 501.021 265.309 503.291C265.593 505.561 262.755 506.979 258.499 506.696L196.641 502.439C192.668 502.156 192.101 500.453 191.817 498.183C191.533 495.913 191.817 494.211 195.79 494.494L257.648 498.751Z" fill="#4D5A89" id="svg_216" class="" transform="translate(-5.26316, -132.895)"/><path d="M261.337 530.531C265.309 530.815 268.998 532.801 269.282 535.071C269.565 537.341 266.444 539.044 262.472 538.76L198.343 533.936C194.371 533.653 194.938 531.95 194.938 529.68C194.655 527.41 193.803 525.424 197.776 525.708L261.337 530.531Z" fill="#4D5A89" id="svg_217" class="" transform="translate(-5.26316, -132.895)"/><path d="M267.012 566.851C270.984 567.135 274.673 569.405 274.957 571.959C275.241 574.513 272.119 576.215 268.147 575.648L203.735 570.256C199.762 569.973 200.614 567.986 200.33 565.716C200.046 563.446 198.911 561.46 202.884 561.744L267.012 566.851Z" fill="#4D5A89" id="svg_218" class="" transform="translate(-5.26316, -132.895)"/><path d="M270.133 604.023C274.673 604.59 278.362 606.861 278.929 609.698C279.213 612.252 275.808 613.954 271.552 613.671L205.153 606.861C200.613 606.293 196.925 604.023 196.641 601.469C196.357 598.915 199.762 597.213 204.302 597.497L270.133 604.023Z" fill="#4D5A89" id="svg_219" class="" transform="translate(-5.26316, -132.895)"/><path d="M277.227 647.437C281.767 648.005 285.739 650.558 286.023 653.396C286.307 656.233 283.185 658.22 278.362 657.652L211.112 649.991C206.572 649.423 202.6 646.87 202.316 644.032C202.032 641.195 205.437 639.208 209.977 639.776L277.227 647.437Z" fill="#4D5A89" id="svg_220" class="" transform="translate(-5.26316, -132.895)"/><path d="M234.096 286.788C236.65 286.788 239.204 288.774 239.488 290.76L298.792 718.943C299.076 720.93 297.089 722.632 294.536 722.348C291.982 722.065 289.428 720.362 289.144 718.092L229.84 290.193C229.556 288.206 231.542 286.788 234.096 286.788Z" fill="#4D5A89" id="svg_221" class="" transform="translate(-5.26316, -132.895)"/><path d="M208.842 714.403C211.396 714.687 213.666 713.268 213.382 711.282L179.332 286.787C179.048 284.801 176.778 282.815 174.224 282.815C171.671 282.531 169.684 283.95 169.684 285.936L203.451 710.147C204.018 712.133 206.288 714.119 208.842 714.403Z" fill="#4D5A89" id="svg_222" class="" transform="translate(-5.26316, -132.895)"/><path d="M91.936 730.009C94.4898 730.861 99.8811 728.591 100.165 726.321L178.197 289.625C178.481 287.355 175.927 284.234 172.522 283.95H171.954C169.401 283.666 167.414 284.801 167.131 287.071L90.801 725.469C90.5172 727.739 87.3959 726.321 90.2335 729.158L91.936 730.009Z" fill="#4D5A89" id="svg_223" class="" transform="translate(-5.26316, -132.895)"/><path d="M180.75 758.668C183.588 759.236 188.128 757.533 188.412 754.98L245.162 293.314C245.446 291.044 242.325 287.922 238.92 287.922H238.352C235.515 287.922 233.528 289.057 233.245 291.327L178.197 752.709C177.913 754.979 175.643 755.547 178.764 758.384L180.75 758.668Z" fill="#829AC4" id="svg_224" class="" transform="translate(-5.26316, -132.895)"/><path d="M224.165 333.607C227.853 333.89 230.691 335.877 230.407 338.147C230.123 340.417 227.002 341.835 223.03 341.552L168.549 336.444C164.86 336.16 162.306 334.174 162.59 331.904C162.874 329.634 165.995 328.215 169.684 328.499L224.165 333.607Z" fill="#4D5A89" id="svg_225" class="" transform="translate(-5.26316, -132.895)"/><path d="M220.476 363.685C224.165 363.969 227.002 366.239 226.718 368.509C226.435 370.779 223.03 372.197 219.341 371.914L164.293 366.239C160.604 365.955 158.05 363.685 158.334 361.415C158.618 359.145 162.023 357.726 165.428 358.01L220.476 363.685Z" fill="#4D5A89" id="svg_226" class="" transform="translate(-5.26316, -132.895)"/><path d="M216.787 394.046C220.76 394.614 223.597 396.6 223.314 399.154C223.03 401.424 219.625 403.126 215.652 402.559L159.185 396.033C155.497 395.465 152.659 393.479 153.227 391.209C153.51 388.939 156.915 387.52 160.604 387.804L216.787 394.046Z" fill="#4D5A89" id="svg_227" class="" transform="translate(-5.26316, -132.895)"/><path d="M213.666 425.259C217.638 425.826 220.76 428.096 220.476 430.366C220.192 432.636 216.503 434.339 212.531 433.771L154.078 426.394C150.105 425.826 147.268 423.556 147.835 421.286C148.119 419.016 151.524 417.597 155.496 417.881L213.666 425.259Z" fill="#4D5A89" id="svg_228" class="" transform="translate(-5.26316, -132.895)"/><path d="M208.842 456.756C213.098 457.323 215.936 459.593 215.652 462.147C215.368 464.701 211.679 466.119 207.707 465.552L148.119 457.323C144.146 456.756 141.309 454.486 141.593 451.932C141.876 449.662 145.565 447.959 149.254 448.527L208.842 456.756Z" fill="#4D5A89" id="svg_229" class="" transform="translate(-5.26316, -132.895)"/><path d="M205.153 492.508C209.126 493.076 210.261 495.346 209.977 497.9C209.693 500.453 206.288 501.872 202.316 501.305L141.876 492.225C138.188 491.657 137.904 489.671 138.471 487.117C138.755 484.563 139.606 482.861 143.295 483.428L205.153 492.508Z" fill="#4D5A89" id="svg_230" class="" transform="translate(-5.26316, -132.895)"/><path d="M198.627 555.218C202.6 555.785 202.6 558.056 202.316 560.609C202.032 563.163 198.343 564.866 194.371 564.014L131.378 552.948C127.405 552.38 128.824 550.394 129.108 547.84C129.391 545.287 128.824 543.017 132.796 543.868L198.627 555.218Z" fill="#4D5A89" id="svg_231" class="" transform="translate(-5.26316, -132.895)"/><path d="M189.831 607.145C194.371 607.996 197.776 611.117 197.492 613.671C197.208 616.508 193.236 617.927 188.696 617.076L122.865 604.023C118.609 603.172 115.487 600.335 115.771 597.781C116.055 595.227 120.027 593.524 124.284 594.376L189.831 607.145Z" fill="#4D5A89" id="svg_232" class="" transform="translate(-5.26316, -132.895)"/><path d="M184.156 669.57C188.979 670.421 189.263 673.542 188.979 676.38C188.696 679.217 187.561 680.636 183.021 679.785L114.92 665.314C110.38 664.462 107.259 661.341 107.542 658.787C108.11 655.95 111.799 654.531 116.339 655.666L184.156 669.57Z" fill="#4D5A89" id="svg_233" class="" transform="translate(-5.26316, -132.895)"/><path d="M223.314 332.755C227.002 333.039 229.84 335.309 229.556 337.579C229.273 339.849 225.867 341.268 222.179 340.984L167.414 335.309C163.726 335.025 161.172 332.755 161.456 330.769C161.739 328.499 165.144 327.08 168.549 327.364L223.314 332.755Z" fill="#829AC4" id="svg_234" class="" transform="translate(-5.26316, -132.895)"/><path d="M219.057 362.833C222.746 363.117 225.584 365.387 225.3 367.657C225.016 369.927 221.611 371.345 217.922 371.062L162.591 364.819C158.902 364.535 156.348 362.265 156.632 359.995C156.916 357.725 160.321 356.307 163.726 356.59L219.057 362.833Z" fill="#829AC4" id="svg_235" class="" transform="translate(-5.26316, -132.895)"/><path d="M215.369 393.478C219.341 394.046 222.179 396.316 221.895 398.586C221.611 400.856 218.206 402.558 214.234 401.991L157.483 394.897C153.794 394.33 150.957 392.343 151.524 389.79C151.808 387.52 155.213 386.101 158.902 386.384L215.369 393.478Z" fill="#829AC4" id="svg_236" class="" transform="translate(-5.26316, -132.895)"/><path d="M211.963 424.691C215.936 425.259 219.057 427.529 218.773 430.082C218.49 432.352 214.801 434.055 210.828 433.487L152.091 425.542C148.119 424.975 145.281 422.705 145.849 420.435C146.133 418.165 149.821 416.746 153.51 417.03L211.963 424.691Z" fill="#829AC4" id="svg_237" class="" transform="translate(-5.26316, -132.895)"/><path d="M206.856 456.187C211.112 456.755 213.95 459.309 213.666 461.579C213.382 464.132 209.694 465.551 205.437 464.984L145.565 456.187C141.593 455.62 138.755 453.066 139.039 450.796C139.323 448.526 143.012 446.823 146.984 447.391L206.856 456.187Z" fill="#829AC4" id="svg_238" class="" transform="translate(-5.26316, -132.895)"/><path d="M202.032 493.643C206.005 494.211 208.842 496.764 208.558 499.318C208.275 501.872 204.586 503.291 200.613 502.723L139.89 493.075C136.201 492.508 135.918 490.522 136.485 487.968C136.769 485.414 137.62 483.712 141.309 484.279L202.032 493.643Z" fill="#829AC4" id="svg_239" class="" transform="translate(-5.26316, -132.895)"/><path d="M195.506 554.65C199.762 555.218 202.883 558.055 202.599 560.609C202.316 563.163 198.627 564.865 194.371 564.014L128.256 553.515C124.284 552.948 125.419 550.961 125.986 548.408C126.27 545.854 125.702 543.584 129.675 544.151L195.506 554.65Z" fill="#4D5A89" id="svg_240" class="" transform="translate(-5.26316, -132.895)"/><path d="M187.561 609.981C192.101 610.833 195.506 613.954 195.222 616.791C194.938 619.629 190.966 621.048 186.142 620.196L120.027 606.293C115.771 605.441 112.65 602.604 112.934 599.766C113.501 597.212 117.19 595.51 121.446 596.645L187.561 609.981Z" fill="#829AC4" id="svg_241" class="" transform="translate(-5.26316, -132.895)"/><path d="M180.467 673.258C185.291 674.393 188.696 677.515 188.412 680.352C188.128 683.19 183.872 684.608 179.048 683.473L110.664 668.151C106.123 667.016 103.002 664.178 103.286 661.341C103.853 658.503 107.826 657.084 112.082 658.219L180.467 673.258Z" fill="#829AC4" id="svg_242" class="" transform="translate(-5.26316, -132.895)"/><path d="M235.231 286.787C238.069 287.071 240.055 289.057 239.771 291.327L181.035 755.83C180.751 758.1 178.197 759.519 175.359 758.668C172.522 758.1 170.536 755.547 170.819 753.277L229.273 290.759C229.84 288.489 232.394 286.787 235.231 286.787Z" fill="#4D5A89" id="svg_243" class="" transform="translate(-5.26316, -132.895)"/><path d="M90.2335 730.293C92.7872 731.144 95.341 729.725 95.6248 727.739L176.494 286.22C176.778 283.95 175.076 281.963 172.238 281.68C169.401 281.396 167.131 283.098 166.563 285.368L86.2609 724.902C85.9772 727.172 87.6797 729.442 90.2335 730.293Z" fill="#4D5A89" id="svg_244" class="" transform="translate(-5.26316, -132.895)"/><path d="M182.17 273.167C175.076 267.776 169.401 279.693 167.414 281.396C165.144 283.098 145.849 306.65 146.984 314.028C148.119 321.121 157.767 338.714 171.103 332.755C184.156 326.513 182.17 273.167 182.17 273.167Z" fill="black" id="svg_245" class="" transform="translate(-5.26316, -132.895)"/><path d="M132.513 527.41C131.662 531.382 128.257 543.584 133.364 546.421C138.472 549.259 143.012 546.989 145.282 546.705C147.835 546.705 168.549 545.854 169.401 541.881C170.252 537.909 171.387 535.639 154.929 533.085C149.538 530.815 151.808 526.275 151.808 526.275L132.513 527.41Z" fill="black" id="svg_246" class="" transform="translate(-5.26316, -132.895)"/><path d="M196.925 543.3C195.222 542.449 192.385 541.881 186.993 540.462C181.602 538.76 183.588 531.666 183.588 531.666L163.442 531.099C162.874 535.071 156.916 551.245 162.023 553.515C167.131 555.785 171.671 553.231 173.941 552.947C175.643 552.664 188.98 554.366 195.506 551.812L196.925 543.3Z" fill="black" id="svg_247" class="" transform="translate(-5.26316, -132.895)"/><path d="M177.629 350.632C172.238 370.779 161.172 453.634 159.185 467.822C157.199 482.01 150.956 531.95 157.199 545.854L189.263 540.179C189.263 540.179 177.629 499.319 192.101 473.213C196.924 464.417 205.153 414.476 208.275 392.911C209.126 386.385 212.815 375.886 213.95 364.536C215.085 349.213 177.629 350.632 177.629 350.632Z" fill="#210500" id="svg_248" class="" transform="translate(-5.26316, -132.895)"/><path d="M165.144 339.282C160.604 350.916 154.645 357.726 150.389 374.751C148.403 383.264 151.24 390.074 150.105 395.749C148.687 401.424 139.323 460.444 139.323 460.444C139.323 460.444 131.945 495.913 128.824 516.911C127.689 524.289 126.838 527.978 128.256 535.071C128.256 535.071 126.554 536.49 132.796 535.639C139.039 534.788 154.362 534.504 158.902 528.829C163.442 523.154 180.751 376.737 180.751 376.737L165.144 339.282Z" fill="#210500" id="svg_249" class="" transform="translate(-5.26316, -132.895)"/><path d="M215.936 362.549C214.234 368.792 211.396 386.101 209.694 389.506C207.991 393.194 199.762 453.35 196.073 464.984C192.385 476.618 191.817 476.618 190.115 483.428C188.412 490.238 185.858 522.586 187.277 527.126C188.696 531.666 189.831 538.476 190.966 540.462C192.101 542.165 176.494 542.732 173.373 543.3C170.252 543.867 171.387 530.531 171.387 530.531L182.453 527.126C182.453 527.126 175.643 525.991 176.494 522.87C177.346 519.748 179.048 514.357 181.034 502.723C183.021 491.089 181.318 478.604 186.993 468.389C192.668 458.174 200.613 363.4 204.018 359.995C207.707 356.307 215.936 362.549 215.936 362.549Z" fill="#4F1109" id="svg_250" class="" transform="translate(-5.26316, -132.895)"/><path d="M205.154 242.806C205.154 246.495 201.465 253.588 199.762 258.98C197.776 265.79 189.547 276.856 189.547 276.856L211.112 287.639C211.112 287.639 217.071 270.33 222.462 267.492C223.03 267.492 205.154 242.806 205.154 242.806Z" fill="#E5C0AE" id="svg_251" class="" transform="translate(-5.26316, -132.895)"/><path d="M235.799 245.359C232.961 258.979 225.868 270.613 220.193 270.613C214.517 270.33 203.451 258.128 203.735 247.346C204.019 236.563 211.68 227.483 222.179 229.469C233.529 231.455 238.069 234.86 235.799 245.359Z" fill="#E5C0AE" id="svg_252" class="" transform="translate(-5.26316, -132.895)"/><path d="M236.934 277.707C227.286 273.735 225.016 271.748 225.016 271.748C225.016 271.748 210.828 277.707 207.423 277.14C191.817 276.856 191.817 267.208 191.817 267.208C191.817 267.208 183.304 270.046 179.616 270.613C174.792 271.181 169.968 286.787 164.577 314.027C164.009 317.149 146.984 350.348 151.808 364.819C154.645 373.332 196.073 372.197 208.275 380.709C211.963 383.263 214.801 376.453 215.652 372.764C216.503 369.076 218.773 329.066 237.501 304.096C237.785 304.096 239.204 278.842 236.934 277.707Z" fill="black" id="svg_253" class="" transform="translate(-5.26316, -132.895)"/><path d="M239.487 238.265C237.785 232.874 228.989 218.97 214.233 221.524C202.032 223.794 198.343 228.334 197.208 234.009C195.506 239.4 194.938 245.076 194.087 247.062C191.817 247.913 189.547 248.197 188.979 247.062C190.966 252.453 195.789 252.169 195.789 252.169L188.979 253.588C188.979 253.588 191.817 260.114 193.803 260.114C196.073 260.114 190.114 260.682 190.114 260.682C190.114 260.682 200.613 266.641 201.748 266.924C203.167 267.208 208.558 267.492 208.558 267.492C208.558 267.492 215.652 268.911 214.801 267.208C213.098 263.519 215.368 262.952 216.22 264.087C217.638 265.789 221.043 262.101 221.043 262.101C221.043 262.101 224.165 260.114 221.895 257.561C220.76 256.426 222.746 252.453 223.03 251.602C223.881 248.197 227.854 247.346 227.286 250.751C226.719 254.156 228.705 253.588 228.705 253.588L230.407 253.872C230.407 253.872 233.812 246.778 235.799 244.508C238.352 245.359 242.041 244.508 243.176 241.103C242.892 242.238 241.19 240.535 239.487 238.265Z" fill="#4F1109" id="svg_254" class="" transform="translate(-5.26316, -132.895)"/><path opacity="0.95" d="M298.792 278.275L288.576 276.856L294.252 239.401L304.467 240.82L298.792 278.275Z" fill="white" id="svg_255" class="" transform="translate(-5.26316, -132.895)"/><path d="M304.467 240.819C304.467 241.103 302.197 241.103 299.359 240.819C296.522 240.535 294.252 239.684 294.252 239.4C294.252 239.117 296.522 239.117 299.359 239.4C302.197 239.968 304.467 240.535 304.467 240.819Z" fill="#829AC4" id="svg_256" class="" transform="translate(-5.26316, -132.895)"/><path d="M298.026 237.953L297.75 239.92L301.122 240.393L301.398 238.426L298.026 237.953Z" fill="#829AC4" id="svg_257" class="" transform="translate(-5.26316, -132.895)"/><path opacity="0.95" d="M301.629 239.117L297.656 238.549L297.94 236.279L301.913 236.847L301.629 239.117Z" fill="white" id="svg_258" class="" transform="translate(-5.26316, -132.895)"/><path d="M303.615 247.629C305.034 246.494 306.453 244.792 306.453 243.941C306.453 243.089 304.183 244.224 302.764 245.076C303.332 244.792 303.899 244.224 304.751 243.657C308.156 241.387 302.197 242.238 302.197 242.238C302.197 242.238 296.238 245.359 295.954 242.522C296.805 240.819 297.373 239.684 297.657 238.833C298.792 237.982 299.927 237.13 300.778 236.563C301.913 235.428 300.494 235.428 299.359 235.712C298.792 235.712 295.954 237.414 295.954 237.414C295.103 237.982 293.968 240.536 293.117 241.671C291.982 243.089 287.725 253.304 287.725 253.304C287.725 253.304 281.199 259.263 276.091 262.952C272.403 265.222 282.334 272.6 282.334 272.6C282.334 272.6 288.577 264.371 292.833 262.101C297.373 259.831 303.332 251.886 303.332 251.886C303.332 251.886 305.886 247.913 305.602 247.062C305.602 246.494 304.751 247.062 303.615 247.629Z" fill="#E5C0AE" id="svg_259" class="" transform="translate(-5.26316, -132.895)"/><path d="M231.826 277.139C245.162 277.139 253.675 274.869 263.323 272.032L284.888 255.007L289.428 273.734C289.428 273.734 273.538 291.043 267.863 294.448C262.188 297.853 238.92 307.501 230.691 307.501C222.179 307.217 220.192 277.139 231.826 277.139Z" fill="black" id="svg_260" class="" transform="translate(-5.26316, -132.895)"/><path d="M193.236 298.704C190.115 297.002 181.318 275.153 183.588 269.762C185.574 264.087 193.236 263.519 195.506 264.654C197.492 265.789 198.343 267.208 196.357 268.627C194.371 270.045 194.087 273.45 194.087 273.45L193.236 298.704Z" fill="black" id="svg_261" class="" transform="translate(-5.26316, -132.895)"/><path d="M233.529 273.451C231.826 267.492 227.57 268.627 223.314 268.627C219.057 268.627 206.289 275.153 194.087 270.046C192.385 269.478 186.993 300.407 194.371 298.705C201.465 297.002 217.355 276.572 220.192 276.288C223.03 276.004 233.529 273.451 233.529 273.451Z" fill="#282626" id="svg_262" class="" transform="translate(-5.26316, -132.895)"/><path d="M284.604 255.007C283.469 254.44 263.606 270.897 261.336 271.465C259.066 272.032 240.055 275.154 237.501 275.154C234.947 275.154 230.407 274.586 227.853 274.586C225.583 274.586 221.611 276.005 221.611 276.005C221.611 276.005 235.515 278.842 237.501 279.41C239.487 279.977 260.769 276.289 262.755 275.437C264.458 274.586 282.334 262.668 284.888 260.398C287.442 258.412 284.604 255.007 284.604 255.007Z" fill="#282626" id="svg_263" class="" transform="translate(-5.26316, -132.895)"/><path d="M427.332 328.783L309.291 399.721L354.691 497.616L435.561 433.772L451.167 358.577L427.332 328.783Z" fill="url(#paint7_linear)" id="svg_264" class="" transform="translate(-5.26316, -132.895)"/><path d="M458.95684337615967,219.4402618408203 L452.1468458175659,228.2362823486328 L420.9338331222534,202.4142608642578 L427.74383068084717,193.9022674560547 L458.95684337615967,219.4402618408203 z" fill="black" id="svg_265" class=""/><path d="M427.74383068084717,193.9022674560547 C428.0278272628784,194.1852569580078 426.6088514328003,196.17225646972656 424.9068555831909,198.7252655029297 C422.91985607147217,200.9962615966797 421.21782970428467,202.69825744628906 420.9338331222534,202.4142608642578 C420.64983654022217,202.1312713623047 422.0688428878784,200.14427185058594 423.7718458175659,197.5902557373047 C425.75783824920654,195.3202667236328 427.4598340988159,193.61827087402344 427.74383068084717,193.9022674560547 z" fill="#C3CAD1" id="svg_266" class=""/><path d="M423.8288526535034,195.4502716064453 L421.68984508514404,198.09925842285156 L423.2348279953003,199.34727478027344 L425.37383556365967,196.69825744628906 L423.8288526535034,195.4502716064453 z" fill="#829AC4" id="svg_267" class=""/><path d="M424.62282848358154,195.32127380371094 L421.78484630584717,198.7262725830078 L420.0828504562378,197.30726623535156 L422.6368360519409,193.9022674560547 L424.62282848358154,195.32127380371094 z" fill="black" id="svg_268" class=""/><path d="M434.26983165740967,198.44227600097656 C433.7028455734253,196.4552764892578 432.85183238983154,194.1852569580078 431.9998426437378,193.9022674560547 C431.14882946014404,193.61827087402344 431.14882946014404,195.8882598876953 431.14882946014404,198.1582794189453 C431.14882946014404,197.30726623535156 430.8648328781128,196.4552764892578 430.8648328781128,195.60426330566406 C430.2978467941284,191.34828186035156 428.3118543624878,197.30726623535156 428.3118543624878,197.30726623535156 C428.3118543624878,197.30726623535156 428.3118543624878,204.40126037597656 425.4738416671753,203.2662811279297 C424.3388319015503,201.5632781982422 423.48784923553467,200.4282684326172 422.91985607147217,199.8612823486328 C422.6358289718628,198.44227600097656 422.35283946990967,196.73927307128906 422.0688428878784,195.8882598876953 C421.5008497238159,194.1852569580078 420.9338331222534,195.60426330566406 420.3658399581909,196.73927307128906 C420.0828504562378,197.30726623535156 420.3658399581909,200.9962615966797 420.3658399581909,200.9962615966797 C420.3658399581909,202.1312713623047 422.35283946990967,204.40126037597656 422.91985607147217,205.8192596435547 C423.7708387374878,207.5222625732422 431.14882946014404,216.8862762451172 431.14882946014404,216.8862762451172 C431.14882946014404,216.8862762451172 433.41884899139404,225.9662628173828 434.26983165740967,232.77626037597656 C434.8378553390503,237.0322723388672 446.47182750701904,231.35728454589844 446.47182750701904,231.35728454589844 C446.47182750701904,231.35728454589844 441.64785289764404,221.42628479003906 441.9318494796753,216.0342559814453 C442.2148389816284,210.92726135253906 437.67483043670654,200.9962615966797 437.67483043670654,200.9962615966797 C437.67483043670654,200.9962615966797 435.12185192108154,196.4552764892578 434.5538282394409,196.4552764892578 C433.98684215545654,195.8882598876953 433.98684215545654,197.0232696533203 434.26983165740967,198.44227600097656 z" fill="#E5C0AE" id="svg_269" class=""/><path d="M436.54082775115967,422.03929138183594 C443.9178419113159,420.33628845214844 451.0118360519409,417.2152557373047 451.0118360519409,419.20127868652344 C451.0118360519409,421.1882781982422 447.03884410858154,427.1472625732422 444.76885509490967,426.5792694091797 C441.9318494796753,426.29527282714844 436.54082775115967,422.03929138183594 436.54082775115967,422.03929138183594 z" fill="black" id="svg_270" class=""/><path d="M370.7098340988159,436.5102996826172 C370.42583751678467,434.2402801513672 378.3708448410034,432.25425720214844 381.7758436203003,433.1052703857422 C385.18084239959717,433.95628356933594 386.0328321456909,446.7252655029297 385.18084239959717,447.2932586669922 C385.18084239959717,447.2932586669922 374.39882946014404,442.4692840576172 373.5468397140503,440.1992645263672 C372.4118299484253,438.49729919433594 370.7098340988159,436.5102996826172 370.7098340988159,436.5102996826172 z" fill="black" id="svg_271" class=""/><path d="M488.1838331222534,576.9682464599609 C491.0208387374878,574.9822845458984 468.0368299484253,494.96324157714844 467.18584728240967,491.5582733154297 C465.7668409347534,486.1672821044922 461.5108289718628,469.99327087402344 454.9838514328003,445.02330017089844 C449.59282970428467,424.3092498779297 440.2288465499878,401.3252410888672 435.6888380050659,394.2312469482422 H428.87884044647217 C428.5948438644409,394.51524353027344 428.3118543624878,394.7992401123047 428.3118543624878,394.7992401123047 C438.24285411834717,414.0942840576172 458.1058301925659,481.06028747558594 462.0778455734253,510.2863006591797 C463.49685192108154,521.0692596435547 477.96782970428467,556.5382537841797 477.68484020233154,576.1172943115234 C480.5218458175659,575.5492401123047 486.7648572921753,577.8192596435547 488.1838331222534,576.9682464599609 z" fill="#282626" id="svg_272" class=""/><path d="M435.12185192108154,289.5272674560547 C430.01385021209717,281.8652801513672 425.18984508514404,274.7722625732422 425.18984508514404,274.7722625732422 C425.18984508514404,274.7722625732422 427.4598340988159,265.4082794189453 434.2708387374878,249.80128479003906 C433.41884899139404,247.53126525878906 432.0008497238159,218.8722686767578 432.0008497238159,218.8722686767578 C430.8658399581909,211.4952850341797 440.2288465499878,214.6162567138672 441.08083629608154,216.03526306152344 C446.1878309249878,223.9802703857422 449.0258436203003,239.8702850341797 451.29583263397217,252.3552703857422 C447.60683727264404,275.9072723388672 440.51284313201904,289.8102569580078 435.12185192108154,289.5272674560547 z" fill="#E5C0AE" id="svg_273" class=""/><path d="M451.86284923553467,446.1582489013672 C447.60683727264404,425.16026306152344 439.94484996795654,401.6092987060547 435.6888380050659,394.2312469482422 C435.6888380050659,394.2312469482422 374.1148328781128,395.9342498779297 373.83083629608154,405.01426696777344 C373.26284313201904,433.95726013183594 379.5058546066284,492.97727966308594 380.35683727264404,494.3962860107422 C381.49184703826904,506.8812713623047 384.3298292160034,512.8402557373047 385.18084239959717,519.0822601318359 C386.5998487472534,532.1352996826172 388.01885509490967,565.6182708740234 388.01885509490967,574.6982879638672 C388.01885509490967,582.3592987060547 407.8808546066284,578.1032562255859 407.8808546066284,578.1032562255859 C407.8808546066284,578.1032562255859 427.1768445968628,584.9132537841797 427.74383068084717,579.2382659912109 C428.3118543624878,574.4142913818359 423.48784923553467,527.5952606201172 422.35283946990967,520.2172698974609 L414.4078321456909,468.0072479248047 C417.2448377609253,466.87229919433594 420.0828504562378,467.1562957763672 423.2038526535034,469.7092742919922 C424.62282848358154,475.1012420654297 426.04082775115967,479.6412811279297 427.17583751678467,483.3302459716797 C430.01385021209717,491.84226989746094 435.12185192108154,521.3522796630859 438.5268507003784,532.9862518310547 C442.49883556365967,589.7372894287109 456.11883068084717,575.5492401123047 457.82183361053467,573.2792816162109 C462.9288282394409,564.7672576904297 484.21084117889404,575.8332977294922 485.6298475265503,574.9822845458984 C489.03484630584717,573.5632781982422 456.97085094451904,471.4122772216797 451.86284923553467,446.1582489013672 z" fill="black" id="svg_274" class=""/><path d="M402.20684337615967,291.5122833251953 C403.6248426437378,295.20127868652344 405.04384899139404,305.13328552246094 410.43484020233154,307.9702606201172 C410.7188367843628,314.78025817871094 381.2088270187378,323.2932586669922 375.53383922576904,312.7942657470703 C378.3708448410034,303.99827575683594 378.9388380050659,296.3362579345703 378.65484142303467,293.7832794189453 C378.0878553390503,291.5122833251953 402.20684337615967,291.5122833251953 402.20684337615967,291.5122833251953 z" fill="#D3A994" id="svg_275" class=""/><path d="M402.4898328781128,271.9342803955078 C400.2198438644409,263.7052764892578 393.40984630584717,258.59727478027344 381.49184703826904,262.0022735595703 C366.73684215545654,265.9752655029297 368.72283458709717,274.48826599121094 371.8448438644409,284.13526916503906 C374.96584606170654,294.06727600097656 384.6138563156128,304.5652618408203 392.27483654022217,302.5792694091797 C397.94985485076904,301.16026306152344 403.34084606170654,294.3502655029297 401.9228467941284,284.70326232910156 C403.34084606170654,283.5682830810547 404.47585582733154,281.01426696777344 404.47585582733154,277.60926818847656 C404.7598524093628,273.92027282714844 404.7598524093628,271.65028381347656 402.4898328781128,271.9342803955078 z" fill="#E5C0AE" id="svg_276" class=""/><path d="M377.2358350753784,265.12428283691406 C370.1418409347534,268.52928161621094 367.30483531951904,273.0692596435547 369.8588514328003,280.7302703857422 C369.57485485076904,280.7302703857422 370.7098340988159,281.29725646972656 370.42583751678467,281.29725646972656 C367.87185192108154,281.8652801513672 367.0208387374878,283.5682830810547 368.7238416671753,286.97328186035156 C369.8588514328003,289.8102569580078 373.26385021209717,292.36427307128906 375.2498426437378,292.36427307128906 C379.5058546066284,301.72825622558594 386.88384532928467,303.7142791748047 392.5588331222534,302.29527282714844 C392.84282970428467,302.29527282714844 393.1258497238159,302.0112762451172 393.40984630584717,302.0112762451172 C392.84282970428467,302.0112762451172 384.6138563156128,303.7142791748047 377.2358350753784,265.12428283691406 z" fill="#D3A994" id="svg_277" class=""/><path d="M380.35683727264404,257.7462615966797 C378.08684825897217,257.1782684326172 369.0068311691284,262.85325622558594 367.30483531951904,265.9752655029297 C365.60183238983154,268.5282745361328 365.60183238983154,273.35227966308594 366.73684215545654,277.8922576904297 C367.5888319015503,282.43226623535156 369.8588514328003,292.6472625732422 374.1148328781128,295.4852752685547 C378.9388380050659,298.89027404785156 390.28884410858154,294.06626892089844 390.28884410858154,294.06626892089844 L380.35683727264404,257.7462615966797 z" fill="black" id="svg_278" class=""/><path d="M378.08684825897217,272.78526306152344 C380.35683727264404,282.43226623535156 386.0318555831909,294.9172821044922 386.0318555831909,294.9172821044922 C388.01885509490967,296.3362579345703 400.7878370285034,294.9172821044922 403.6248426437378,285.27027893066406 C404.1928358078003,283.2842559814453 402.20583629608154,271.9332733154297 402.20583629608154,271.9332733154297 C402.20583629608154,271.9332733154297 400.50384044647217,266.25828552246094 397.3818311691284,261.4352569580078 C395.9638319015503,259.16526794433594 393.97683238983154,258.03025817871094 389.15383434295654,257.1782684326172 C386.88384532928467,256.89527893066406 379.22182750701904,256.89527893066406 378.3708448410034,258.3132781982422 C378.08684825897217,258.8812713623047 376.3848524093628,264.55625915527344 378.08684825897217,272.78526306152344 z" fill="#282626" id="svg_279" class=""/><path d="M370.99383068084717,292.0802764892578 C370.42583751678467,295.76927185058594 369.8588514328003,304.5652618408203 373.5468397140503,307.4032745361328 C379.5058546066284,311.6592559814453 407.59783458709717,300.59327697753906 408.16485118865967,295.4852752685547 C408.4488477706909,290.9452667236328 403.34084606170654,279.87925720214844 403.34084606170654,279.87925720214844 C403.34084606170654,279.87925720214844 398.51784801483154,286.40525817871094 384.6138563156128,290.9452667236328 C377.2358350753784,293.49928283691406 370.99383068084717,292.0802764892578 370.99383068084717,292.0802764892578 z" fill="black" id="svg_280" class=""/><path d="M386.0318555831909,580.3732757568359 C383.47783946990967,582.0762786865234 383.4788465499878,587.7512664794922 383.4788465499878,587.7512664794922 C383.4788465499878,587.7512664794922 383.7618360519409,593.1422576904297 391.9908399581909,594.2772674560547 C399.93584728240967,595.4122772216797 403.6248426437378,599.6682586669922 412.9888563156128,599.9522552490234 C422.6358289718628,600.2362518310547 426.32485485076904,596.5472869873047 426.32485485076904,596.5472869873047 L424.3388319015503,584.0622406005859 L386.0318555831909,580.3732757568359 z" fill="#282626" id="svg_281" class=""/><path d="M405.89483165740967,570.4422454833984 C407.8808546066284,567.0372772216797 419.2308301925659,567.0372772216797 419.5148572921753,570.1582489013672 C419.79885387420654,572.9962615966797 419.5148572921753,575.2662811279297 422.0688428878784,578.9552459716797 C424.62282848358154,582.6432952880859 426.32485485076904,591.4402923583984 422.91985607147217,593.1422576904297 C413.8398389816284,597.6822967529297 405.04384899139404,594.2772674560547 405.04384899139404,594.2772674560547 C405.04384899139404,594.2772674560547 398.80083751678467,590.8722991943359 391.4228467941284,589.7372894287109 C384.04583263397217,588.6022796630859 381.49184703826904,584.3462982177734 386.88283824920654,580.0902557373047 C390.57183361053467,577.2522430419922 396.81484508514404,576.4012908935547 399.6518507003784,575.5502777099609 C402.4898328781128,574.4152679443359 405.89483165740967,570.4422454833984 405.89483165740967,570.4422454833984 z" fill="black" id="svg_282" class=""/><path d="M473.14385509490967,576.9692840576172 C494.42583751678467,588.3192596435547 494.1418409347534,589.4542694091797 498.1148328781128,590.5892791748047 C500.6678419113159,591.4402923583984 499.5328321456909,594.5612640380859 499.5328321456909,594.5612640380859 C499.5328321456909,594.5612640380859 492.1558485031128,606.1952972412109 473.4278516769409,592.5752410888672 C466.9018507003784,588.0352630615234 466.05083751678467,591.1562957763672 461.5108289718628,590.0212860107422 C452.1468458175659,587.7512664794922 455.5518445968628,587.7512664794922 455.5518445968628,587.7512664794922 L455.26784801483154,580.3742523193359 L473.14385509490967,576.9692840576172 z" fill="#282626" id="svg_283" class=""/><path d="M475.6978406906128,564.1992645263672 C474.5628309249878,560.5112762451172 457.82183361053467,558.8082733154297 456.6868543624878,561.3622894287109 C455.5518445968628,564.1992645263672 457.5378370285034,564.1992645263672 456.11883068084717,567.3212738037109 C454.13283824920654,571.2932586669922 452.1468458175659,584.6302947998047 454.9838514328003,582.0762786865234 C460.09185314178467,577.8202972412109 472.8608350753784,579.8062591552734 472.8608350753784,579.8062591552734 C472.8608350753784,579.8062591552734 485.6298475265503,584.6302947998047 492.43984508514404,588.0352630615234 C502.9388380050659,593.4262542724609 498.96584606170654,589.7372894287109 493.57485485076904,585.7652435302734 C489.03484630584717,582.0762786865234 488.1828565597534,579.5222625732422 484.21084117889404,574.9822845458984 C481.6568555831909,572.7122650146484 475.6978406906128,564.1992645263672 475.6978406906128,564.1992645263672 z" fill="black" id="svg_284" class=""/><path d="M472.57683849334717,589.1702728271484 C462.0778455734253,593.7102508544922 458.38885021209717,592.0072479248047 454.9838514328003,589.1702728271484 C451.86284923553467,586.6162567138672 450.72783946990967,578.9552459716797 456.97085094451904,578.3872528076172 C484.21084117889404,576.6852874755859 472.57683849334717,589.1702728271484 472.57683849334717,589.1702728271484 z" fill="#282626" id="svg_285" class=""/><path d="M417.52883434295654,465.7362518310547 C414.12383556365967,468.5742645263672 421.50185680389404,491.5582733154297 421.50185680389404,508.2992401123047 C421.50185680389404,524.7572479248047 431.9998426437378,574.9812469482422 428.0278272628784,579.5212860107422 C424.05483531951904,583.7782440185547 418.66384410858154,582.9262542724609 419.23183727264404,580.0892791748047 C419.79885387420654,577.2512664794922 411.2858533859253,488.7202606201172 411.56984996795654,481.91026306152344 C412.13784313201904,464.6012420654297 417.52883434295654,465.7362518310547 417.52883434295654,465.7362518310547 z" fill="#282626" id="svg_286" class=""/><path d="M370.7098340988159,435.94224548339844 C376.10085582733154,439.34727478027344 396.24685192108154,437.07725524902344 398.5168409347534,436.5102996826172 C399.0848340988159,445.87425231933594 401.3548536300659,466.02024841308594 399.93584728240967,467.15525817871094 C395.3958387374878,470.56028747558594 376.3848524093628,469.7092742919922 376.3848524093628,469.7092742919922 L370.7098340988159,435.94224548339844 z" fill="#282626" id="svg_287" class=""/><path d="M423.7718458175659,429.9842987060547 C429.7308301925659,429.9842987060547 450.72783946990967,420.6202850341797 450.72783946990967,418.9172821044922 C452.43084239959717,426.0112762451172 457.82183361053467,449.27928161621094 456.1198377609253,451.5492401123047 C454.4168348312378,453.8192596435547 434.2708387374878,462.89927673339844 432.5678358078003,460.9132537841797 C430.8658399581909,458.64329528808594 423.7718458175659,429.9842987060547 423.7718458175659,429.9842987060547 z" fill="#282626" id="svg_288" class=""/><path d="M355.3868360519409,338.89927673339844 C350.27984142303467,357.6272735595703 348.0098524093628,388.55625915527344 351.6978406906128,392.2452850341797 C351.6978406906128,392.2452850341797 354.5358533859253,395.65025329589844 357.37282848358154,394.2312469482422 C360.7778272628784,392.52928161621094 366.4528455734253,388.55625915527344 369.85784435272217,381.46226501464844 C373.5468397140503,374.36827087402344 374.96584606170654,352.8032684326172 373.5468397140503,351.6682586669922 C372.12884044647217,350.5332794189453 355.3868360519409,338.89927673339844 355.3868360519409,338.89927673339844 z" fill="#E5C0AE" id="svg_289" class=""/><path d="M447.8908338546753,389.9752655029297 C441.3638563156128,382.03025817871094 427.74383068084717,342.8722686767578 427.74383068084717,338.0482635498047 C426.6088514328003,311.6592559814453 433.1358289718628,317.05027770996094 432.0008497238159,306.55226135253906 C431.4328565597534,302.29527282714844 421.50185680389404,276.75828552246094 418.09682750701904,282.4332733154297 C412.9888563156128,291.5132598876953 403.90883922576904,297.75526428222656 405.3278455734253,300.8772735595703 C406.1788282394409,302.86326599121094 395.11284923553467,309.1052703857422 388.01885509490967,310.8082733154297 C380.6408338546753,312.51026916503906 376.3848524093628,310.2402801513672 376.3848524093628,310.2402801513672 C376.3848524093628,310.2402801513672 367.30483531951904,318.75328063964844 357.37383556365967,322.7252655029297 C354.25185680389404,323.8612823486328 364.46685314178467,354.22227478027344 365.03484630584717,356.4922637939453 C365.8858289718628,361.31626892089844 369.29082775115967,399.05528259277344 372.69585704803467,422.89024353027344 C373.26385021209717,427.1472625732422 416.39385509490967,414.94529724121094 433.1358289718628,407.28428649902344 C444.20183849334717,402.4602508544922 448.17483043670654,390.5422821044922 447.8908338546753,389.9752655029297 z" fill="#77000C" id="svg_290" class=""/><path d="M357.6568555831909,322.7252655029297 C351.41485118865967,327.2662811279297 349.71184825897217,341.1692657470703 348.2928419113159,355.92527770996094 C346.59084606170654,370.68028259277344 346.02285289764404,372.3822784423828 346.02285289764404,372.3822784423828 C346.02285289764404,372.3822784423828 364.1838331222534,377.20628356933594 368.1558485031128,371.8152618408203 C372.12884044647217,366.4232635498047 368.1558485031128,347.12828063964844 368.1558485031128,347.12828063964844 L357.6568555831909,322.7252655029297 z" fill="#77000C" id="svg_291" class=""/><path d="M427.1768445968628,267.39427185058594 L413.8398389816284,289.52626037597656 L426.32485485076904,325.5632781982422 L442.7828321456909,294.06626892089844 C442.7828321456909,294.06626892089844 428.3118543624878,268.2452850341797 427.1768445968628,267.39427185058594 z" fill="#77000C" id="svg_292" class=""/><path d="M428.0278272628784,322.1582794189453 C423.7708387374878,331.5222625732422 423.7708387374878,342.30528259277344 426.6088514328003,354.5062713623047 C429.44683361053467,366.70726013183594 439.37783336639404,403.0282440185547 439.37783336639404,403.0282440185547 C439.37783336639404,403.0282440185547 446.47182750701904,397.92027282714844 448.74184703826904,390.25926208496094 C443.9178419113159,383.16526794433594 428.0278272628784,346.8452606201172 427.4598340988159,338.33226013183594 C427.1768445968628,329.53627014160156 428.0278272628784,322.1582794189453 428.0278272628784,322.1582794189453 z" fill="#B20000" id="svg_293" class=""/><circle cx="553.2368421554565" cy="158.41127014160156" r="91.5" fill="#58ACF5" stroke="#58ACF5" stroke-width="4" id="svg_294" class=""/><path d="M616.8798475265503,123.14625549316406 C612.367823600769,125.08827209472656 607.5048475265503,126.36326599121094 602.4668226242065,126.97328186035156 C607.6228284835815,124.03425598144531 611.606837272644,119.37527465820312 613.481837272644,113.77326965332031 C608.6188611984253,116.5462646484375 603.2278699874878,118.48826599121094 597.544825553894,119.59727478027344 C592.9158582687378,114.8272705078125 586.4128675460815,112.05427551269531 579.0298719406128,112.05427551269531 C565.261866569519,112.05427551269531 554.011866569519,122.70327758789062 554.011866569519,135.84727478027344 C554.011866569519,137.73326110839844 554.2468519210815,139.5632781982422 554.6568250656128,141.2832794189453 C533.7988538742065,140.2842559814453 515.2248182296753,130.80027770996094 502.86284923553467,116.43527221679688 C500.69484996795654,119.93026733398438 499.4638319015503,124.03425598144531 499.4638319015503,128.3602752685547 C499.4638319015503,136.62428283691406 503.8588514328003,143.9452667236328 510.6548719406128,148.10426330566406 C506.4948377609253,148.10426330566406 502.62783336639404,146.9952850341797 499.2298536300659,145.33128356933594 C499.2298536300659,145.33128356933594 499.2298536300659,145.33128356933594 499.2298536300659,145.49827575683594 C499.2298536300659,157.0342559814453 507.9008436203003,166.6842803955078 519.3848524093628,168.84727478027344 C517.2758436203003,169.4022674560547 515.0498304367065,169.6792755126953 512.763819694519,169.6792755126953 C511.1828260421753,169.6792755126953 509.60085582733154,169.5132598876953 508.0768690109253,169.2352752685547 C511.24087047576904,178.60926818847656 520.439845085144,185.59727478027344 531.512843132019,185.7632598876953 C522.9588270187378,192.19728088378906 512.1198377609253,195.96827697753906 500.28484630584717,195.96827697753906 C498.2928419113159,195.96827697753906 496.30083751678467,195.85728454589844 494.3078565597534,195.63526916503906 C505.44085216522217,202.4022674560547 518.6818494796753,206.3402557373047 532.8608655929565,206.3402557373047 C579.0298719406128,206.3402557373047 604.3998670578003,170.06727600097656 604.3998670578003,138.6202850341797 C604.3998670578003,137.56727600097656 604.3998670578003,136.5682830810547 604.3418226242065,135.51426696777344 C609.262843132019,132.18727111816406 613.481837272644,127.97227478027344 616.8798475265503,123.14625549316406 z" fill="white" id="svg_295" class=""/></g></svg>