<svg width="100%" height="100%" viewBox="0 0 1441 792" fill="none" xmlns="http://www.w3.org/2000/svg">
                    <path fill-rule="evenodd" clip-rule="evenodd" d="M0 633.541L60.0417 675.037C120.083 716.534 240.167 799.526 360.25 791.227C480.333 782.928 600.417 683.337 720.5 675.037C840.583 666.738 960.667 749.731 1080.75 774.629C1200.83 799.527 1320.92 766.329 1380.96 749.731L1441 733.132V155.806H1380.96C1320.92 155.806 1200.83 155.806 1080.75 155.806C960.667 155.806 840.583 155.806 720.5 155.806C600.417 155.806 480.333 155.806 360.25 155.806C240.167 155.806 120.083 155.806 60.0417 155.806H0L0 633.541Z" fill="url(#paint0_linear)"/>
                    <path fill-rule="evenodd" clip-rule="evenodd" d="M1441 153.1L1380.96 113.169C1320.92 73.2386 1200.83 -6.62221 1080.75 1.36386C960.667 9.34993 840.583 105.183 720.5 113.169C600.417 121.155 480.333 41.2942 360.25 17.3359C240.167 -6.62236 120.083 25.322 60.0417 41.2942L0.000170637 57.2664L0.00012207 612.807L60.0416 612.807C120.083 612.807 240.167 612.807 360.25 612.807C480.333 612.807 600.417 612.807 720.5 612.807C840.583 612.807 960.667 612.807 1080.75 612.807C1200.83 612.807 1320.92 612.807 1380.96 612.807L1441 612.807L1441 153.1Z" fill="url(#paint1_linear)"/>
                    <defs>
                    <linearGradient id="paint0_linear" x1="0" y1="791.806" x2="1441" y2="791.806" gradientUnits="userSpaceOnUse">
                    <stop stop-color="#7BD4EF"/>
                    <stop offset="1" stop-color="#4BA4F2"/>
                    </linearGradient>
                    <linearGradient id="paint1_linear" x1="1441" y1="0.806701" x2="5.35027e-05" y2="0.806575" gradientUnits="userSpaceOnUse">
                    <stop stop-color="#4BA4F2"/>
                    <stop offset="1" stop-color="#7BD4EF"/>
                    </linearGradient>
                    </defs>
                </svg>     