<svg width="795" height="818" viewBox="0 0 795 818" fill="none" xmlns="http://www.w3.org/2000/svg">
<path d="M102.884 339.412V320.482H149.673V338.21V339.112H102.884V339.412ZM148.755 338.511V337.609V338.511ZM105.024 337.609H147.532V322.886H105.024V337.609Z" fill="#D0E9F4"/>
<path d="M118.174 357.441V338.511H164.963V356.239V357.141H118.174V357.441ZM163.74 356.54V355.638V356.54ZM120.315 355.338H162.822V340.614H120.315V355.338Z" fill="#D0E9F4"/>
<path d="M72.3024 357.441V338.511H119.091V356.239V357.141H72.3024V357.441ZM117.868 356.54V355.638V356.54ZM74.443 355.338H116.951V340.614H74.443V355.338Z" fill="#D0E9F4"/>
<path d="M26.1252 357.441V338.511H72.9142V356.239V357.141H26.1252V357.441ZM71.9968 356.54V355.638V356.54ZM28.5717 355.338H71.0793V340.614H28.5717V355.338Z" fill="#D0E9F4"/>
<path d="M152.731 375.47V356.54H199.52V374.268V375.169H152.731V375.47ZM198.296 374.568V373.667V374.568ZM154.871 373.366H197.379V358.643H154.871V373.366Z" fill="#D0E9F4"/>
<path d="M44.7795 375.47V356.54H91.5685V374.268V375.169H44.7795V375.47ZM90.6511 374.568V373.667V374.568ZM47.226 373.366H89.7336V358.643H47.226V373.366Z" fill="#D0E9F4"/>
<path d="M113.587 392.297V373.367H160.376V391.095V391.997H113.587V392.297ZM159.458 391.396V390.494V391.396ZM116.033 390.194H158.541V375.47H116.033V390.194Z" fill="#D0E9F4"/>
<path d="M67.7153 392.297V373.367H114.504V391.095V391.997H67.7153V392.297ZM113.587 391.396V390.494V391.396ZM70.1618 390.194H112.669V375.47H70.1618V390.194Z" fill="#D0E9F4"/>
<path d="M21.8438 392.297V373.367H68.6327V391.095V391.997H21.8438V392.297ZM67.7153 391.396V390.494V391.396ZM23.9844 390.194H66.492V375.47H23.9844V390.194Z" fill="#D0E9F4"/>
<path d="M130.101 410.326V391.396H176.89V409.124V410.025H130.101V410.326ZM175.972 409.424V408.523V409.424ZM132.547 408.223H175.055V393.499H132.547V408.223Z" fill="#D0E9F4"/>
<path d="M9 339.412V320.482H55.789V338.21V339.112H9V339.412ZM54.5657 338.511V337.609V338.511ZM11.1407 337.609H53.6483V322.886H11.1407V337.609Z" fill="#D0E9F4"/>
<path d="M73.5258 322.285V303.354H120.315V321.083V321.984H73.5258V322.285ZM119.091 321.383V320.482V321.383ZM75.6664 320.181H118.174V305.458H75.6664V320.181Z" fill="#D0E9F4"/>
<path d="M9 445.782V426.852H55.789V444.58V445.482H9V445.782ZM54.5657 444.58V443.679V444.58ZM11.1407 443.679H53.6483V428.955H11.1407V443.679Z" fill="#D0E9F4"/>
<path d="M44.7795 410.326V391.396H91.5685V409.124V410.025H44.7795V410.326ZM90.6511 409.424V408.523V409.424ZM47.226 408.223H89.7336V393.499H47.226V408.223Z" fill="#D0E9F4"/>
<path d="M145.391 428.355V409.425H192.18V427.153V428.054H145.391V428.355ZM191.263 427.153V426.251V427.153ZM147.532 426.251H190.039V411.528H147.532V426.251Z" fill="#D0E9F4"/>
<path d="M53.6481 428.355V409.425H100.437V427.153V428.054H53.6481V428.355ZM99.2138 427.153V426.251V427.153ZM55.7887 426.251H98.2964V411.528H55.7887V426.251Z" fill="#D0E9F4"/>
<path d="M186.981 446.384V427.453H233.77V445.182V446.083H186.981V446.384ZM232.547 445.182V444.28V445.182ZM189.122 444.28H231.63V429.557H189.122V444.28Z" fill="#D0E9F4"/>
<path d="M141.11 463.21V444.28H187.899V462.008V463.21H141.11ZM186.981 462.008V461.107V462.008ZM143.251 461.107H185.758V446.383H143.251V461.107Z" fill="#D0E9F4"/>
<path d="M95.2382 463.21V444.28H142.027V462.008V463.21H95.2382ZM140.804 462.008V461.107V462.008ZM97.3788 461.107H139.886V446.383H97.3788V461.107Z" fill="#D0E9F4"/>
<path d="M49.0609 463.21V444.28H95.8499V462.008V463.21H49.0609ZM94.9324 462.008V461.107V462.008ZM51.5074 461.107H94.015V446.383H51.5074V461.107Z" fill="#D0E9F4"/>
<path d="M106.248 499.268V480.338H153.037V498.066V499.268H106.248ZM152.119 498.066V497.165V498.066ZM108.388 497.165H150.896V482.441H108.388V497.165Z" fill="#D0E9F4"/>
<path d="M189.122 516.997V498.066H235.911V515.795V516.696H189.122V516.997ZM234.994 516.095V515.194V516.095ZM191.263 515.194H233.77V500.47H191.263V515.194Z" fill="#D0E9F4"/>
<path d="M29.795 516.997V498.066H76.584V515.795V516.696H29.795V516.997ZM75.3608 516.095V515.194V516.095ZM31.9357 515.194H74.4433V500.47H31.9357V515.194Z" fill="#D0E9F4"/>
<path d="M140.193 535.026V516.095H186.981V533.824V534.725H140.193V535.026ZM185.758 534.124V533.223V534.124ZM142.333 533.223H184.841V518.499H142.333V533.223Z" fill="#D0E9F4"/>
<path d="M94.3209 535.026V516.095H141.11V533.824V534.725H94.3209V535.026ZM139.887 534.124V533.223V534.124ZM96.4616 533.223H138.969V518.499H96.4616V533.223Z" fill="#D0E9F4"/>
<path d="M48.1437 535.026V516.095H94.9326V533.824V534.725H48.1437V535.026ZM94.0152 534.124V533.223V534.124ZM50.5902 533.223H93.0978V518.499H50.5902V533.223Z" fill="#D0E9F4"/>
<path d="M117.257 553.054V552.153H118.174H117.257V553.054H116.034V533.823H164.963V551.251V553.355H117.257V553.054ZM161.905 550.951V550.049H163.128V535.927H118.174V551.251H161.905V550.951Z" fill="#D0E9F4"/>
<path d="M314.81 551.852V532.922H361.599V550.65V551.551H314.81V551.852ZM360.682 550.95V550.049V550.95ZM316.951 550.049H359.459V535.325H316.951V550.049Z" fill="#D0E9F4"/>
<path d="M25.2079 551.852V532.922H71.9968V550.65V551.551H25.2079V551.852ZM71.0794 550.95V550.049V550.95ZM27.6544 550.049H69.8562V535.325H27.6544V550.049Z" fill="#D0E9F4"/>
<path d="M133.464 569.881V550.951H180.253V568.679V569.581H133.464V569.881ZM179.336 568.98V568.078V568.98ZM135.911 567.778H178.419V553.054H135.911V567.778Z" fill="#D0E9F4"/>
<path d="M12.3636 499.268V480.338H59.1526V498.066V499.268H12.3636ZM57.9294 498.066V497.165V498.066ZM14.5043 497.165H57.0119V482.441H14.5043V497.165Z" fill="#D0E9F4"/>
<path d="M76.8896 481.84V462.91H123.679V480.638V481.539H76.8896V481.84ZM122.761 480.938V480.037V480.938ZM79.0303 479.736H121.538V465.013H79.0303V479.736Z" fill="#D0E9F4"/>
<path d="M12.3636 605.338V586.407H59.1526V604.136V605.037H12.3636V605.338ZM57.9294 604.436V603.535V604.436ZM14.5043 603.234H57.0119V588.511H14.5043V603.234Z" fill="#D0E9F4"/>
<path d="M48.1437 569.881V550.951H94.9326V568.679V569.581H48.1437V569.881ZM94.0152 568.98V568.078V568.98ZM50.5902 567.778H93.0978V553.054H50.5902V567.778Z" fill="#D0E9F4"/>
<path d="M148.755 587.91V568.979H195.544V586.708V587.609H148.755V587.91ZM194.626 587.008V586.107V587.008ZM150.896 585.806H193.403V571.083H150.896V585.806Z" fill="#D0E9F4"/>
<path d="M102.884 587.91V568.979H149.673V586.708V587.609H102.884V587.91ZM148.755 587.008V586.107V587.008ZM105.024 585.806H147.532V571.083H105.024V585.806Z" fill="#D0E9F4"/>
<path d="M57.0118 587.91V568.979H103.801V586.708V587.609H57.0118V587.91ZM102.883 587.008V586.107V587.008ZM59.1525 585.806H101.66V571.083H59.1525V585.806Z" fill="#D0E9F4"/>
<path d="M167.41 605.939V587.008H214.199V604.737V605.638H167.41V605.939ZM213.281 604.737V603.835V604.737ZM169.55 603.835H212.058V589.112H169.55V603.835Z" fill="#D0E9F4"/>
<path d="M121.538 605.939V587.008H168.327V604.737V605.638H121.538V605.939ZM167.41 604.737V603.835V604.737ZM123.679 603.835H166.186V589.112H123.679V603.835Z" fill="#D0E9F4"/>
<path d="M75.6666 605.939V587.008H122.456V604.737V605.638H75.6666V605.939ZM121.232 604.737V603.835V604.737ZM77.8073 603.835H120.315V589.112H77.8073V603.835Z" fill="#D0E9F4"/>
<path d="M144.474 622.766V603.836H191.263V621.564V622.466H144.474V622.766ZM190.345 621.564V620.663V621.564ZM146.615 620.663H189.122V605.939H146.615V620.663Z" fill="#D0E9F4"/>
<path d="M98.6024 622.766V603.836H145.391V621.564V622.466H98.6024V622.766ZM144.474 621.564V620.663V621.564ZM100.743 620.663H143.251V605.939H100.743V620.663Z" fill="#D0E9F4"/>
<path d="M52.731 622.766V603.836H99.5199V621.564V622.466H52.731V622.766ZM98.2967 621.564V620.663V621.564ZM54.8716 620.663H97.3792V605.939H54.8716V620.663Z" fill="#D0E9F4"/>
<path d="M116.034 640.494V621.564H162.823V639.292V640.194H116.034V640.494ZM161.599 639.292V638.391V639.292ZM118.174 638.391H160.682V623.667H118.174V638.391Z" fill="#D0E9F4"/>
<path d="M179.03 657.621V638.691H216.033V656.419V657.321H179.03V657.621ZM214.81 656.419V655.518V656.419ZM181.171 655.518H213.893V640.494H181.171V655.518Z" fill="#D0E9F4"/>
<path d="M132.853 657.621V638.691H179.948V656.419V657.321H132.853V657.621ZM178.724 656.419V655.518V656.419ZM135.299 655.518H177.807V640.494H135.299V655.518Z" fill="#D0E9F4"/>
<path d="M86.9814 657.621V638.691H134.076V656.419V657.321H86.9814V657.621ZM132.853 656.419V655.518V656.419ZM89.4279 655.518H131.936V640.494H89.4279V655.518Z" fill="#D0E9F4"/>
<path d="M155.789 674.448V655.518H202.578V673.246V674.148H155.789V674.448ZM201.66 673.246V672.345V673.246ZM158.235 672.345H200.743V657.621H158.235V672.345Z" fill="#D0E9F4"/>
<path d="M109.917 674.448V655.518H156.706V673.246V674.148H109.917V674.448ZM155.789 673.246V672.345V673.246ZM112.364 672.345H154.871V657.621H112.364V672.345Z" fill="#D0E9F4"/>
<path d="M64.0457 674.448V655.518H110.835V673.246V674.148H64.0457V674.448ZM109.917 673.246V672.345V673.246ZM66.1863 672.345H108.694V657.621H66.1863V672.345Z" fill="#D0E9F4"/>
<path d="M42.0275 692.177V673.547H88.8164V691.275V692.177H42.0275ZM87.899 691.275V690.374V691.275ZM44.1681 690.374H86.6757V675.65H44.1681V690.374Z" fill="#D0E9F4"/>
<path d="M86.9814 692.177V673.547H134.076V691.275V692.177H86.9814ZM132.853 691.275V690.374V691.275ZM89.4279 690.374H131.936V675.65H89.4279V690.374Z" fill="#D0E9F4"/>
<path d="M109.917 710.205V691.275H156.706V709.004V709.905H109.917V710.205ZM155.789 709.304V708.403V709.304ZM112.364 708.102H154.871V693.379H112.364V708.102Z" fill="#D0E9F4"/>
<path d="M64.0457 710.205V691.275H110.835V709.004V709.905H64.0457V710.205ZM109.917 709.304V708.403V709.304ZM66.1863 708.102H108.694V693.379H66.1863V708.102Z" fill="#D0E9F4"/>
<path d="M18.1742 710.205V691.275H64.9632V709.004V709.905H18.1742V710.205ZM64.0457 709.304V708.403V709.304ZM20.3149 708.102H62.8225V693.379H20.3149V708.102Z" fill="#D0E9F4"/>
<path d="M601.354 339.412V320.482H648.143V338.21V339.112H601.354V339.412ZM647.226 338.511V337.609V338.511ZM603.8 337.609H646.308V322.886H603.8V337.609Z" fill="#D0E9F4"/>
<path d="M570.773 357.441V338.511H617.562V356.239V357.141H570.773V357.441ZM616.644 356.54V355.638V356.54ZM572.914 355.338H615.421V340.614H572.914V355.338Z" fill="#D0E9F4"/>
<path d="M524.902 357.441V338.511H571.691V356.239V357.141H524.902V357.441ZM570.467 356.54V355.638V356.54ZM527.042 355.338H569.55V340.614H527.042V355.338Z" fill="#D0E9F4"/>
<path d="M543.25 375.47V356.54H590.039V374.268V375.169H543.25V375.47ZM589.122 374.568V373.667V374.568ZM545.697 373.366H588.204V358.643H545.697V373.366Z" fill="#D0E9F4"/>
<path d="M566.492 392.297V373.367H613.281V391.095V391.997H566.492V392.297ZM612.057 391.396V390.494V391.396ZM568.632 390.194H611.14V375.47H568.632V390.194Z" fill="#D0E9F4"/>
<path d="M520.314 392.297V373.367H567.103V391.095V391.997H520.314V392.297ZM566.186 391.396V390.494V391.396ZM522.761 390.194H565.268V375.47H522.761V390.194Z" fill="#D0E9F4"/>
<path d="M507.471 339.412V320.482H554.259V338.21V339.112H507.471V339.412ZM553.342 338.511V337.609V338.511ZM509.611 337.609H552.119V322.886H509.611V337.609Z" fill="#D0E9F4"/>
<path d="M571.996 322.285V303.354H618.785V321.083V321.984H571.996V322.285ZM617.868 321.383V320.482V321.383ZM574.137 320.181H616.645V305.458H574.137V320.181Z" fill="#D0E9F4"/>
<path d="M507.471 445.782V426.852H554.259V444.58V445.482H507.471V445.782ZM553.342 444.58V443.679V444.58ZM509.611 443.679H552.119V428.955H509.611V443.679Z" fill="#D0E9F4"/>
<path d="M543.25 410.326V391.396H590.039V409.124V410.025H543.25V410.326ZM589.122 409.424V408.523V409.424ZM545.697 408.223H588.204V393.499H545.697V408.223Z" fill="#D0E9F4"/>
<path d="M552.119 428.355V409.425H598.908V427.153V428.054H552.119V428.355ZM597.99 427.153V426.251V427.153ZM554.259 426.251H596.767V411.528H554.259V426.251Z" fill="#D0E9F4"/>
<path d="M593.709 463.21V444.28H640.498V462.008V463.21H593.709ZM639.58 462.008V461.107V462.008ZM595.85 461.107H638.357V446.383H595.85V461.107Z" fill="#D0E9F4"/>
<path d="M547.837 463.21V444.28H594.626V462.008V463.21H547.837ZM593.403 462.008V461.107V462.008ZM549.978 461.107H592.486V446.383H549.978V461.107Z" fill="#D0E9F4"/>
<path d="M604.718 499.268V480.338H651.507V498.066V499.268H604.718ZM650.589 498.066V497.165V498.066ZM607.164 497.165H649.672V482.441H607.164V497.165Z" fill="#D0E9F4"/>
<path d="M528.265 516.997V498.066H575.054V515.795V516.696H528.265V516.997ZM574.137 516.095V515.194V516.095ZM530.406 515.194H572.914V500.47H530.406V515.194Z" fill="#D0E9F4"/>
<path d="M592.792 535.026V516.095H639.581V533.824V534.725H592.792V535.026ZM638.663 534.124V533.223V534.124ZM594.932 533.223H637.44V518.499H594.932V533.223Z" fill="#D0E9F4"/>
<path d="M546.92 535.026V516.095H593.709V533.824V534.725H546.92V535.026ZM592.486 534.124V533.223V534.124ZM549.061 533.223H591.568V518.499H549.061V533.223Z" fill="#D0E9F4"/>
<path d="M523.984 551.852V532.922H570.773V550.65V551.551H523.984V551.852ZM569.55 550.95V550.049V550.95ZM526.125 550.049H568.632V535.325H526.125V550.049Z" fill="#D0E9F4"/>
<path d="M510.834 499.268V480.338H557.623V498.066V499.268H510.834ZM556.706 498.066V497.165V498.066ZM512.975 497.165H555.483V482.441H512.975V497.165Z" fill="#D0E9F4"/>
<path d="M575.36 481.84V462.91H622.149V480.638V481.539H575.36V481.84ZM621.232 480.938V480.037V480.938ZM577.501 479.736H620.008V465.013H577.501V479.736Z" fill="#D0E9F4"/>
<path d="M510.834 605.338V586.407H557.623V604.136V605.037H510.834V605.338ZM556.706 604.436V603.535V604.436ZM512.975 603.234H555.483V588.511H512.975V603.234Z" fill="#D0E9F4"/>
<path d="M546.92 569.881V550.951H593.709V568.679V569.581H546.92V569.881ZM592.486 568.98V568.078V568.98ZM549.061 567.778H591.568V553.054H549.061V567.778Z" fill="#D0E9F4"/>
<path d="M601.354 587.91V568.979H648.143V586.708V587.609H601.354V587.91ZM647.226 587.008V586.107V587.008ZM603.8 585.806H646.308V571.083H603.8V585.806Z" fill="#D0E9F4"/>
<path d="M555.482 587.91V568.979H602.271V586.708V587.609H555.482V587.91ZM601.354 587.008V586.107V587.008ZM557.623 585.806H600.131V571.083H557.623V585.806Z" fill="#D0E9F4"/>
<path d="M574.137 605.939V587.008H620.926V604.737V605.638H574.137V605.939ZM620.008 604.737V603.835V604.737ZM576.278 603.835H618.785V589.112H576.278V603.835Z" fill="#D0E9F4"/>
<path d="M597.073 622.766V603.836H643.862V621.564V622.466H597.073V622.766ZM642.944 621.564V620.663V621.564ZM599.213 620.663H641.721V605.939H599.213V620.663Z" fill="#D0E9F4"/>
<path d="M551.201 622.766V603.836H597.99V621.564V622.466H551.201V622.766ZM597.073 621.564V620.663V621.564ZM553.342 620.663H595.849V605.939H553.342V620.663Z" fill="#D0E9F4"/>
<path d="M585.758 657.621V638.691H632.547V656.419V657.321H585.758V657.621ZM631.323 656.419V655.518V656.419ZM587.898 655.518H630.406V640.494H587.898V655.518Z" fill="#D0E9F4"/>
<path d="M608.693 674.448V655.518H655.482V673.246V674.148H608.693V674.448ZM654.259 673.246V672.345V673.246ZM610.834 672.345H653.342V657.621H610.834V672.345Z" fill="#D0E9F4"/>
<path d="M562.516 674.448V655.518H609.305V673.246V674.148H562.516V674.448ZM608.388 673.246V672.345V673.246ZM564.963 672.345H607.47V657.621H564.963V672.345Z" fill="#D0E9F4"/>
<path d="M540.498 692.177V673.547H587.287V691.275V692.177H540.498ZM586.369 691.275V690.374V691.275ZM542.944 690.374H585.452V675.65H542.944V690.374Z" fill="#D0E9F4"/>
<path d="M585.758 692.177V673.547H632.547V691.275V692.177H585.758ZM631.323 691.275V690.374V691.275ZM587.898 690.374H630.406V675.65H587.898V690.374Z" fill="#D0E9F4"/>
<path d="M608.693 710.205V691.275H655.482V709.004V709.905H608.693V710.205ZM654.259 709.304V708.403V709.304ZM610.834 708.102H653.342V693.379H610.834V708.102Z" fill="#D0E9F4"/>
<path d="M562.516 710.205V691.275H609.305V709.004V709.905H562.516V710.205ZM608.388 709.304V708.403V709.304ZM564.963 708.102H607.47V693.379H564.963V708.102Z" fill="#D0E9F4"/>
<path d="M516.645 710.205V691.275H563.434V709.004V709.905H516.645V710.205ZM562.516 709.304V708.403V709.304ZM519.091 708.102H561.599V693.379H519.091V708.102Z" fill="#D0E9F4"/>
<path d="M498.602 677.754H451.813V676.852V659.124H498.602V677.754ZM452.73 676.852V675.951V676.852ZM496.461 675.951V661.227H453.954V675.951H496.461Z" fill="#D0E9F4"/>
<path d="M405.33 675.951H358.541V675.05V657.321H405.33V675.951ZM359.458 675.05V674.148V675.05ZM403.189 674.148V659.425H360.682V674.148H403.189Z" fill="#D0E9F4"/>
<path d="M386.675 693.98H339.886V693.079V675.35H386.675V693.98ZM340.804 693.079V692.177V693.079ZM384.534 692.177V677.454H342.027V692.177H384.534Z" fill="#D0E9F4"/>
<path d="M521.538 709.605H474.749V708.703V690.975H521.538V709.605ZM475.666 708.703V707.802V708.703ZM519.397 707.502V692.778H476.889V707.502H519.397Z" fill="#D0E9F4"/>
<path d="M409.611 710.806H362.822V709.905V692.176H409.611V710.806ZM363.74 709.905V709.003V709.905ZM407.47 709.003V694.28H364.963V709.003H407.47Z" fill="#D0E9F4"/>
<path d="M422.761 658.222H375.667V657.321V639.593H422.455V658.222H422.761ZM376.89 657.02V656.119V657.02ZM420.315 656.119V641.395H377.807V656.119H420.315Z" fill="#D0E9F4"/>
<path d="M420.009 321.384H373.22V320.482V302.754H420.009V321.384ZM374.137 320.182V319.28V320.182ZM417.868 319.28V304.557H375.36V319.28H417.868Z" fill="#D0E9F4"/>
<path d="M264.963 321.684H217.868V320.782V303.054H264.657V321.684H264.963ZM219.092 320.782V319.881V320.782ZM262.517 319.881V305.157H220.315V319.881H262.517Z" fill="#D0E9F4"/>
<path d="M310.835 321.684H263.74V320.782V303.054H310.529V321.684H310.835ZM264.963 320.782V319.881V320.782ZM308.694 319.881V305.157H266.186V319.881H308.694Z" fill="#D0E9F4"/>
<path d="M356.706 321.984H309.917V321.083V303.354H356.706V321.984ZM310.835 320.782V319.881V320.782ZM354.566 319.881V305.157H312.058V319.881H354.566Z" fill="#D0E9F4"/>
<path d="M287.899 338.811H240.804V337.909V320.181H287.593V338.811H287.899ZM242.027 337.609V336.707V337.609ZM285.452 336.707V321.984H243.251V336.707H285.452Z" fill="#D0E9F4"/>
<path d="M443.25 338.811H396.461V337.909V320.181H443.25V338.811ZM397.379 337.609V336.707V337.609ZM440.804 336.707V321.984H398.296V336.707H440.804Z" fill="#D0E9F4"/>
<path d="M487.898 338.811H441.109V337.909V320.181H487.898V338.811ZM442.333 337.609V336.707V337.609ZM485.758 336.707V321.984H443.25V336.707H485.758Z" fill="#D0E9F4"/>
<path d="M322.455 374.869H275.666V373.967V356.239H322.455V374.869ZM276.889 373.667V372.765V373.667ZM320.315 372.765V358.042H277.807V372.765H320.315Z" fill="#D0E9F4"/>
<path d="M246.003 392.597H199.214V391.696V373.968H246.003V392.597ZM200.131 391.696V390.795V391.696ZM243.862 390.795V376.071H201.354V390.795H243.862Z" fill="#D0E9F4"/>
<path d="M370.162 392.597H323.373V391.696V373.968H370.162V392.597ZM324.29 391.696V390.795V391.696ZM368.021 390.795V376.071H325.513V390.795H368.021Z" fill="#D0E9F4"/>
<path d="M476.889 392.597H430.1V391.696V373.968H476.889V392.597ZM431.018 391.696V390.795V391.696ZM474.748 390.795V376.071H432.241V390.795H474.748Z" fill="#D0E9F4"/>
<path d="M288.816 410.626H241.721V409.725V391.996H288.51V410.626H288.816ZM242.945 409.725V408.823V409.725ZM286.37 408.823V394.1H244.168V408.823H286.37Z" fill="#D0E9F4"/>
<path d="M334.688 410.626H287.899V409.725V391.996H334.688V410.626ZM288.816 409.725V408.823V409.725ZM332.547 408.823V394.1H290.039V408.823H332.547Z" fill="#D0E9F4"/>
<path d="M521.538 410.626H474.749V409.725V391.996H521.538V410.626ZM475.666 409.725V408.823V409.725ZM519.397 408.823V394.1H476.889V408.823H519.397Z" fill="#D0E9F4"/>
<path d="M311.752 427.453H264.657V426.551V408.823H311.446V427.453H311.752ZM265.88 426.551V425.65V426.551ZM309.611 425.65V410.926H267.103V425.65H309.611Z" fill="#D0E9F4"/>
<path d="M357.623 427.453H310.834V426.551V408.823H357.623V427.453ZM311.752 426.551V425.65V426.551ZM355.483 425.65V410.926H312.975V425.65H355.483Z" fill="#D0E9F4"/>
<path d="M403.495 427.453H356.706V426.551V408.823H403.495V427.453ZM357.623 426.551V425.65V426.551ZM401.354 425.65V410.926H358.847V425.65H401.354Z" fill="#D0E9F4"/>
<path d="M295.238 445.482H248.449V444.58V426.852H295.238V445.482ZM249.367 444.58V443.679V444.58ZM293.098 443.378V428.655H250.59V443.378H293.098Z" fill="#D0E9F4"/>
<path d="M416.645 374.869H369.55V373.967V356.239H416.339V374.869H416.645ZM370.773 373.667V372.765V373.667ZM414.504 372.765V358.042H371.997V372.765H414.504Z" fill="#D0E9F4"/>
<path d="M463.433 374.869H416.645V373.967V356.239H463.433V374.869ZM417.562 373.667V372.765V373.667ZM460.987 372.765V358.042H418.479V372.765H460.987Z" fill="#D0E9F4"/>
<path d="M352.119 357.441H305.33V356.54V338.812H352.119V357.441ZM306.248 356.54V355.638V356.54ZM349.673 355.338V340.614H307.165V355.338H349.673Z" fill="#D0E9F4"/>
<path d="M416.645 480.939H369.55V480.037V462.309H416.339V480.939H416.645ZM370.773 480.037V479.136V480.037ZM414.504 478.835V464.112H371.997V478.835H414.504Z" fill="#D0E9F4"/>
<path d="M380.559 445.482H333.77V444.58V426.852H380.559V445.482ZM334.687 444.58V443.679V444.58ZM378.418 443.378V428.655H335.911V443.378H378.418Z" fill="#D0E9F4"/>
<path d="M279.948 463.511H233.159V462.609V444.881H279.948V463.511ZM234.382 462.609V461.708V462.609ZM277.807 461.407V446.684H235.299V461.407H277.807Z" fill="#D0E9F4"/>
<path d="M326.125 463.511H279.03V462.609V444.881H325.819V463.511H326.125ZM280.254 462.609V461.708V462.609ZM323.679 461.407V446.684H281.171V461.407H323.679Z" fill="#D0E9F4"/>
<path d="M468.633 463.511H421.844V462.609V444.881H468.633V463.511ZM422.761 462.609V461.708V462.609ZM466.492 461.407V446.684H423.984V461.407H466.492Z" fill="#D0E9F4"/>
<path d="M261.293 481.539H214.504V480.638V462.91H261.293V481.539ZM215.727 480.337V479.436V480.337ZM259.152 479.436V464.712H216.645V479.436H259.152Z" fill="#D0E9F4"/>
<path d="M491.874 481.539H445.085V480.638V462.91H491.874V481.539ZM446.002 480.337V479.436V480.337ZM489.427 479.436V464.712H446.92V479.436H489.427Z" fill="#D0E9F4"/>
<path d="M284.535 498.367H237.44V497.465V479.737H284.229V498.367H284.535ZM238.663 497.165V496.263V497.165ZM282.088 496.263V481.54H239.581V496.263H282.088Z" fill="#D0E9F4"/>
<path d="M330.406 498.367H283.312V497.465V479.737H330.1V498.367H330.406ZM284.535 497.165V496.263V497.165ZM327.96 496.263V481.54H285.758V496.263H327.96Z" fill="#D0E9F4"/>
<path d="M376.278 498.367H329.489V497.465V479.737H376.278V498.367ZM330.406 497.165V496.263V497.165ZM374.137 496.263V481.54H331.63V496.263H374.137Z" fill="#D0E9F4"/>
<path d="M283.617 533.223H236.523V532.321V514.292H283.312V533.223H283.617ZM237.746 532.321V531.42V532.321ZM281.171 531.119V516.396H238.663V531.119H281.171Z" fill="#D0E9F4"/>
<path d="M341.416 569.28H294.627V568.379V550.35H341.416V569.28ZM295.85 568.078V567.177V568.078ZM339.275 567.177V552.453H296.767V567.177H339.275Z" fill="#D0E9F4"/>
<path d="M318.48 586.107H271.691V585.206V567.477H318.48V586.107ZM272.608 584.905V584.004V584.905ZM316.339 584.004V569.28H273.832V584.004H316.339Z" fill="#D0E9F4"/>
<path d="M364.351 586.107H317.562V585.206V567.477H364.351V586.107ZM318.786 584.905V584.004V584.905ZM362.211 584.004V569.28H319.703V584.004H362.211Z" fill="#D0E9F4"/>
<path d="M448.755 604.136H401.966V603.234V585.506H448.755V604.136ZM402.883 602.934V602.032V602.934ZM446.308 602.032V587.309H403.801V602.032H446.308Z" fill="#D0E9F4"/>
<path d="M377.501 533.223H330.712V532.321V514.292H377.501V533.223ZM331.63 532.321V531.42V532.321ZM375.36 531.119V516.396H332.853V531.119H375.36Z" fill="#D0E9F4"/>
<path d="M312.975 516.095H266.186V515.193V497.465H312.975V516.095ZM267.104 514.893V513.991V514.893ZM310.834 513.991V499.268H268.327V513.991H310.834Z" fill="#D0E9F4"/>
<path d="M366.798 621.564H320.009V620.662V602.934H366.798V621.564ZM320.926 620.662V619.461V620.662ZM364.351 619.461V604.737H321.844V619.461H364.351Z" fill="#D0E9F4"/>
<path d="M491.568 621.564H444.779V620.662V602.934H491.568V621.564ZM446.003 620.662V619.461V620.662ZM489.428 619.461V604.737H446.92V619.461H489.428Z" fill="#D0E9F4"/>
<path d="M397.073 639.893H350.284V638.992V621.263H397.073V639.893ZM351.201 638.992V638.09V638.992ZM394.626 638.09V623.367H352.119V638.09H394.626Z" fill="#D0E9F4"/>
<path d="M443.862 639.893H397.073V638.992V621.263H443.862V639.893ZM397.991 638.992V638.09V638.992ZM441.721 638.09V623.367H399.214V638.09H441.721Z" fill="#D0E9F4"/>
<path d="M9 264.292H55.789V265.194V282.922H9V264.292ZM54.5657 265.194V266.095V265.194ZM11.1407 266.395V281.119H53.6483V266.395H11.1407Z" fill="#D0E9F4"/>
<path d="M145.391 281.72H192.18V282.622V300.35H145.391V281.72ZM191.263 282.622V283.523V282.622ZM147.532 283.823V298.547H190.039V283.823H147.532Z" fill="#D0E9F4"/>
<path d="M53.6481 281.72H100.437V282.622V300.35H53.6481V281.72ZM55.7887 283.823V298.547H98.2964V283.823H55.7887Z" fill="#D0E9F4"/>
<path d="M186.981 263.691H233.77V264.593V282.321H186.981V263.691ZM232.547 264.593V265.494V264.593ZM189.122 265.795V280.518H231.63V265.795H189.122Z" fill="#D0E9F4"/>
<path d="M141.11 246.864H187.899V247.765V265.494H141.11V246.864ZM186.981 247.765V248.667V247.765ZM143.251 248.967V263.691H185.758V248.967H143.251Z" fill="#D0E9F4"/>
<path d="M95.2382 246.864H142.027V247.765V265.494H95.2382V246.864ZM140.804 247.765V248.667V247.765ZM97.3788 248.967V263.691H139.886V248.967H97.3788Z" fill="#D0E9F4"/>
<path d="M49.0609 246.864H95.8499V247.765V265.494H49.0609V246.864ZM94.9324 247.765V248.667V247.765ZM51.5074 248.967V263.691H94.015V248.967H51.5074Z" fill="#D0E9F4"/>
<path d="M106.248 210.806H153.037V211.708V229.436H106.248V210.806ZM152.119 211.708V212.609V211.708ZM108.388 212.91V227.633H150.896V212.91H108.388Z" fill="#D0E9F4"/>
<path d="M12.3636 210.806H59.1526V211.708V229.436H12.3636V210.806ZM57.9294 211.708V212.609V211.708ZM14.5043 212.91V227.633H57.0119V212.91H14.5043Z" fill="#D0E9F4"/>
<path d="M76.8896 227.933H123.679V228.835V246.864H76.8896V227.933ZM122.761 229.135V230.037V229.135ZM79.0303 230.037V244.76H121.538V230.037H79.0303Z" fill="#D0E9F4"/>
<path d="M507.471 264.292H554.259V265.194V282.922H507.471V264.292ZM553.342 265.194V266.095V265.194ZM509.611 266.395V281.119H552.119V266.395H509.611Z" fill="#D0E9F4"/>
<path d="M552.119 281.72H598.908V282.622V300.35H552.119V281.72ZM597.99 282.622V283.523V282.622ZM554.259 283.823V298.547H596.767V283.823H554.259Z" fill="#D0E9F4"/>
<path d="M593.709 246.864H640.498V247.765V265.494H593.709V246.864ZM639.58 247.765V248.667V247.765ZM595.85 248.967V263.691H638.357V248.967H595.85Z" fill="#D0E9F4"/>
<path d="M547.837 246.864H594.626V247.765V265.494H547.837V246.864ZM593.403 247.765V248.667V247.765ZM549.978 248.967V263.691H592.486V248.967H549.978Z" fill="#D0E9F4"/>
<path d="M604.718 210.806H651.507V211.708V229.436H604.718V210.806ZM650.589 211.708V212.609V211.708ZM607.164 212.91V227.633H649.672V212.91H607.164Z" fill="#D0E9F4"/>
<path d="M510.834 210.806H557.623V211.708V229.436H510.834V210.806ZM556.706 211.708V212.609V211.708ZM512.975 212.91V227.633H555.483V212.91H512.975Z" fill="#D0E9F4"/>
<path d="M575.36 227.933H622.149V228.835V246.864H575.36V227.933ZM621.232 229.135V230.037V229.135ZM577.501 230.037V244.76H620.008V230.037H577.501Z" fill="#D0E9F4"/>
<path d="M311.752 282.321V301.251H264.657V283.523V282.621H311.752V282.321ZM265.88 283.523V284.424V283.523ZM309.611 284.424H267.103V299.148H309.611V284.424Z" fill="#D0E9F4"/>
<path d="M357.623 282.321V301.251H310.834V283.523V282.621H357.623V282.321ZM311.752 283.523V284.424V283.523ZM355.483 284.424H312.975V299.148H355.483V284.424Z" fill="#D0E9F4"/>
<path d="M403.495 282.321V301.251H356.706V283.523V282.621H403.495V282.321ZM357.623 283.523V284.424V283.523ZM401.354 284.424H358.847V299.148H401.354V284.424Z" fill="#D0E9F4"/>
<path d="M295.238 264.292V283.222H248.449V265.494V264.593H295.238V264.292ZM249.367 265.494V266.395V265.494ZM293.098 266.395H250.59V281.119H293.098V266.395Z" fill="#D0E9F4"/>
<path d="M416.645 229.136V248.066H369.55V230.037V229.136H416.645ZM370.773 230.037V230.939V230.037ZM414.504 230.939H371.997V245.662H414.504V230.939Z" fill="#D0E9F4"/>
<path d="M380.559 264.592V283.522H333.77V265.794V264.893H380.559V264.592ZM334.687 265.493V266.395V265.493ZM378.418 266.395H335.911V281.118H378.418V266.395Z" fill="#D0E9F4"/>
<path d="M279.948 246.563V265.494H233.159V247.765V246.864H279.948V246.563ZM234.382 247.465V248.366V247.465ZM277.807 248.366H235.299V263.09H277.807V248.366Z" fill="#D0E9F4"/>
<path d="M326.125 246.563V265.494H279.03V247.765V246.864H326.125V246.563ZM280.254 247.465V248.366V247.465ZM323.679 248.366H281.171V263.09H323.679V248.366Z" fill="#D0E9F4"/>
<path d="M468.633 246.563V265.494H421.844V247.765V246.864H468.633V246.563ZM422.761 247.465V248.366V247.465ZM466.492 248.366H423.984V263.09H466.492V248.366Z" fill="#D0E9F4"/>
<path d="M261.293 228.534V247.465H214.504V229.436V228.534H261.293ZM215.727 229.436V230.337V229.436ZM259.152 230.638H216.645V245.361H259.152V230.638Z" fill="#D0E9F4"/>
<path d="M491.874 228.534V247.465H445.085V229.436V228.534H491.874ZM446.002 229.436V230.337V229.436ZM489.427 230.638H446.92V245.361H489.427V230.638Z" fill="#D0E9F4"/>
<path d="M284.535 211.708V230.638H237.44V212.609V211.708H284.535ZM238.663 212.609V213.811V212.609ZM282.088 213.811H239.581V228.535H282.088V213.811Z" fill="#D0E9F4"/>
<path d="M330.406 211.708V230.638H283.312V212.609V211.708H330.406ZM284.535 212.609V213.811V212.609ZM327.96 213.811H285.758V228.535H328.266V213.811H327.96Z" fill="#D0E9F4"/>
<path d="M376.278 211.708V230.638H329.489V212.609V211.708H376.278ZM330.406 212.609V213.811V212.609ZM374.137 213.811H331.63V228.535H374.137V213.811Z" fill="#D0E9F4"/>
<path d="M311.888 159.639C311.888 159.639 210.069 152.596 169.289 257.178C128.451 361.66 161.673 470.285 186.136 559.24C210.599 648.194 288.609 692.526 374.395 669.337C460.182 646.149 460.657 570.481 541.449 496.823C622.184 423.332 678.999 411.754 695.034 321.448C711.069 231.142 637.44 163.458 516.665 141.13C395.889 118.802 311.888 159.639 311.888 159.639Z" fill="white"/>
<path opacity="0.81" d="M289.652 712.925C408.754 712.925 505.304 616.375 505.304 497.273C505.304 378.172 408.754 281.621 289.652 281.621C170.551 281.621 74 378.172 74 497.273C74 616.375 170.551 712.925 289.652 712.925Z" fill="#BBDDEA"/>
<path d="M570.344 694.541L511.323 735.401L468.476 698.797L534.307 652.262L570.344 694.541Z" fill="url(#paint0_linear)"/>
<path d="M527.781 695.96L474.719 733.699L438.115 705.323L500.824 665.031L527.781 695.96Z" fill="url(#paint1_linear)"/>
<path d="M515.012 663.329C507.634 663.329 501.959 663.896 501.959 664.747V695.109C502.243 696.244 507.918 697.095 515.012 697.095C522.106 697.095 527.781 696.244 528.064 695.109V664.747C528.064 664.18 522.106 663.329 515.012 663.329Z" fill="#B20000"/>
<path d="M524.943 665.882C524.943 666.45 520.403 667.017 515.012 667.017C509.62 667.017 505.08 666.45 505.08 665.882C505.08 665.315 509.62 664.747 515.012 664.747C520.403 664.747 524.943 665.315 524.943 665.882Z" fill="#829AC4"/>
<path d="M501.675 665.031V695.392C501.959 696.527 507.634 697.378 514.728 697.378C515.012 697.378 515.295 697.378 515.579 697.378V666.449C515.295 666.449 515.012 666.449 514.728 666.449C507.634 666.449 501.959 665.031 501.675 665.031Z" fill="#77000C"/>
<path d="M501.959 665.882C501.392 665.598 500.54 665.598 500.54 664.747C500.54 663.896 501.392 663.896 501.959 663.612C502.81 663.328 503.662 663.328 505.08 663.045C507.634 662.761 511.039 662.477 515.012 662.477C520.687 662.477 525.794 662.761 528.064 663.612C528.632 663.896 529.483 663.896 529.483 664.747C529.483 665.598 528.632 665.598 528.064 665.882C527.213 666.166 526.362 666.166 524.943 666.45C522.389 666.733 518.984 667.017 515.012 667.017C509.053 667.017 504.229 666.45 501.959 665.882ZM502.243 665.031C502.81 665.315 503.945 665.315 505.08 665.598C507.634 665.882 511.039 666.166 514.728 666.166C521.254 666.166 526.929 665.598 528.064 665.031C528.064 665.031 527.781 664.747 527.497 664.747C526.929 664.463 525.794 664.463 524.659 664.18C522.106 663.896 518.7 663.612 515.012 663.612C508.485 663.612 502.81 664.18 501.675 664.747C501.675 664.747 501.959 664.747 502.243 665.031Z" fill="white"/>
<path d="M525.511 683.758V674.962C522.389 675.246 518.417 675.529 514.728 675.529C511.039 675.529 507.351 675.246 504.229 674.962V683.475C507.634 683.758 511.323 684.042 515.296 684.042C518.984 684.326 522.389 684.042 525.511 683.758Z" fill="white"/>
<path d="M570.627 693.974V652.546C570.627 651.411 562.682 650.276 552.751 650.276C542.819 650.276 534.874 651.127 534.874 652.546V693.974C534.874 695.392 542.819 696.527 552.751 696.527C562.682 696.244 570.627 695.392 570.627 693.974Z" fill="#C14E00"/>
<path d="M564.952 653.113H565.236C563.533 652.545 558.426 651.978 552.183 651.978C545.941 651.978 540.833 652.545 539.131 653.113C542.536 653.396 547.076 653.68 552.183 653.68C557.291 653.964 561.547 653.68 564.952 653.113Z" fill="#E26713"/>
<path d="M567.222 678.083V666.165C562.682 666.733 557.575 666.733 552.183 666.733C547.076 666.733 541.968 666.449 537.712 666.165V678.083C542.252 678.65 547.36 678.934 552.751 678.934C558.142 678.934 562.966 678.65 567.222 678.083Z" fill="white"/>
<g opacity="0.52">
<path opacity="0.52" d="M570.627 693.974V653.397C570.627 652.262 562.682 654.816 552.751 654.816V696.527C562.682 696.244 570.627 695.392 570.627 693.974Z" fill="#E26713"/>
</g>
<path d="M534.875 653.68C534.023 653.397 533.172 653.113 532.888 652.262C533.172 651.127 534.023 651.127 534.875 650.843C536.01 650.559 537.428 650.275 539.131 649.992C542.536 649.708 547.36 649.424 552.751 649.424C560.696 649.424 567.506 649.992 570.344 650.843C571.195 651.127 572.046 651.41 572.33 652.262C572.046 653.397 571.479 653.397 570.344 653.68C569.209 653.964 567.79 654.248 566.087 654.532C562.682 655.099 557.858 655.099 552.467 655.099C544.806 655.099 537.996 654.532 534.875 653.68ZM535.158 652.545C536.01 652.829 537.428 653.113 539.131 653.397C542.536 653.68 547.36 653.964 552.467 653.964C557.291 653.964 561.831 653.68 565.236 653.397C567.79 653.113 570.06 652.545 570.627 652.262C570.344 652.262 570.06 651.978 569.776 651.978C568.925 651.694 567.506 651.41 565.804 651.127C562.399 650.843 557.575 650.559 552.467 650.559C547.643 650.559 543.103 650.843 539.698 651.127C537.145 651.41 534.875 651.978 534.307 652.262C534.591 652.262 534.875 652.262 535.158 652.545Z" fill="#E26713"/>
<path d="M558.142 640.344C551.616 640.344 546.225 640.912 546.225 641.763V652.546C546.225 653.397 551.9 653.681 558.142 653.681C564.669 653.681 569.493 652.829 570.06 652.546V641.763C570.06 640.912 564.669 640.344 558.142 640.344Z" fill="#282626"/>
<path d="M568.357 642.33C568.357 642.898 563.25 642.898 558.142 642.898C553.035 642.898 548.211 642.898 548.211 642.33C548.211 641.763 553.318 641.479 558.142 641.479C562.966 641.763 568.357 641.763 568.357 642.33Z" fill="#D3D3D3"/>
<path d="M546.225 642.33V652.545C546.509 653.396 550.765 653.68 555.872 653.68C556.156 653.68 556.156 653.68 556.44 653.68V642.898C556.156 642.898 556.156 642.898 555.872 642.898C550.481 642.614 546.509 642.33 546.225 642.33Z" fill="#282626"/>
<path d="M546.508 642.614C545.941 642.33 545.373 642.331 545.09 641.763C545.09 640.912 545.657 640.912 546.508 640.912C547.076 640.628 548.211 640.628 549.346 640.628C551.616 640.344 554.737 640.344 558.426 640.344C563.534 640.344 568.074 640.628 570.06 641.195C570.627 641.479 571.195 641.479 571.479 642.047C571.479 642.898 570.911 642.898 570.06 642.898C569.492 643.182 568.357 643.182 567.222 643.182C564.952 643.466 561.831 643.465 558.142 643.465C552.751 643.182 548.495 642.898 546.508 642.614ZM546.508 641.763C547.076 641.763 547.927 642.047 549.062 642.047C551.332 642.33 554.454 642.33 557.859 642.33C563.534 642.33 568.641 642.047 569.776 641.763C569.776 641.763 569.492 641.763 569.209 641.479C568.641 641.195 567.79 641.195 566.655 641.195C564.385 640.912 561.264 640.912 557.859 640.912C552.184 640.912 547.076 641.479 545.941 641.763C546.225 641.763 546.508 641.763 546.508 641.763Z" fill="#829AC4"/>
<path d="M562.966 649.424V645.452C561.264 645.452 559.561 645.452 557.859 645.452C552.751 645.452 548.495 645.168 546.792 644.6V648.573C548.779 649.14 553.035 649.424 557.859 649.424C559.561 649.708 561.264 649.708 562.966 649.424Z" fill="#829AC4"/>
<path d="M591.058 701.634C591.058 702.202 590.49 702.486 589.923 702.486H578.289C577.721 702.486 577.154 702.202 577.154 701.634V658.788C577.154 658.22 577.721 657.937 578.289 657.937H589.923C590.49 657.937 591.058 658.22 591.058 658.788V701.634Z" fill="#003893"/>
<path d="M591.058 658.504H577.437C576.87 658.504 578.856 657.085 578.856 657.085C579.14 656.801 579.424 656.801 579.708 656.801H588.504C588.788 656.801 589.071 656.801 589.355 657.085C589.923 657.085 591.341 658.504 591.058 658.504Z" fill="#627982"/>
<path d="M586.234 655.099H582.261V657.369H586.234V655.099Z" fill="#627982"/>
<path d="M587.085 655.383C587.085 655.95 586.801 656.234 586.234 656.234H582.261C581.694 656.234 581.41 655.95 581.41 655.383V652.261C581.41 651.694 581.694 651.41 582.261 651.41H586.234C586.801 651.41 587.085 651.694 587.085 652.261V655.383Z" fill="#003893"/>
<path d="M366.609 699.932L325.748 724.902L280.915 690.001L358.096 640.06L366.609 699.932Z" fill="url(#paint2_linear)"/>
<path d="M332.275 702.202L297.657 725.186L267.579 694.541L323.762 658.504L332.275 702.202Z" fill="url(#paint3_linear)"/>
<path d="M348.449 706.175L313.831 729.159L283.469 698.797L339.652 662.477L348.449 706.175Z" fill="url(#paint4_linear)"/>
<path d="M368.312 701.351C368.312 701.919 367.744 702.486 366.893 702.486H352.705C351.854 702.486 351.286 701.919 351.286 701.351V648.573C351.286 648.005 351.854 647.438 352.705 647.438H366.893C367.744 647.438 368.312 648.005 368.312 648.573V701.351Z" fill="#003893"/>
<path d="M368.028 648.289H351.286C350.719 648.289 353.272 646.586 353.272 646.586C353.84 646.303 354.124 646.302 354.407 646.302H365.474C365.758 646.302 366.325 646.303 366.609 646.586C366.609 646.586 368.595 648.289 368.028 648.289Z" fill="#829AC4"/>
<path d="M362.352 644.317H357.529V647.154H362.352V644.317Z" fill="#829AC4"/>
<path d="M363.204 644.317C363.204 644.884 362.636 645.452 362.069 645.452H357.245C356.678 645.452 356.11 644.884 356.11 644.317V640.628C356.11 640.06 356.678 639.493 357.245 639.493H362.069C362.636 639.493 363.204 640.06 363.204 640.628V644.317Z" fill="#003893"/>
<path d="M348.449 666.733H335.396V705.891H348.449V666.733Z" fill="black"/>
<path d="M348.449 666.733C348.449 667.301 345.611 667.584 341.922 667.584C338.234 667.584 335.396 667.301 335.396 666.733C335.396 666.166 338.234 665.882 341.922 665.882C345.327 665.882 348.449 666.166 348.449 666.733Z" fill="#D3D3D3"/>
<path d="M343.909 664.179H339.653V666.449H343.909V664.179Z" fill="#D3D3D3"/>
<path d="M344.476 662.193H339.369V664.747H344.476V662.193Z" fill="black"/>
<path d="M332.558 663.045H319.506V702.203H332.558V663.045Z" fill="black"/>
<path d="M332.275 663.045C332.275 663.612 329.437 663.896 325.748 663.896C322.06 663.896 319.222 663.612 319.222 663.045C319.222 662.477 322.06 662.193 325.748 662.193C329.437 662.193 332.275 662.477 332.275 663.045Z" fill="#D3D3D3"/>
<path d="M328.018 660.491H323.762V662.761H328.018V660.491Z" fill="#D3D3D3"/>
<path d="M328.586 658.504H323.478V661.058H328.586V658.504Z" fill="black"/>
<path opacity="0.8" d="M204.586 274.586L297.941 237.982L298.792 278.275L188.128 357.158L195.789 548.691L0.851259 646.586L0 333.039L206.288 224.078L204.586 274.586Z" fill="url(#paint5_linear)"/>
<path opacity="0.8" d="M379.094 445.689L426.481 550.962L477.84 722.065L253.959 817.406H175.359L174.508 503.859L380.796 394.898L379.094 445.689Z" fill="url(#paint6_linear)"/>
<path d="M235.515 357.158C238.92 357.442 242.041 359.144 242.325 361.131C242.609 363.117 240.055 364.536 236.366 364.252L184.723 360.279C181.318 359.996 178.197 358.293 178.197 356.307C177.913 354.321 180.75 352.902 184.156 353.186L235.515 357.158Z" fill="#4D5A89"/>
<path d="M238.92 383.263C242.325 383.547 245.446 385.25 245.73 387.52C246.014 389.506 243.46 390.925 239.771 390.641L187.561 386.385C184.156 386.101 181.034 384.398 180.751 382.412C180.467 380.426 183.304 379.007 186.709 379.291L238.92 383.263Z" fill="#4D5A89"/>
<path d="M242.893 410.219C246.581 410.503 249.703 412.489 249.987 414.476C250.27 416.462 247.433 417.881 244.028 417.597L190.115 413.341C186.426 413.057 183.305 411.071 183.305 409.084C183.021 407.098 185.858 405.679 189.547 405.963L242.893 410.219Z" fill="#4D5A89"/>
<path d="M247.149 437.744C250.838 438.028 254.243 440.014 254.527 442C254.81 443.986 251.973 445.689 248.284 445.405L192.385 440.865C188.696 440.581 185.291 438.595 185.291 436.609C185.007 434.623 187.845 432.92 191.817 433.487L247.149 437.744Z" fill="#4D5A89"/>
<path d="M250.27 465.835C254.243 466.119 257.364 468.105 257.931 470.375C258.215 472.645 255.378 474.064 251.405 473.78L194.087 468.957C190.115 468.673 186.993 466.687 186.709 464.417C186.426 462.147 189.547 460.728 193.236 461.012L250.27 465.835Z" fill="#4D5A89"/>
<path d="M257.648 498.751C261.62 499.034 265.025 501.021 265.309 503.291C265.593 505.561 262.755 506.979 258.499 506.696L196.641 502.439C192.668 502.156 192.101 500.453 191.817 498.183C191.533 495.913 191.817 494.211 195.79 494.494L257.648 498.751Z" fill="#4D5A89"/>
<path d="M261.337 530.531C265.309 530.815 268.998 532.801 269.282 535.071C269.565 537.341 266.444 539.044 262.472 538.76L198.343 533.936C194.371 533.653 194.938 531.95 194.938 529.68C194.655 527.41 193.803 525.424 197.776 525.708L261.337 530.531Z" fill="#4D5A89"/>
<path d="M267.012 566.851C270.984 567.135 274.673 569.405 274.957 571.959C275.241 574.513 272.119 576.215 268.147 575.648L203.735 570.256C199.762 569.973 200.614 567.986 200.33 565.716C200.046 563.446 198.911 561.46 202.884 561.744L267.012 566.851Z" fill="#4D5A89"/>
<path d="M270.133 604.023C274.673 604.59 278.362 606.861 278.929 609.698C279.213 612.252 275.808 613.954 271.552 613.671L205.153 606.861C200.613 606.293 196.925 604.023 196.641 601.469C196.357 598.915 199.762 597.213 204.302 597.497L270.133 604.023Z" fill="#4D5A89"/>
<path d="M277.227 647.437C281.767 648.005 285.739 650.558 286.023 653.396C286.307 656.233 283.185 658.22 278.362 657.652L211.112 649.991C206.572 649.423 202.6 646.87 202.316 644.032C202.032 641.195 205.437 639.208 209.977 639.776L277.227 647.437Z" fill="#4D5A89"/>
<path d="M234.096 286.788C236.65 286.788 239.204 288.774 239.488 290.76L298.792 718.943C299.076 720.93 297.089 722.632 294.536 722.348C291.982 722.065 289.428 720.362 289.144 718.092L229.84 290.193C229.556 288.206 231.542 286.788 234.096 286.788Z" fill="#4D5A89"/>
<path d="M208.842 714.403C211.396 714.687 213.666 713.268 213.382 711.282L179.332 286.787C179.048 284.801 176.778 282.815 174.224 282.815C171.671 282.531 169.684 283.95 169.684 285.936L203.451 710.147C204.018 712.133 206.288 714.119 208.842 714.403Z" fill="#4D5A89"/>
<path d="M91.936 730.009C94.4898 730.861 99.8811 728.591 100.165 726.321L178.197 289.625C178.481 287.355 175.927 284.234 172.522 283.95H171.954C169.401 283.666 167.414 284.801 167.131 287.071L90.801 725.469C90.5172 727.739 87.3959 726.321 90.2335 729.158L91.936 730.009Z" fill="#4D5A89"/>
<path d="M180.75 758.668C183.588 759.236 188.128 757.533 188.412 754.98L245.162 293.314C245.446 291.044 242.325 287.922 238.92 287.922H238.352C235.515 287.922 233.528 289.057 233.245 291.327L178.197 752.709C177.913 754.979 175.643 755.547 178.764 758.384L180.75 758.668Z" fill="#829AC4"/>
<path d="M224.165 333.607C227.853 333.89 230.691 335.877 230.407 338.147C230.123 340.417 227.002 341.835 223.03 341.552L168.549 336.444C164.86 336.16 162.306 334.174 162.59 331.904C162.874 329.634 165.995 328.215 169.684 328.499L224.165 333.607Z" fill="#4D5A89"/>
<path d="M220.476 363.685C224.165 363.969 227.002 366.239 226.718 368.509C226.435 370.779 223.03 372.197 219.341 371.914L164.293 366.239C160.604 365.955 158.05 363.685 158.334 361.415C158.618 359.145 162.023 357.726 165.428 358.01L220.476 363.685Z" fill="#4D5A89"/>
<path d="M216.787 394.046C220.76 394.614 223.597 396.6 223.314 399.154C223.03 401.424 219.625 403.126 215.652 402.559L159.185 396.033C155.497 395.465 152.659 393.479 153.227 391.209C153.51 388.939 156.915 387.52 160.604 387.804L216.787 394.046Z" fill="#4D5A89"/>
<path d="M213.666 425.259C217.638 425.826 220.76 428.096 220.476 430.366C220.192 432.636 216.503 434.339 212.531 433.771L154.078 426.394C150.105 425.826 147.268 423.556 147.835 421.286C148.119 419.016 151.524 417.597 155.496 417.881L213.666 425.259Z" fill="#4D5A89"/>
<path d="M208.842 456.756C213.098 457.323 215.936 459.593 215.652 462.147C215.368 464.701 211.679 466.119 207.707 465.552L148.119 457.323C144.146 456.756 141.309 454.486 141.593 451.932C141.876 449.662 145.565 447.959 149.254 448.527L208.842 456.756Z" fill="#4D5A89"/>
<path d="M205.153 492.508C209.126 493.076 210.261 495.346 209.977 497.9C209.693 500.453 206.288 501.872 202.316 501.305L141.876 492.225C138.188 491.657 137.904 489.671 138.471 487.117C138.755 484.563 139.606 482.861 143.295 483.428L205.153 492.508Z" fill="#4D5A89"/>
<path d="M198.627 555.218C202.6 555.785 202.6 558.056 202.316 560.609C202.032 563.163 198.343 564.866 194.371 564.014L131.378 552.948C127.405 552.38 128.824 550.394 129.108 547.84C129.391 545.287 128.824 543.017 132.796 543.868L198.627 555.218Z" fill="#4D5A89"/>
<path d="M189.831 607.145C194.371 607.996 197.776 611.117 197.492 613.671C197.208 616.508 193.236 617.927 188.696 617.076L122.865 604.023C118.609 603.172 115.487 600.335 115.771 597.781C116.055 595.227 120.027 593.524 124.284 594.376L189.831 607.145Z" fill="#4D5A89"/>
<path d="M184.156 669.57C188.979 670.421 189.263 673.542 188.979 676.38C188.696 679.217 187.561 680.636 183.021 679.785L114.92 665.314C110.38 664.462 107.259 661.341 107.542 658.787C108.11 655.95 111.799 654.531 116.339 655.666L184.156 669.57Z" fill="#4D5A89"/>
<path d="M223.314 332.755C227.002 333.039 229.84 335.309 229.556 337.579C229.273 339.849 225.867 341.268 222.179 340.984L167.414 335.309C163.726 335.025 161.172 332.755 161.456 330.769C161.739 328.499 165.144 327.08 168.549 327.364L223.314 332.755Z" fill="#829AC4"/>
<path d="M219.057 362.833C222.746 363.117 225.584 365.387 225.3 367.657C225.016 369.927 221.611 371.345 217.922 371.062L162.591 364.819C158.902 364.535 156.348 362.265 156.632 359.995C156.916 357.725 160.321 356.307 163.726 356.59L219.057 362.833Z" fill="#829AC4"/>
<path d="M215.369 393.478C219.341 394.046 222.179 396.316 221.895 398.586C221.611 400.856 218.206 402.558 214.234 401.991L157.483 394.897C153.794 394.33 150.957 392.343 151.524 389.79C151.808 387.52 155.213 386.101 158.902 386.384L215.369 393.478Z" fill="#829AC4"/>
<path d="M211.963 424.691C215.936 425.259 219.057 427.529 218.773 430.082C218.49 432.352 214.801 434.055 210.828 433.487L152.091 425.542C148.119 424.975 145.281 422.705 145.849 420.435C146.133 418.165 149.821 416.746 153.51 417.03L211.963 424.691Z" fill="#829AC4"/>
<path d="M206.856 456.187C211.112 456.755 213.95 459.309 213.666 461.579C213.382 464.132 209.694 465.551 205.437 464.984L145.565 456.187C141.593 455.62 138.755 453.066 139.039 450.796C139.323 448.526 143.012 446.823 146.984 447.391L206.856 456.187Z" fill="#829AC4"/>
<path d="M202.032 493.643C206.005 494.211 208.842 496.764 208.558 499.318C208.275 501.872 204.586 503.291 200.613 502.723L139.89 493.075C136.201 492.508 135.918 490.522 136.485 487.968C136.769 485.414 137.62 483.712 141.309 484.279L202.032 493.643Z" fill="#829AC4"/>
<path d="M195.506 554.65C199.762 555.218 202.883 558.055 202.599 560.609C202.316 563.163 198.627 564.865 194.371 564.014L128.256 553.515C124.284 552.948 125.419 550.961 125.986 548.408C126.27 545.854 125.702 543.584 129.675 544.151L195.506 554.65Z" fill="#4D5A89"/>
<path d="M187.561 609.981C192.101 610.833 195.506 613.954 195.222 616.791C194.938 619.629 190.966 621.048 186.142 620.196L120.027 606.293C115.771 605.441 112.65 602.604 112.934 599.766C113.501 597.212 117.19 595.51 121.446 596.645L187.561 609.981Z" fill="#829AC4"/>
<path d="M180.467 673.258C185.291 674.393 188.696 677.515 188.412 680.352C188.128 683.19 183.872 684.608 179.048 683.473L110.664 668.151C106.123 667.016 103.002 664.178 103.286 661.341C103.853 658.503 107.826 657.084 112.082 658.219L180.467 673.258Z" fill="#829AC4"/>
<path d="M235.231 286.787C238.069 287.071 240.055 289.057 239.771 291.327L181.035 755.83C180.751 758.1 178.197 759.519 175.359 758.668C172.522 758.1 170.536 755.547 170.819 753.277L229.273 290.759C229.84 288.489 232.394 286.787 235.231 286.787Z" fill="#4D5A89"/>
<path d="M90.2335 730.293C92.7872 731.144 95.341 729.725 95.6248 727.739L176.494 286.22C176.778 283.95 175.076 281.963 172.238 281.68C169.401 281.396 167.131 283.098 166.563 285.368L86.2609 724.902C85.9772 727.172 87.6797 729.442 90.2335 730.293Z" fill="#4D5A89"/>
<path d="M182.17 273.167C175.076 267.776 169.401 279.693 167.414 281.396C165.144 283.098 145.849 306.65 146.984 314.028C148.119 321.121 157.767 338.714 171.103 332.755C184.156 326.513 182.17 273.167 182.17 273.167Z" fill="black"/>
<path d="M132.513 527.41C131.662 531.382 128.257 543.584 133.364 546.421C138.472 549.259 143.012 546.989 145.282 546.705C147.835 546.705 168.549 545.854 169.401 541.881C170.252 537.909 171.387 535.639 154.929 533.085C149.538 530.815 151.808 526.275 151.808 526.275L132.513 527.41Z" fill="black"/>
<path d="M196.925 543.3C195.222 542.449 192.385 541.881 186.993 540.462C181.602 538.76 183.588 531.666 183.588 531.666L163.442 531.099C162.874 535.071 156.916 551.245 162.023 553.515C167.131 555.785 171.671 553.231 173.941 552.947C175.643 552.664 188.98 554.366 195.506 551.812L196.925 543.3Z" fill="black"/>
<path d="M177.629 350.632C172.238 370.779 161.172 453.634 159.185 467.822C157.199 482.01 150.956 531.95 157.199 545.854L189.263 540.179C189.263 540.179 177.629 499.319 192.101 473.213C196.924 464.417 205.153 414.476 208.275 392.911C209.126 386.385 212.815 375.886 213.95 364.536C215.085 349.213 177.629 350.632 177.629 350.632Z" fill="#210500"/>
<path d="M165.144 339.282C160.604 350.916 154.645 357.726 150.389 374.751C148.403 383.264 151.24 390.074 150.105 395.749C148.687 401.424 139.323 460.444 139.323 460.444C139.323 460.444 131.945 495.913 128.824 516.911C127.689 524.289 126.838 527.978 128.256 535.071C128.256 535.071 126.554 536.49 132.796 535.639C139.039 534.788 154.362 534.504 158.902 528.829C163.442 523.154 180.751 376.737 180.751 376.737L165.144 339.282Z" fill="#210500"/>
<path d="M215.936 362.549C214.234 368.792 211.396 386.101 209.694 389.506C207.991 393.194 199.762 453.35 196.073 464.984C192.385 476.618 191.817 476.618 190.115 483.428C188.412 490.238 185.858 522.586 187.277 527.126C188.696 531.666 189.831 538.476 190.966 540.462C192.101 542.165 176.494 542.732 173.373 543.3C170.252 543.867 171.387 530.531 171.387 530.531L182.453 527.126C182.453 527.126 175.643 525.991 176.494 522.87C177.346 519.748 179.048 514.357 181.034 502.723C183.021 491.089 181.318 478.604 186.993 468.389C192.668 458.174 200.613 363.4 204.018 359.995C207.707 356.307 215.936 362.549 215.936 362.549Z" fill="#4F1109"/>
<path d="M205.154 242.806C205.154 246.495 201.465 253.588 199.762 258.98C197.776 265.79 189.547 276.856 189.547 276.856L211.112 287.639C211.112 287.639 217.071 270.33 222.462 267.492C223.03 267.492 205.154 242.806 205.154 242.806Z" fill="#E5C0AE"/>
<path d="M235.799 245.359C232.961 258.979 225.868 270.613 220.193 270.613C214.517 270.33 203.451 258.128 203.735 247.346C204.019 236.563 211.68 227.483 222.179 229.469C233.529 231.455 238.069 234.86 235.799 245.359Z" fill="#E5C0AE"/>
<path d="M236.934 277.707C227.286 273.735 225.016 271.748 225.016 271.748C225.016 271.748 210.828 277.707 207.423 277.14C191.817 276.856 191.817 267.208 191.817 267.208C191.817 267.208 183.304 270.046 179.616 270.613C174.792 271.181 169.968 286.787 164.577 314.027C164.009 317.149 146.984 350.348 151.808 364.819C154.645 373.332 196.073 372.197 208.275 380.709C211.963 383.263 214.801 376.453 215.652 372.764C216.503 369.076 218.773 329.066 237.501 304.096C237.785 304.096 239.204 278.842 236.934 277.707Z" fill="black"/>
<path d="M239.487 238.265C237.785 232.874 228.989 218.97 214.233 221.524C202.032 223.794 198.343 228.334 197.208 234.009C195.506 239.4 194.938 245.076 194.087 247.062C191.817 247.913 189.547 248.197 188.979 247.062C190.966 252.453 195.789 252.169 195.789 252.169L188.979 253.588C188.979 253.588 191.817 260.114 193.803 260.114C196.073 260.114 190.114 260.682 190.114 260.682C190.114 260.682 200.613 266.641 201.748 266.924C203.167 267.208 208.558 267.492 208.558 267.492C208.558 267.492 215.652 268.911 214.801 267.208C213.098 263.519 215.368 262.952 216.22 264.087C217.638 265.789 221.043 262.101 221.043 262.101C221.043 262.101 224.165 260.114 221.895 257.561C220.76 256.426 222.746 252.453 223.03 251.602C223.881 248.197 227.854 247.346 227.286 250.751C226.719 254.156 228.705 253.588 228.705 253.588L230.407 253.872C230.407 253.872 233.812 246.778 235.799 244.508C238.352 245.359 242.041 244.508 243.176 241.103C242.892 242.238 241.19 240.535 239.487 238.265Z" fill="#4F1109"/>
<path opacity="0.95" d="M298.792 278.275L288.576 276.856L294.252 239.401L304.467 240.82L298.792 278.275Z" fill="white"/>
<path d="M304.467 240.819C304.467 241.103 302.197 241.103 299.359 240.819C296.522 240.535 294.252 239.684 294.252 239.4C294.252 239.117 296.522 239.117 299.359 239.4C302.197 239.968 304.467 240.535 304.467 240.819Z" fill="#829AC4"/>
<path d="M298.026 237.953L297.75 239.92L301.122 240.393L301.398 238.426L298.026 237.953Z" fill="#829AC4"/>
<path opacity="0.95" d="M301.629 239.117L297.656 238.549L297.94 236.279L301.913 236.847L301.629 239.117Z" fill="white"/>
<path d="M303.615 247.629C305.034 246.494 306.453 244.792 306.453 243.941C306.453 243.089 304.183 244.224 302.764 245.076C303.332 244.792 303.899 244.224 304.751 243.657C308.156 241.387 302.197 242.238 302.197 242.238C302.197 242.238 296.238 245.359 295.954 242.522C296.805 240.819 297.373 239.684 297.657 238.833C298.792 237.982 299.927 237.13 300.778 236.563C301.913 235.428 300.494 235.428 299.359 235.712C298.792 235.712 295.954 237.414 295.954 237.414C295.103 237.982 293.968 240.536 293.117 241.671C291.982 243.089 287.725 253.304 287.725 253.304C287.725 253.304 281.199 259.263 276.091 262.952C272.403 265.222 282.334 272.6 282.334 272.6C282.334 272.6 288.577 264.371 292.833 262.101C297.373 259.831 303.332 251.886 303.332 251.886C303.332 251.886 305.886 247.913 305.602 247.062C305.602 246.494 304.751 247.062 303.615 247.629Z" fill="#E5C0AE"/>
<path d="M231.826 277.139C245.162 277.139 253.675 274.869 263.323 272.032L284.888 255.007L289.428 273.734C289.428 273.734 273.538 291.043 267.863 294.448C262.188 297.853 238.92 307.501 230.691 307.501C222.179 307.217 220.192 277.139 231.826 277.139Z" fill="black"/>
<path d="M193.236 298.704C190.115 297.002 181.318 275.153 183.588 269.762C185.574 264.087 193.236 263.519 195.506 264.654C197.492 265.789 198.343 267.208 196.357 268.627C194.371 270.045 194.087 273.45 194.087 273.45L193.236 298.704Z" fill="black"/>
<path d="M233.529 273.451C231.826 267.492 227.57 268.627 223.314 268.627C219.057 268.627 206.289 275.153 194.087 270.046C192.385 269.478 186.993 300.407 194.371 298.705C201.465 297.002 217.355 276.572 220.192 276.288C223.03 276.004 233.529 273.451 233.529 273.451Z" fill="#282626"/>
<path d="M284.604 255.007C283.469 254.44 263.606 270.897 261.336 271.465C259.066 272.032 240.055 275.154 237.501 275.154C234.947 275.154 230.407 274.586 227.853 274.586C225.583 274.586 221.611 276.005 221.611 276.005C221.611 276.005 235.515 278.842 237.501 279.41C239.487 279.977 260.769 276.289 262.755 275.437C264.458 274.586 282.334 262.668 284.888 260.398C287.442 258.412 284.604 255.007 284.604 255.007Z" fill="#282626"/>
<path d="M427.332 328.783L309.291 399.721L354.691 497.616L435.561 433.772L451.167 358.577L427.332 328.783Z" fill="url(#paint7_linear)"/>
<path d="M464.22 352.335L457.41 361.131L426.197 335.309L433.007 326.797L464.22 352.335Z" fill="black"/>
<path d="M433.007 326.797C433.291 327.08 431.872 329.067 430.17 331.62C428.183 333.891 426.481 335.593 426.197 335.309C425.913 335.026 427.332 333.039 429.035 330.485C431.021 328.215 432.723 326.513 433.007 326.797Z" fill="#C3CAD1"/>
<path d="M429.092 328.345L426.953 330.994L428.498 332.242L430.637 329.593L429.092 328.345Z" fill="#829AC4"/>
<path d="M429.886 328.216L427.048 331.621L425.346 330.202L427.9 326.797L429.886 328.216Z" fill="black"/>
<path d="M439.533 331.337C438.966 329.35 438.115 327.08 437.263 326.797C436.412 326.513 436.412 328.783 436.412 331.053C436.412 330.202 436.128 329.35 436.128 328.499C435.561 324.243 433.575 330.202 433.575 330.202C433.575 330.202 433.575 337.296 430.737 336.161C429.602 334.458 428.751 333.323 428.183 332.756C427.899 331.337 427.616 329.634 427.332 328.783C426.764 327.08 426.197 328.499 425.629 329.634C425.346 330.202 425.629 333.891 425.629 333.891C425.629 335.026 427.616 337.296 428.183 338.714C429.034 340.417 436.412 349.781 436.412 349.781C436.412 349.781 438.682 358.861 439.533 365.671C440.101 369.927 451.735 364.252 451.735 364.252C451.735 364.252 446.911 354.321 447.195 348.929C447.478 343.822 442.938 333.891 442.938 333.891C442.938 333.891 440.385 329.35 439.817 329.35C439.25 328.783 439.25 329.918 439.533 331.337Z" fill="#E5C0AE"/>
<path d="M441.804 554.934C449.181 553.231 456.275 550.11 456.275 552.096C456.275 554.083 452.302 560.042 450.032 559.474C447.195 559.19 441.804 554.934 441.804 554.934Z" fill="black"/>
<path d="M375.973 569.405C375.689 567.135 383.634 565.149 387.039 566C390.444 566.851 391.296 579.62 390.444 580.188C390.444 580.188 379.662 575.364 378.81 573.094C377.675 571.392 375.973 569.405 375.973 569.405Z" fill="black"/>
<path d="M493.447 709.863C496.284 707.877 473.3 627.858 472.449 624.453C471.03 619.062 466.774 602.888 460.247 577.918C454.856 557.204 445.492 534.22 440.952 527.126H434.142C433.858 527.41 433.575 527.694 433.575 527.694C443.506 546.989 463.369 613.955 467.341 643.181C468.76 653.964 483.231 689.433 482.948 709.012C485.785 708.444 492.028 710.714 493.447 709.863Z" fill="#282626"/>
<path d="M440.385 422.422C435.277 414.76 430.453 407.667 430.453 407.667C430.453 407.667 432.723 398.303 439.534 382.696C438.682 380.426 437.264 351.767 437.264 351.767C436.129 344.39 445.492 347.511 446.344 348.93C451.451 356.875 454.289 372.765 456.559 385.25C452.87 408.802 445.776 422.705 440.385 422.422Z" fill="#E5C0AE"/>
<path d="M457.126 579.053C452.87 558.055 445.208 534.504 440.952 527.126C440.952 527.126 379.378 528.829 379.094 537.909C378.526 566.852 384.769 625.872 385.62 627.291C386.755 639.776 389.593 645.735 390.444 651.977C391.863 665.03 393.282 698.513 393.282 707.593C393.282 715.254 413.144 710.998 413.144 710.998C413.144 710.998 432.44 717.808 433.007 712.133C433.575 707.309 428.751 660.49 427.616 653.112L419.671 600.902C422.508 599.767 425.346 600.051 428.467 602.604C429.886 607.996 431.304 612.536 432.439 616.225C435.277 624.737 440.385 654.247 443.79 665.881C447.762 722.632 461.382 708.444 463.085 706.174C468.192 697.662 489.474 708.728 490.893 707.877C494.298 706.458 462.234 604.307 457.126 579.053Z" fill="black"/>
<path d="M407.47 424.407C408.888 428.096 410.307 438.028 415.698 440.865C415.982 447.675 386.472 456.188 380.797 445.689C383.634 436.893 384.202 429.231 383.918 426.678C383.351 424.407 407.47 424.407 407.47 424.407Z" fill="#D3A994"/>
<path d="M407.753 404.829C405.483 396.6 398.673 391.492 386.755 394.897C372 398.87 373.986 407.383 377.108 417.03C380.229 426.962 389.877 437.46 397.538 435.474C403.213 434.055 408.604 427.245 407.186 417.598C408.604 416.463 409.739 413.909 409.739 410.504C410.023 406.815 410.023 404.545 407.753 404.829Z" fill="#E5C0AE"/>
<path d="M382.499 398.019C375.405 401.424 372.568 405.964 375.122 413.625C374.838 413.625 375.973 414.192 375.689 414.192C373.135 414.76 372.284 416.463 373.987 419.868C375.122 422.705 378.527 425.259 380.513 425.259C384.769 434.623 392.147 436.609 397.822 435.19C398.106 435.19 398.389 434.906 398.673 434.906C398.106 434.906 389.877 436.609 382.499 398.019Z" fill="#D3A994"/>
<path d="M385.62 390.641C383.35 390.073 374.27 395.748 372.568 398.87C370.865 401.423 370.865 406.247 372 410.787C372.852 415.327 375.122 425.542 379.378 428.38C384.202 431.785 395.552 426.961 395.552 426.961L385.62 390.641Z" fill="black"/>
<path d="M383.35 405.68C385.62 415.327 391.295 427.812 391.295 427.812C393.282 429.231 406.051 427.812 408.888 418.165C409.456 416.179 407.469 404.828 407.469 404.828C407.469 404.828 405.767 399.153 402.645 394.33C401.227 392.06 399.24 390.925 394.417 390.073C392.147 389.79 384.485 389.79 383.634 391.208C383.35 391.776 381.648 397.451 383.35 405.68Z" fill="#282626"/>
<path d="M376.257 424.975C375.689 428.664 375.122 437.46 378.81 440.298C384.769 444.554 412.861 433.488 413.428 428.38C413.712 423.84 408.604 412.774 408.604 412.774C408.604 412.774 403.781 419.3 389.877 423.84C382.499 426.394 376.257 424.975 376.257 424.975Z" fill="black"/>
<path d="M391.295 713.268C388.741 714.971 388.742 720.646 388.742 720.646C388.742 720.646 389.025 726.037 397.254 727.172C405.199 728.307 408.888 732.563 418.252 732.847C427.899 733.131 431.588 729.442 431.588 729.442L429.602 716.957L391.295 713.268Z" fill="#282626"/>
<path d="M411.158 703.337C413.144 699.932 424.494 699.932 424.778 703.053C425.062 705.891 424.778 708.161 427.332 711.85C429.886 715.538 431.588 724.335 428.183 726.037C419.103 730.577 410.307 727.172 410.307 727.172C410.307 727.172 404.064 723.767 396.686 722.632C389.309 721.497 386.755 717.241 392.146 712.985C395.835 710.147 402.078 709.296 404.915 708.445C407.753 707.31 411.158 703.337 411.158 703.337Z" fill="black"/>
<path d="M478.407 709.864C499.689 721.214 499.405 722.349 503.378 723.484C505.931 724.335 504.796 727.456 504.796 727.456C504.796 727.456 497.419 739.09 478.691 725.47C472.165 720.93 471.314 724.051 466.774 722.916C457.41 720.646 460.815 720.646 460.815 720.646L460.531 713.269L478.407 709.864Z" fill="#282626"/>
<path d="M480.961 697.094C479.826 693.406 463.085 691.703 461.95 694.257C460.815 697.094 462.801 697.094 461.382 700.216C459.396 704.188 457.41 717.525 460.247 714.971C465.355 710.715 478.124 712.701 478.124 712.701C478.124 712.701 490.893 717.525 497.703 720.93C508.202 726.321 504.229 722.632 498.838 718.66C494.298 714.971 493.446 712.417 489.474 707.877C486.92 705.607 480.961 697.094 480.961 697.094Z" fill="black"/>
<path d="M477.84 722.065C467.341 726.605 463.652 724.902 460.247 722.065C457.126 719.511 455.991 711.85 462.234 711.282C489.474 709.58 477.84 722.065 477.84 722.065Z" fill="#282626"/>
<path d="M422.792 598.631C419.387 601.469 426.765 624.453 426.765 641.194C426.765 657.652 437.263 707.876 433.291 712.416C429.318 716.673 423.927 715.821 424.495 712.984C425.062 710.146 416.549 621.615 416.833 614.805C417.401 597.496 422.792 598.631 422.792 598.631Z" fill="#282626"/>
<path d="M375.973 568.837C381.364 572.242 401.51 569.972 403.78 569.405C404.348 578.769 406.618 598.915 405.199 600.05C400.659 603.455 381.648 602.604 381.648 602.604L375.973 568.837Z" fill="#282626"/>
<path d="M429.035 562.879C434.994 562.879 455.991 553.515 455.991 551.812C457.694 558.906 463.085 582.174 461.383 584.444C459.68 586.714 439.534 595.794 437.831 593.808C436.129 591.538 429.035 562.879 429.035 562.879Z" fill="#282626"/>
<path d="M360.65 471.794C355.543 490.522 353.273 521.451 356.961 525.14C356.961 525.14 359.799 528.545 362.636 527.126C366.041 525.424 371.716 521.451 375.121 514.357C378.81 507.263 380.229 485.698 378.81 484.563C377.392 483.428 360.65 471.794 360.65 471.794Z" fill="#E5C0AE"/>
<path d="M453.154 522.87C446.627 514.925 433.007 475.767 433.007 470.943C431.872 444.554 438.399 449.945 437.264 439.447C436.696 435.19 426.765 409.653 423.36 415.328C418.252 424.408 409.172 430.65 410.591 433.772C411.442 435.758 400.376 442 393.282 443.703C385.904 445.405 381.648 443.135 381.648 443.135C381.648 443.135 372.568 451.648 362.637 455.62C359.515 456.756 369.73 487.117 370.298 489.387C371.149 494.211 374.554 531.95 377.959 555.785C378.527 560.042 421.657 547.84 438.399 540.179C449.465 535.355 453.438 523.437 453.154 522.87Z" fill="#77000C"/>
<path d="M362.92 455.62C356.678 460.161 354.975 474.064 353.556 488.82C351.854 503.575 351.286 505.277 351.286 505.277C351.286 505.277 369.447 510.101 373.419 504.71C377.392 499.318 373.419 480.023 373.419 480.023L362.92 455.62Z" fill="#77000C"/>
<path d="M432.44 400.289L419.103 422.421L431.588 458.458L448.046 426.961C448.046 426.961 433.575 401.14 432.44 400.289Z" fill="#77000C"/>
<path d="M433.291 455.053C429.034 464.417 429.034 475.2 431.872 487.401C434.71 499.602 444.641 535.923 444.641 535.923C444.641 535.923 451.735 530.815 454.005 523.154C449.181 516.06 433.291 479.74 432.723 471.227C432.44 462.431 433.291 455.053 433.291 455.053Z" fill="#B20000"/>
<circle cx="558.5" cy="291.306" r="91.5" fill="#58ACF5" stroke="#58ACF5" stroke-width="4"/>
<path d="M622.143 256.041C617.631 257.983 612.768 259.258 607.73 259.868C612.886 256.929 616.87 252.27 618.745 246.668C613.882 249.441 608.491 251.383 602.808 252.492C598.179 247.722 591.676 244.949 584.293 244.949C570.525 244.949 559.275 255.598 559.275 268.742C559.275 270.628 559.51 272.458 559.92 274.178C539.062 273.179 520.488 263.695 508.126 249.33C505.958 252.825 504.727 256.929 504.727 261.255C504.727 269.519 509.122 276.84 515.918 280.999C511.758 280.999 507.891 279.89 504.493 278.226C504.493 278.226 504.493 278.226 504.493 278.393C504.493 289.929 513.164 299.579 524.648 301.742C522.539 302.297 520.313 302.574 518.027 302.574C516.446 302.574 514.864 302.408 513.34 302.13C516.504 311.504 525.703 318.492 536.776 318.658C528.222 325.092 517.383 328.863 505.548 328.863C503.556 328.863 501.564 328.752 499.571 328.53C510.704 335.297 523.945 339.235 538.124 339.235C584.293 339.235 609.663 302.962 609.663 271.515C609.663 270.462 609.663 269.463 609.605 268.409C614.526 265.082 618.745 260.867 622.143 256.041Z" fill="white"/>
<defs>
<linearGradient id="paint0_linear" x1="490.286" y1="725.755" x2="562.556" y2="653.689" gradientUnits="userSpaceOnUse">
<stop offset="0.2234" stop-color="white"/>
<stop offset="0.342" stop-color="#FBFBFB"/>
<stop offset="0.4528" stop-color="#F0F0F0"/>
<stop offset="0.5605" stop-color="#DDDDDD"/>
<stop offset="0.6663" stop-color="#C2C2C2"/>
<stop offset="0.7708" stop-color="#A0A0A0"/>
<stop offset="0.8742" stop-color="#767676"/>
<stop offset="0.975" stop-color="#454545"/>
<stop offset="1" stop-color="#383838"/>
</linearGradient>
<linearGradient id="paint1_linear" x1="455.759" y1="727.79" x2="522.214" y2="661.522" gradientUnits="userSpaceOnUse">
<stop offset="0.2234" stop-color="white"/>
<stop offset="0.342" stop-color="#FBFBFB"/>
<stop offset="0.4528" stop-color="#F0F0F0"/>
<stop offset="0.5605" stop-color="#DDDDDD"/>
<stop offset="0.6663" stop-color="#C2C2C2"/>
<stop offset="0.7708" stop-color="#A0A0A0"/>
<stop offset="0.8742" stop-color="#767676"/>
<stop offset="0.975" stop-color="#454545"/>
<stop offset="1" stop-color="#383838"/>
</linearGradient>
<linearGradient id="paint2_linear" x1="301.758" y1="716.967" x2="383.663" y2="635.292" gradientUnits="userSpaceOnUse">
<stop offset="0.2234" stop-color="white"/>
<stop offset="0.342" stop-color="#FBFBFB"/>
<stop offset="0.4528" stop-color="#F0F0F0"/>
<stop offset="0.5605" stop-color="#DDDDDD"/>
<stop offset="0.6663" stop-color="#C2C2C2"/>
<stop offset="0.7708" stop-color="#A0A0A0"/>
<stop offset="0.8742" stop-color="#767676"/>
<stop offset="0.975" stop-color="#454545"/>
<stop offset="1" stop-color="#383838"/>
</linearGradient>
<linearGradient id="paint3_linear" x1="283.407" y1="714.992" x2="343.027" y2="655.54" gradientUnits="userSpaceOnUse">
<stop offset="0.2234" stop-color="white"/>
<stop offset="0.342" stop-color="#FBFBFB"/>
<stop offset="0.4528" stop-color="#F0F0F0"/>
<stop offset="0.5605" stop-color="#DDDDDD"/>
<stop offset="0.6663" stop-color="#C2C2C2"/>
<stop offset="0.7708" stop-color="#A0A0A0"/>
<stop offset="0.8742" stop-color="#767676"/>
<stop offset="0.975" stop-color="#454545"/>
<stop offset="1" stop-color="#383838"/>
</linearGradient>
<linearGradient id="paint4_linear" x1="299.327" y1="719.017" x2="358.947" y2="659.564" gradientUnits="userSpaceOnUse">
<stop offset="0.2234" stop-color="white"/>
<stop offset="0.342" stop-color="#FBFBFB"/>
<stop offset="0.4528" stop-color="#F0F0F0"/>
<stop offset="0.5605" stop-color="#DDDDDD"/>
<stop offset="0.6663" stop-color="#C2C2C2"/>
<stop offset="0.7708" stop-color="#A0A0A0"/>
<stop offset="0.8742" stop-color="#767676"/>
<stop offset="0.975" stop-color="#454545"/>
<stop offset="1" stop-color="#383838"/>
</linearGradient>
<linearGradient id="paint5_linear" x1="4.44159" y1="479.683" x2="238.04" y2="374.738" gradientUnits="userSpaceOnUse">
<stop stop-color="white"/>
<stop offset="0.1099" stop-color="#F5F5F5"/>
<stop offset="0.2944" stop-color="#DBDBDB"/>
<stop offset="0.5308" stop-color="#B1B1B1"/>
<stop offset="0.8069" stop-color="#777777"/>
<stop offset="1" stop-color="#4A4A4A"/>
</linearGradient>
<linearGradient id="paint6_linear" x1="313.378" y1="620.996" x2="469.442" y2="523.102" gradientUnits="userSpaceOnUse">
<stop stop-color="white"/>
<stop offset="0.4046" stop-color="#B8B8B8"/>
<stop offset="1" stop-color="#4A4A4A"/>
</linearGradient>
<linearGradient id="paint7_linear" x1="399.47" y1="406.437" x2="460.397" y2="368.219" gradientUnits="userSpaceOnUse">
<stop stop-color="white"/>
<stop offset="0.4046" stop-color="#B8B8B8"/>
<stop offset="1" stop-color="#4A4A4A"/>
</linearGradient>
</defs>
</svg>
