<svg width="505" height="348" viewBox="0 0 505 348" fill="none" xmlns="http://www.w3.org/2000/svg">
<path d="M504.904 330.611H0V330.914H504.904V330.611Z" fill="#EBEBEB"/>
<path d="M454.313 346.869H420.888V347.172H454.313V346.869Z" fill="#EBEBEB"/>
<path d="M408.165 346.869H336.67V347.172H408.165V346.869Z" fill="#EBEBEB"/>
<path d="M297.187 337.579H277.798V337.882H297.187V337.579Z" fill="#EBEBEB"/>
<path d="M87.6514 339.195H53.0149V339.498H87.6514V339.195Z" fill="#EBEBEB"/>
<path d="M159.55 339.195H96.6387V339.498H159.55V339.195Z" fill="#EBEBEB"/>
<path d="M227.308 343.537H190.147V343.84H227.308V343.537Z" fill="#EBEBEB"/>
<path d="M239.325 285.574H44.3306C41.2002 285.574 38.5747 282.948 38.5747 279.818V5.75591C38.5747 2.6255 41.2002 0 44.3306 0H239.325C242.455 0 245.081 2.6255 245.081 5.75591V279.818C245.081 283.049 242.556 285.574 239.325 285.574ZM44.3306 0.302943C41.3012 0.302943 38.7767 2.72648 38.7767 5.85689V279.919C38.7767 282.948 41.2002 285.473 44.3306 285.473H239.325C242.354 285.473 244.879 283.049 244.879 279.919V5.75591C244.879 2.72648 242.455 0.201962 239.325 0.201962H44.3306V0.302943Z" fill="#EBEBEB"/>
<path d="M457.746 285.574H262.752C259.622 285.574 256.996 282.948 256.996 279.818V5.75591C256.996 2.6255 259.622 0 262.752 0H457.746C460.877 0 463.502 2.6255 463.502 5.75591V279.818C463.502 283.049 460.978 285.574 457.746 285.574ZM262.752 0.302943C259.723 0.302943 257.198 2.72648 257.198 5.85689V279.919C257.198 282.948 259.622 285.473 262.752 285.473H457.746C460.776 285.473 463.3 283.049 463.3 279.919V5.75591C463.3 2.72648 460.877 0.201962 457.746 0.201962H262.752V0.302943Z" fill="#EBEBEB"/>
<path d="M340.31 324.955H358.992V189.035H340.31V324.955Z" fill="#F0F0F0"/>
<path d="M149.553 330.69H355.453V325.036H149.553V330.69Z" fill="#F0F0F0"/>
<path d="M340.306 189.137H145.917V325.057H340.306V189.137Z" fill="#F5F5F5"/>
<path d="M340.31 189.07H358.992V184.122H340.31V189.07Z" fill="#E6E6E6"/>
<path d="M340.306 184.188H145.917V189.136H340.306V184.188Z" fill="#F0F0F0"/>
<path d="M333.54 230.034H152.582V199.437H333.54V230.034ZM153.895 228.823H332.328V200.75H153.895V228.823Z" fill="#E0E0E0"/>
<path d="M333.54 314.656H152.582V237.608H333.54V314.656ZM153.895 313.344H332.328V238.82H153.895V313.344Z" fill="#E0E0E0"/>
<path d="M177.012 204.107L309.196 204.107V200.068L177.012 200.068V204.107Z" fill="#E0E0E0"/>
<path d="M177.012 242.231L309.196 242.231V238.192L177.012 238.192V242.231Z" fill="#E0E0E0"/>
<path d="M425.029 327.077C424.221 327.077 423.514 326.37 423.514 325.562V92.1956C423.514 91.3877 424.221 90.6808 425.029 90.6808C425.836 90.6808 426.543 91.3877 426.543 92.1956V325.562C426.543 326.37 425.836 327.077 425.029 327.077Z" fill="#F5F5F5"/>
<path d="M432.097 330.611H417.859V327.481C417.859 325.259 419.677 323.341 421.999 323.341H428.058C430.28 323.341 432.198 325.158 432.198 327.481V330.611H432.097Z" fill="#F0F0F0"/>
<path d="M395.946 123.197C395.946 123.197 396.653 94.6191 425.029 94.6191C453.303 94.6191 454.111 123.197 454.111 123.197H395.946Z" fill="#E0E0E0"/>
<path d="M79.8759 327.077C79.0681 327.077 78.3612 326.37 78.3612 325.562V92.1956C78.3612 91.3877 79.0681 90.6808 79.8759 90.6808C80.6838 90.6808 81.3906 91.3877 81.3906 92.1956V325.562C81.3906 326.37 80.6838 327.077 79.8759 327.077Z" fill="#F5F5F5"/>
<path d="M86.9446 330.611H72.8073V327.481C72.8073 325.259 74.6249 323.341 76.9475 323.341H83.0063C85.2279 323.341 87.1466 325.158 87.1466 327.481V330.611H86.9446Z" fill="#F0F0F0"/>
<path d="M50.7934 123.197C50.7934 123.197 51.5003 94.6191 79.8759 94.6191C108.151 94.6191 108.958 123.197 108.958 123.197H50.7934Z" fill="#E0E0E0"/>
<path d="M288.805 181.968H217.008V184.088H288.805V181.968Z" fill="#E0E0E0"/>
<path d="M288.805 181.968H217.008L223.976 140.868H295.773L288.805 181.968Z" fill="#E0E0E0"/>
<path d="M287.493 181.968H215.695L222.562 140.868H294.46L287.493 181.968Z" fill="#EBEBEB"/>
<path d="M218.422 178.736L224.279 143.797C224.38 143.393 224.783 142.989 225.187 142.989H290.825C291.431 142.989 291.835 143.494 291.734 144.1L285.877 179.039C285.776 179.443 285.372 179.847 284.968 179.847H219.33C218.725 179.847 218.321 179.342 218.422 178.736Z" fill="#FAFAFA"/>
<path d="M272.547 181.968H200.75V184.088H272.547V181.968Z" fill="#F0F0F0"/>
<path d="M346.264 33.1217H155.915V94.6191H346.264V33.1217Z" fill="#EBEBEB"/>
<path d="M346.239 94.6443H348.966V33.147H346.239V94.6443Z" fill="#E0E0E0"/>
<path d="M337.983 41.5031H164.296V86.3386H337.983V41.5031Z" fill="white"/>
<path d="M261.52 63.8016L251.095 53.3767L240.67 63.8016L251.095 74.2265L261.52 63.8016Z" fill="#F5F5F5"/>
<path d="M233.451 63.7932L223.027 53.3682L212.602 63.7931L223.027 74.2181L233.451 63.7932Z" fill="#F5F5F5"/>
<path d="M205.454 63.8559L195.029 53.431L184.604 63.856L195.029 74.2809L205.454 63.8559Z" fill="#F5F5F5"/>
<path d="M289.589 63.8102L279.164 53.3852L268.739 63.8101L279.164 74.2351L289.589 63.8102Z" fill="#F5F5F5"/>
<path d="M317.659 63.818L307.234 53.393L296.809 63.818L307.234 74.2429L317.659 63.818Z" fill="#F5F5F5"/>
<path d="M366.46 68.768C366.763 63.7189 363.026 59.6797 357.977 59.6797H218.22C213.171 59.6797 208.829 63.7189 208.526 68.768L205.294 117.138L185.199 265.984C184.492 271.033 188.026 275.072 193.075 275.072H332.833C337.882 275.072 342.527 271.033 343.133 265.984L363.329 117.138L366.46 68.768Z" fill="#58ACF5"/>
<path opacity="0.2" d="M366.46 68.768C366.763 63.7189 363.026 59.6797 357.977 59.6797H218.22C213.171 59.6797 208.829 63.7189 208.526 68.768L205.294 117.138L185.199 265.984C184.492 271.033 188.026 275.072 193.075 275.072H332.833C337.882 275.072 342.527 271.033 343.133 265.984L363.329 117.138L366.46 68.768Z" fill="black"/>
<path d="M327.885 275.173H188.026C182.977 275.173 179.443 271.134 180.15 266.085L200.346 117.138H358.381L338.286 265.984C337.478 271.033 332.833 275.173 327.885 275.173Z" fill="#58ACF5"/>
<path d="M238.921 56.1454H218.119V57.1552H238.921V56.1454Z" fill="#58ACF5"/>
<path d="M208.324 58.165L207.92 57.2562C209.636 56.4484 211.454 56.0444 213.272 56.0444V57.0542C211.555 57.1552 209.939 57.4582 208.324 58.165Z" fill="#58ACF5"/>
<path d="M353.029 59.6797H213.272C208.223 59.6797 203.88 63.7189 203.578 68.768L200.346 117.138H358.381L361.613 68.768C361.815 63.7189 358.078 59.6797 353.029 59.6797Z" fill="#58ACF5"/>
<path opacity="0.9" d="M208.122 105.323L210.343 71.4945C210.545 68.869 212.767 66.7484 215.493 66.7484H349.899C352.524 66.7484 354.544 68.869 354.342 71.4945L352.12 105.323C351.918 107.949 349.697 110.069 346.97 110.069H212.565C209.939 110.17 207.92 107.949 208.122 105.323Z" fill="white"/>
<g opacity="0.4">
<path opacity="0.4" d="M340.205 72.2013L338.69 73.6151C338.589 73.7161 338.488 73.7161 338.387 73.7161H330.309C330.208 73.7161 330.107 73.7161 330.006 73.6151L328.693 72.2013C328.491 71.8984 328.592 71.4945 328.996 71.4945H339.902C340.306 71.4945 340.407 71.9994 340.205 72.2013Z" fill="#58ACF5"/>
<path opacity="0.4" d="M337.983 98.4563H327.077C326.673 98.4563 326.471 97.9514 326.774 97.7495L328.289 96.3358C328.39 96.2348 328.491 96.2348 328.592 96.2348H336.67C336.771 96.2348 336.872 96.2348 336.973 96.3358L338.286 97.7495C338.589 98.0524 338.387 98.4563 337.983 98.4563Z" fill="#58ACF5"/>
<path opacity="0.4" d="M339.094 85.3289L338.286 86.0357C338.185 86.1367 338.084 86.1367 337.983 86.1367H328.491C328.289 86.1367 328.087 85.9348 328.087 85.7328L328.188 84.3191C328.188 84.1171 328.39 83.9151 328.592 83.9151H338.084C338.185 83.9151 338.286 83.9151 338.387 84.0161L338.993 84.723C339.296 84.824 339.296 85.1269 339.094 85.3289Z" fill="#58ACF5"/>
<path opacity="0.4" d="M340.407 86.0357L339.599 97.0426C339.599 97.4466 339.094 97.5475 338.892 97.2446L337.579 95.8309C337.478 95.7299 337.478 95.6289 337.478 95.5279L338.084 87.4494C338.084 87.3485 338.185 87.2475 338.185 87.1465L339.7 85.7328C340.003 85.4298 340.407 85.6318 340.407 86.0357Z" fill="#58ACF5"/>
<path opacity="0.4" d="M341.315 73.1102L340.508 84.1171C340.508 84.5211 340.003 84.622 339.801 84.3191L338.488 82.9054C338.387 82.8044 338.387 82.7034 338.387 82.6024L338.993 74.5239C338.993 74.423 339.094 74.322 339.094 74.221L340.609 72.8073C340.911 72.5043 341.315 72.7063 341.315 73.1102Z" fill="#58ACF5"/>
</g>
<path opacity="0.4" d="M322.634 103.001C322.735 102.193 323.341 101.587 324.149 101.587H341.315C342.123 101.587 342.83 102.294 342.729 103.102C342.628 103.909 342.022 104.515 341.214 104.515H324.048C323.24 104.515 322.634 103.808 322.634 103.001Z" fill="#58ACF5"/>
<path opacity="0.4" d="M301.226 103.001C301.327 102.193 301.933 101.587 302.741 101.587H319.907C320.715 101.587 321.422 102.294 321.321 103.102C321.22 103.909 320.614 104.515 319.807 104.515H302.64C301.832 104.515 301.125 103.808 301.226 103.001Z" fill="#58ACF5"/>
<path opacity="0.4" d="M279.717 103.001C279.818 102.193 280.424 101.587 281.232 101.587H298.399C299.206 101.587 299.913 102.294 299.812 103.102C299.711 103.909 299.105 104.515 298.298 104.515H281.131C280.323 104.515 279.616 103.808 279.717 103.001Z" fill="#58ACF5"/>
<path opacity="0.4" d="M258.208 103.001C258.309 102.193 258.915 101.587 259.723 101.587H276.89C277.697 101.587 278.404 102.294 278.303 103.102C278.202 103.909 277.596 104.515 276.789 104.515H259.622C258.814 104.515 258.208 103.808 258.208 103.001Z" fill="#58ACF5"/>
<path opacity="0.1" d="M210.848 186.209L217.21 139.455C217.614 136.324 220.441 133.901 223.572 133.901H270.326C273.456 133.901 275.577 136.425 275.173 139.455L268.811 186.209C268.407 189.339 265.58 191.763 262.449 191.763H215.695C212.565 191.864 210.444 189.339 210.848 186.209Z" fill="#263238"/>
<path opacity="0.1" d="M277.395 186.209L283.756 139.455C284.16 136.324 286.988 133.901 290.118 133.901H336.872C340.003 133.901 342.123 136.425 341.719 139.455L335.358 186.209C334.954 189.339 332.126 191.763 328.996 191.763H282.242C279.111 191.864 276.991 189.339 277.395 186.209Z" fill="#263238"/>
<path opacity="0.1" d="M201.861 252.755L208.223 206.001C208.627 202.871 211.454 200.447 214.584 200.447H261.339C264.469 200.447 266.59 202.972 266.186 206.001L259.824 252.755C259.42 255.886 256.592 258.309 253.462 258.309H206.708C203.578 258.41 201.457 255.886 201.861 252.755Z" fill="#263238"/>
<path opacity="0.1" d="M268.407 252.755L274.769 206.001C275.173 202.871 278 200.447 281.131 200.447H327.885C331.015 200.447 333.136 202.972 332.732 206.001L326.37 252.755C325.966 255.886 323.139 258.309 320.008 258.309H273.254C270.124 258.41 268.003 255.886 268.407 252.755Z" fill="#263238"/>
<path d="M207.718 186.209L214.08 139.455C214.483 136.324 217.311 133.901 220.441 133.901H267.195C270.326 133.901 272.446 136.425 272.043 139.455L265.681 186.209C265.277 189.339 262.449 191.763 259.319 191.763H212.565C209.434 191.864 207.314 189.339 207.718 186.209Z" fill="#58ACF5"/>
<path opacity="0.2" d="M207.718 186.209L214.08 139.455C214.483 136.324 217.311 133.901 220.441 133.901H267.195C270.326 133.901 272.446 136.425 272.043 139.455L265.681 186.209C265.277 189.339 262.449 191.763 259.319 191.763H212.565C209.434 191.864 207.314 189.339 207.718 186.209Z" fill="white"/>
<path d="M274.264 186.209L280.626 139.455C281.03 136.324 283.857 133.901 286.988 133.901H333.742C336.872 133.901 338.993 136.425 338.589 139.455L332.227 186.209C331.823 189.339 328.996 191.763 325.865 191.763H279.111C276.082 191.864 273.86 189.339 274.264 186.209Z" fill="#58ACF5"/>
<path opacity="0.2" d="M274.264 186.209L280.626 139.455C281.03 136.324 283.857 133.901 286.988 133.901H333.742C336.872 133.901 338.993 136.425 338.589 139.455L332.227 186.209C331.823 189.339 328.996 191.763 325.865 191.763H279.111C276.082 191.864 273.86 189.339 274.264 186.209Z" fill="white"/>
<path d="M198.73 252.755L205.092 206.001C205.496 202.871 208.324 200.447 211.454 200.447H258.208C261.339 200.447 263.459 202.972 263.055 206.001L256.693 252.755C256.29 255.886 253.462 258.309 250.332 258.309H203.578C200.447 258.41 198.327 255.886 198.73 252.755Z" fill="#58ACF5"/>
<path opacity="0.2" d="M198.73 252.755L205.092 206.001C205.496 202.871 208.324 200.447 211.454 200.447H258.208C261.339 200.447 263.459 202.972 263.055 206.001L256.693 252.755C256.29 255.886 253.462 258.309 250.332 258.309H203.578C200.447 258.41 198.327 255.886 198.73 252.755Z" fill="white"/>
<path d="M265.277 252.755L271.639 206.001C272.043 202.871 274.87 200.447 278 200.447H324.755C327.885 200.447 330.006 202.972 329.602 206.001L323.24 252.755C322.836 255.886 320.008 258.309 316.878 258.309H270.124C266.994 258.41 264.873 255.886 265.277 252.755Z" fill="#58ACF5"/>
<path opacity="0.2" d="M265.277 252.755L271.639 206.001C272.043 202.871 274.87 200.447 278 200.447H324.755C327.885 200.447 330.006 202.972 329.602 206.001L323.24 252.755C322.836 255.886 320.008 258.309 316.878 258.309H270.124C266.994 258.41 264.873 255.886 265.277 252.755Z" fill="white"/>
<path d="M237.204 182.271C234.074 182.271 231.953 179.746 232.357 176.616L236.093 148.947C236.497 145.816 239.426 143.292 242.455 143.292C245.586 143.292 247.706 145.816 247.302 148.947L243.566 176.616C243.162 179.746 240.335 182.271 237.204 182.271Z" fill="white"/>
<path d="M220.441 162.882C220.845 159.752 223.774 157.227 226.803 157.227H254.472C257.602 157.227 259.723 159.752 259.319 162.882C258.915 166.013 255.987 168.537 252.957 168.537H225.288C222.158 168.436 220.037 165.912 220.441 162.882Z" fill="white"/>
<path d="M215.291 243.162C213.373 240.94 213.878 237.406 216.402 235.185L238.618 215.594C241.142 213.373 244.677 213.373 246.595 215.594C248.514 217.816 248.009 221.35 245.485 223.572L223.269 243.162C220.744 245.384 217.109 245.384 215.291 243.162Z" fill="white"/>
<path d="M218.927 215.695C221.451 213.474 224.985 213.474 226.904 215.695L243.869 235.286C245.787 237.507 245.283 241.041 242.758 243.263C240.234 245.485 236.699 245.485 234.781 243.263L217.816 223.673C215.998 221.451 216.503 217.816 218.927 215.695Z" fill="white"/>
<path d="M286.988 162.882C287.392 159.752 290.32 157.227 293.35 157.227H321.018C324.149 157.227 326.269 159.752 325.865 162.882C325.461 166.013 322.533 168.537 319.504 168.537H291.835C288.704 168.436 286.584 165.912 286.988 162.882Z" fill="white"/>
<path d="M279.111 220.744C279.515 217.614 282.444 215.089 285.473 215.089H313.142C316.272 215.089 318.393 217.614 317.989 220.744C317.585 223.875 314.656 226.399 311.627 226.399H283.958C280.929 226.298 278.707 223.774 279.111 220.744Z" fill="white"/>
<path d="M276.789 238.113C277.193 234.983 280.121 232.458 283.15 232.458H310.819C313.95 232.458 316.07 234.983 315.666 238.113C315.262 241.243 312.334 243.768 309.304 243.768H281.636C278.606 243.768 276.385 241.243 276.789 238.113Z" fill="white"/>
</svg>
