<svg width="112" height="81" viewBox="0 0 112 81" fill="none" xmlns="http://www.w3.org/2000/svg">
<path d="M5.45067 66.1413C6.30933 66.1413 7.04356 66.328 7.65334 66.7013C8.27556 67.0746 8.74845 67.6035 9.072 68.288C9.408 68.96 9.576 69.7502 9.576 70.6586V71.648H2.72533C2.75022 72.7804 3.03644 73.6453 3.584 74.2426C4.144 74.8275 4.92178 75.12 5.91733 75.12C6.552 75.12 7.112 75.064 7.59733 74.952C8.09511 74.8275 8.60534 74.6533 9.128 74.4293V75.8666C8.61778 76.0906 8.11378 76.2524 7.616 76.352C7.11822 76.464 6.52711 76.52 5.84267 76.52C4.89689 76.52 4.05689 76.3271 3.32267 75.9413C2.60089 75.5555 2.03467 74.9831 1.624 74.224C1.22578 73.4524 1.02667 72.5129 1.02667 71.4053C1.02667 70.3102 1.20711 69.3706 1.568 68.5866C1.94133 67.8026 2.45778 67.1991 3.11733 66.776C3.78933 66.3529 4.56711 66.1413 5.45067 66.1413ZM5.432 67.4853C4.648 67.4853 4.02578 67.7404 3.56533 68.2506C3.11733 68.7484 2.84978 69.4453 2.76267 70.3413H7.85867C7.84622 69.4951 7.64711 68.8106 7.26134 68.288C6.87556 67.7529 6.26578 67.4853 5.432 67.4853ZM13.7658 76.3333H12.1231V62.1466H13.7658V76.3333ZM21.7516 66.1413C22.9463 66.1413 23.8485 66.4338 24.4583 67.0186C25.0681 67.5911 25.373 68.5244 25.373 69.8186V76.3333H23.749V69.9306C23.749 68.3253 23.0023 67.5226 21.509 67.5226C20.4014 67.5226 19.6361 67.8338 19.213 68.456C18.7899 69.0782 18.5783 69.9742 18.5783 71.144V76.3333H16.9356V66.328H18.261L18.5036 67.6906H18.597C18.9205 67.168 19.3685 66.7822 19.941 66.5333C20.5134 66.272 21.117 66.1413 21.7516 66.1413ZM34.9894 73.5706C34.9894 74.5413 34.6285 75.2755 33.9067 75.7733C33.1849 76.2711 32.2142 76.52 30.9947 76.52C30.2978 76.52 29.6942 76.464 29.184 76.352C28.6862 76.24 28.2445 76.0844 27.8587 75.8853V74.392C28.2569 74.5911 28.736 74.7778 29.296 74.952C29.8685 75.1138 30.4471 75.1946 31.032 75.1946C31.8658 75.1946 32.4694 75.064 32.8427 74.8026C33.216 74.5289 33.4027 74.168 33.4027 73.72C33.4027 73.4711 33.3342 73.2471 33.1974 73.048C33.0605 72.8489 32.8116 72.6498 32.4507 72.4506C32.1022 72.2515 31.5982 72.0275 30.9387 71.7786C30.2916 71.5298 29.7378 71.2809 29.2774 71.032C28.8169 70.7831 28.4622 70.4844 28.2134 70.136C27.9645 69.7875 27.84 69.3395 27.84 68.792C27.84 67.9458 28.1822 67.2924 28.8667 66.832C29.5636 66.3715 30.472 66.1413 31.592 66.1413C32.2018 66.1413 32.768 66.2035 33.2907 66.328C33.8258 66.44 34.3236 66.6018 34.784 66.8133L34.224 68.12C33.8009 67.9458 33.3591 67.7964 32.8987 67.672C32.4382 67.5475 31.9654 67.4853 31.48 67.4853C30.808 67.4853 30.2916 67.5973 29.9307 67.8213C29.5822 68.0329 29.408 68.3253 29.408 68.6986C29.408 68.9724 29.4889 69.2089 29.6507 69.408C29.8125 69.5946 30.08 69.7813 30.4534 69.968C30.8391 70.1422 31.3494 70.3538 31.984 70.6026C32.6187 70.8391 33.16 71.0818 33.608 71.3306C34.056 71.5795 34.3982 71.8844 34.6347 72.2453C34.8711 72.5938 34.9894 73.0355 34.9894 73.5706ZM38.247 62.576C38.4959 62.576 38.7137 62.6631 38.9003 62.8373C39.0994 62.9991 39.199 63.2604 39.199 63.6213C39.199 63.9698 39.0994 64.2311 38.9003 64.4053C38.7137 64.5795 38.4959 64.6666 38.247 64.6666C37.9732 64.6666 37.743 64.5795 37.5563 64.4053C37.3697 64.2311 37.2763 63.9698 37.2763 63.6213C37.2763 63.2604 37.3697 62.9991 37.5563 62.8373C37.743 62.6631 37.9732 62.576 38.247 62.576ZM39.0497 66.328V76.3333H37.407V66.328H39.0497ZM45.7662 66.1413C46.4257 66.1413 47.0168 66.2658 47.5395 66.5146C48.0746 66.7635 48.5288 67.1431 48.9022 67.6533H48.9955L49.2195 66.328H50.5262V76.5013C50.5262 77.9324 50.159 79.0089 49.4248 79.7306C48.703 80.4524 47.5768 80.8133 46.0462 80.8133C44.5777 80.8133 43.3768 80.6018 42.4435 80.1786V78.6666C43.4266 79.1893 44.6586 79.4506 46.1395 79.4506C46.9982 79.4506 47.6702 79.1955 48.1555 78.6853C48.6533 78.1875 48.9022 77.5031 48.9022 76.632V76.24C48.9022 76.0906 48.9084 75.8791 48.9208 75.6053C48.9333 75.3191 48.9457 75.12 48.9582 75.008H48.8835C48.2115 76.016 47.1786 76.52 45.7848 76.52C44.4906 76.52 43.4764 76.0658 42.7422 75.1573C42.0204 74.2489 41.6595 72.9795 41.6595 71.3493C41.6595 69.7564 42.0204 68.4933 42.7422 67.56C43.4764 66.6142 44.4844 66.1413 45.7662 66.1413ZM45.9902 67.5226C45.1564 67.5226 44.5093 67.8586 44.0488 68.5306C43.5884 69.1902 43.3582 70.136 43.3582 71.368C43.3582 72.6 43.5822 73.5458 44.0302 74.2053C44.4906 74.8524 45.1564 75.176 46.0275 75.176C47.0355 75.176 47.7697 74.9084 48.2302 74.3733C48.6906 73.8258 48.9208 72.9484 48.9208 71.7413V71.3493C48.9208 69.9804 48.6844 69.0035 48.2115 68.4186C47.7386 67.8213 46.9982 67.5226 45.9902 67.5226ZM55.3465 66.3093C55.3465 66.8071 55.3154 67.2738 55.2532 67.7093H55.3652C55.6888 67.1991 56.1243 66.8133 56.6719 66.552C57.2319 66.2906 57.8354 66.16 58.4825 66.16C59.7021 66.16 60.6168 66.4524 61.2265 67.0373C61.8363 67.6098 62.1412 68.5369 62.1412 69.8186V76.3333H60.5172V69.9306C60.5172 68.3253 59.7705 67.5226 58.2772 67.5226C57.1572 67.5226 56.3856 67.84 55.9625 68.4746C55.5519 69.0969 55.3465 69.9929 55.3465 71.1626V76.3333H53.7039V62.1466H55.3465V66.3093ZM68.5843 75.176C68.8332 75.176 69.0883 75.1573 69.3496 75.12C69.6109 75.0702 69.8225 75.0204 69.9843 74.9706V76.2213C69.81 76.3084 69.5612 76.3769 69.2376 76.4266C68.914 76.4889 68.6029 76.52 68.3043 76.52C67.7816 76.52 67.2963 76.4329 66.8483 76.2586C66.4127 76.072 66.058 75.7546 65.7843 75.3066C65.5105 74.8586 65.3736 74.2302 65.3736 73.4213V67.5973H63.9549V66.8133L65.3923 66.16L66.0456 64.032H67.0163V66.328H69.9096V67.5973H67.0163V73.384C67.0163 73.9938 67.1594 74.448 67.4456 74.7466C67.7443 75.0329 68.1238 75.176 68.5843 75.176Z" fill="#193651"/>
<path d="M83.1548 69.5386C83.1548 71.7911 82.5388 73.4898 81.3068 74.6346C80.0873 75.7671 78.3824 76.3333 76.1921 76.3333H72.4775V63.0053H76.5841C77.9281 63.0053 79.0917 63.2542 80.0748 63.752C81.0579 64.2498 81.817 64.984 82.3521 65.9546C82.8873 66.9129 83.1548 68.1075 83.1548 69.5386ZM81.3815 69.5946C81.3815 67.8151 80.9397 66.5146 80.0561 65.6933C79.185 64.8595 77.9468 64.4426 76.3415 64.4426H74.1575V74.896H75.9681C79.577 74.896 81.3815 73.1289 81.3815 69.5946ZM89.6782 66.16C90.8978 66.16 91.8 66.4275 92.3849 66.9626C92.9698 67.4978 93.2622 68.3502 93.2622 69.52V76.3333H92.0676L91.7502 74.9146H91.6756C91.24 75.4622 90.7796 75.8666 90.2942 76.128C89.8213 76.3893 89.1618 76.52 88.3156 76.52C87.4071 76.52 86.6542 76.2835 86.0569 75.8106C85.4596 75.3253 85.1609 74.5724 85.1609 73.552C85.1609 72.5564 85.5529 71.7911 86.3369 71.256C87.1209 70.7084 88.328 70.4098 89.9582 70.36L91.6569 70.304V69.7066C91.6569 68.8729 91.4765 68.2942 91.1156 67.9706C90.7547 67.6471 90.2445 67.4853 89.5849 67.4853C89.0622 67.4853 88.5645 67.5662 88.0916 67.728C87.6187 67.8773 87.1769 68.0515 86.7662 68.2506L86.2622 67.0186C86.6978 66.7822 87.2142 66.5831 87.8116 66.4213C88.4089 66.2471 89.0311 66.16 89.6782 66.16ZM90.1636 71.4986C88.9191 71.5484 88.0542 71.7475 87.5689 72.096C87.096 72.4444 86.8596 72.936 86.8596 73.5706C86.8596 74.1306 87.0276 74.5413 87.3636 74.8026C87.712 75.064 88.1538 75.1946 88.6889 75.1946C89.5351 75.1946 90.2382 74.9644 90.7982 74.504C91.3582 74.0311 91.6382 73.3093 91.6382 72.3386V71.4426L90.1636 71.4986ZM99.6938 75.176C99.9427 75.176 100.198 75.1573 100.459 75.12C100.72 75.0702 100.932 75.0204 101.094 74.9706V76.2213C100.92 76.3084 100.671 76.3769 100.347 76.4266C100.024 76.4889 99.7124 76.52 99.4138 76.52C98.8911 76.52 98.4058 76.4329 97.9578 76.2586C97.5222 76.072 97.1676 75.7546 96.8938 75.3066C96.62 74.8586 96.4831 74.2302 96.4831 73.4213V67.5973H95.0644V66.8133L96.5018 66.16L97.1551 64.032H98.1258V66.328H101.019V67.5973H98.1258V73.384C98.1258 73.9938 98.2689 74.448 98.5551 74.7466C98.8538 75.0329 99.2333 75.176 99.6938 75.176ZM106.887 66.16C108.106 66.16 109.008 66.4275 109.593 66.9626C110.178 67.4978 110.471 68.3502 110.471 69.52V76.3333H109.276L108.959 74.9146H108.884C108.448 75.4622 107.988 75.8666 107.503 76.128C107.03 76.3893 106.37 76.52 105.524 76.52C104.615 76.52 103.863 76.2835 103.265 75.8106C102.668 75.3253 102.369 74.5724 102.369 73.552C102.369 72.5564 102.761 71.7911 103.545 71.256C104.329 70.7084 105.536 70.4098 107.167 70.36L108.865 70.304V69.7066C108.865 68.8729 108.685 68.2942 108.324 67.9706C107.963 67.6471 107.453 67.4853 106.793 67.4853C106.271 67.4853 105.773 67.5662 105.3 67.728C104.827 67.8773 104.385 68.0515 103.975 68.2506L103.471 67.0186C103.906 66.7822 104.423 66.5831 105.02 66.4213C105.617 66.2471 106.239 66.16 106.887 66.16ZM107.372 71.4986C106.127 71.5484 105.263 71.7475 104.777 72.096C104.304 72.4444 104.068 72.936 104.068 73.5706C104.068 74.1306 104.236 74.5413 104.572 74.8026C104.92 75.064 105.362 75.1946 105.897 75.1946C106.743 75.1946 107.447 74.9644 108.007 74.504C108.567 74.0311 108.847 73.3093 108.847 72.3386V71.4426L107.372 71.4986Z" fill="#58ACF5"/>
<path fill-rule="evenodd" clip-rule="evenodd" d="M64.0404 1.26717C63.1404 1.45836 61.5294 1.803 60.4592 2.0344L58.5152 2.45453L61.1767 5.80054C62.3369 7.03877 63.5847 6.61234 65.8813 6.9578C73.1869 8.05654 77.8064 14.9797 75.9205 22.0037C75.2692 24.4309 72.939 27.371 66.4794 33.9208C61.7634 38.7031 57.904 42.9848 57.904 43.4353C57.904 43.8858 58.8195 44.6735 59.938 45.1847C61.8517 46.0586 62.4597 45.6213 70.212 37.7808C80.6382 27.2356 81.7812 24.8568 81.4596 14.3749C81.2551 7.72503 81.4384 6.41786 82.7859 4.92033C83.645 3.96355 84.1695 3.00184 83.9502 2.78193C82.4955 1.32214 68.7213 0.27428 64.0404 1.26717ZM39.6952 19.437C34.9072 24.3095 31.014 28.0975 30.0406 30.7198C28.9554 33.6432 28.4391 36.8129 29.2003 41.0283C30.5965 48.7603 30.7451 50.2523 29.2003 51.6957C28.0532 52.7673 26.1755 53.2607 26.7858 53.639C29.3959 55.2572 49.4996 55.3836 51.086 53.7925C52.3534 52.5214 48.9749 48.8212 45.3667 48.4134C39.5968 47.7611 34.1765 43.2441 34.1765 37.2318C34.1765 32.9263 35.0733 31.6126 44.6346 21.9085C52.0703 14.3626 53.129 12.9586 52.2176 11.8566C51.635 11.1525 50.5378 10.5765 49.7794 10.5765C49.0209 10.5765 44.4832 14.5636 39.6952 19.437Z" fill="#193651"/>
<path fill-rule="evenodd" clip-rule="evenodd" d="M81.7893 37.3737C81.5981 36.4736 81.2535 34.8626 81.0221 33.7924L80.6019 31.8484L77.2559 34.51C76.0177 35.6702 76.4441 36.9179 76.0987 39.2146C74.9999 46.5202 68.0768 51.1397 61.0527 49.2537C58.6255 48.6025 55.6854 46.2723 49.1356 39.8127C44.3534 35.0966 40.0717 31.2372 39.6212 31.2372C39.1707 31.2372 38.3829 32.1528 37.8717 33.2713C36.9978 35.185 37.4352 35.7929 45.2757 43.5452C55.8208 53.9714 58.1996 55.1144 68.6816 54.7929C75.3314 54.5883 76.6386 54.7716 78.1361 56.1192C79.0929 56.9783 80.0546 57.5027 80.2745 57.2834C81.7343 55.8287 82.7822 42.0545 81.7893 37.3737ZM63.6195 13.0285C58.747 8.24042 54.959 4.34727 52.3367 3.37384C49.4132 2.28861 46.2435 1.77238 42.0281 2.53356C34.2962 3.92975 32.8041 4.0783 31.3608 2.53356C30.2891 1.38646 29.7957 -0.491287 29.4174 0.119082C27.7993 2.7291 27.6729 22.8328 29.264 24.4193C30.535 25.6866 34.2352 22.3081 34.643 18.6999C35.2954 12.9301 39.8124 7.50978 45.8247 7.50978C50.1302 7.50978 51.4439 8.40651 61.1479 17.9679C68.6939 25.4036 70.0979 26.4623 71.1999 25.5508C71.9039 24.9683 72.48 23.8711 72.48 23.1126C72.48 22.3542 68.4928 17.8165 63.6195 13.0285Z" fill="#58ACF5"/>
</svg>
