<svg width="595" height="509" viewBox="0 0 595 509" fill="none" xmlns="http://www.w3.org/2000/svg">
<path d="M455.642 113.605C444.579 134.607 438.006 154.487 444.74 163.946C445.221 164.427 445.541 165.068 446.022 165.549C451.313 170.84 462.375 171.481 481.293 165.069C531.635 148.234 535.804 114.727 547.507 82.5017C559.051 50.5972 593.2 57.9721 594.001 58.1325C515.442 26.0677 474.239 78.1729 455.642 113.605Z" fill="url(#paint0_linear)"/>
<path d="M444.741 164.107C445.222 164.588 445.543 165.229 446.024 165.71C455.643 160.58 473.92 149.838 483.058 136.852C487.387 130.759 491.075 123.865 494.922 116.651C502.297 102.863 509.993 88.7545 522.498 78.1732L521.215 76.7303C508.39 87.472 500.534 101.901 493.159 115.849C489.311 123.064 485.624 129.958 481.455 135.89C472.637 148.235 454.04 159.137 444.741 164.107Z" fill="url(#paint1_linear)"/>
<path d="M463.657 122.904C464.138 124.346 464.459 125.148 464.459 125.308C464.619 124.507 464.779 123.705 465.1 123.064C473.437 89.7165 482.415 86.6704 510.472 58.6137C539.009 29.7554 525.061 0.897095 525.061 0.897095C433.356 22.0598 458.366 107.512 463.657 122.904Z" fill="url(#paint2_linear)"/>
<path d="M463.656 122.904C464.137 124.346 464.458 125.148 464.458 125.308C464.618 124.507 464.778 123.705 465.099 123.064C463.816 93.7246 483.216 60.5375 488.987 54.7659C495.08 48.6736 499.088 40.1764 500.53 36.9699C500.851 36.489 501.012 36.008 501.172 35.8477L499.889 35.0461C499.729 35.2064 499.569 35.527 499.248 36.3286C497.805 39.5351 493.797 47.872 488.025 53.6436C480.49 61.0185 462.534 94.3659 463.656 122.904Z" fill="url(#paint3_linear)"/>
<path d="M498.126 466.317H95.2323C85.4526 466.317 77.5967 458.462 77.5967 448.682V88.7546C77.5967 78.9749 85.4526 71.119 95.2323 71.119H498.126C507.906 71.119 515.762 78.9749 515.762 88.7546V448.521C515.762 458.301 507.906 466.317 498.126 466.317Z" fill="#E8E8E8"/>
<path d="M358.804 262.386H272.069C269.824 262.386 267.9 264.149 267.9 266.554V276.654C267.9 278.899 269.664 280.823 272.069 280.823H358.804C361.049 280.823 362.972 279.059 362.972 276.654V266.554C362.812 264.149 361.049 262.386 358.804 262.386Z" fill="#B8D6FF"/>
<path d="M358.804 288.678H272.069C269.824 288.678 267.9 290.442 267.9 292.847V359.702C267.9 361.946 269.664 363.87 272.069 363.87H358.804C361.049 363.87 362.972 362.107 362.972 359.702V292.847C362.812 290.602 361.049 288.678 358.804 288.678Z" fill="#757575"/>
<path d="M478.408 131.241H424.859V136.692H478.408V131.241Z" fill="#B8D6FF"/>
<path d="M486.424 147.754H424.859V153.205H486.424V147.754Z" fill="#B8D6FF"/>
<path d="M456.602 164.267H424.698V169.718H456.602V164.267Z" fill="#B8D6FF"/>
<path d="M473.757 180.941H424.698V186.392H473.757V180.941Z" fill="#B8D6FF"/>
<path d="M334.916 411.647H100.522V417.098H334.916V411.647Z" fill="white"/>
<path d="M353.674 424.473H100.522V429.924H353.674V424.473Z" fill="white"/>
<path d="M264.854 437.299H100.522V442.75H264.854V437.299Z" fill="white"/>
<path d="M222.529 411.647H100.522V417.098H222.529V411.647Z" fill="url(#paint4_linear)"/>
<path d="M232.309 424.473H100.522V429.924H232.309V424.473Z" fill="url(#paint5_linear)"/>
<path d="M186.135 437.299H100.522V442.75H186.135V437.299Z" fill="url(#paint6_linear)"/>
<path opacity="0.73" d="M542.215 453.331H411.551C402.733 453.331 395.679 446.277 395.679 437.459V235.291C395.679 226.473 402.733 219.419 411.551 219.419H542.215C551.033 219.419 558.087 226.473 558.087 235.291V437.459C558.087 446.117 550.872 453.331 542.215 453.331Z" fill="white"/>
<path d="M529.872 370.444H417.485C416.202 370.444 415.24 369.482 415.24 368.199V364.351C415.24 363.069 416.202 362.107 417.485 362.107H529.872C531.154 362.107 532.116 363.069 532.116 364.351V368.199C532.116 369.322 531.154 370.444 529.872 370.444Z" fill="#D4DBE1"/>
<path d="M496.204 388.72H417.485C416.202 388.72 415.24 387.758 415.24 386.476V382.628C415.24 381.346 416.202 380.384 417.485 380.384H496.204C497.486 380.384 498.448 381.346 498.448 382.628V386.476C498.448 387.758 497.326 388.72 496.204 388.72Z" fill="#D4DBE1"/>
<path d="M511.755 406.997H417.485C416.202 406.997 415.24 406.036 415.24 404.753V400.905C415.24 399.623 416.202 398.661 417.485 398.661H511.755C513.038 398.661 514 399.623 514 400.905V404.753C514 406.036 513.038 406.997 511.755 406.997Z" fill="#D4DBE1"/>
<path d="M490.271 464.393H463.336C458.847 464.393 455.16 460.706 455.16 456.217V429.282C455.16 424.793 458.847 421.106 463.336 421.106H490.271C494.76 421.106 498.447 424.793 498.447 429.282V456.217C498.447 460.706 494.76 464.393 490.271 464.393Z" fill="white"/>
<path d="M478.726 434.253H474.718V451.407H478.726V434.253Z" fill="#C5CCD1"/>
<path d="M485.387 444.732V440.724H468.232V444.732H485.387Z" fill="#C5CCD1"/>
<path d="M258.602 508.162H16.834C7.53522 508.162 0 500.627 0 491.328V272.806C0 263.508 7.53522 255.972 16.834 255.972H258.602C267.901 255.972 275.436 263.508 275.436 272.806V491.328C275.276 500.627 267.901 508.162 258.602 508.162Z" fill="#F5F5F5"/>
<path d="M242.57 344.151L242.249 342.708L206.818 348.479L195.274 373.009L157.117 375.574L144.772 393.851L115.433 393.21V394.653L145.414 395.294L157.919 377.017L196.236 374.452L207.78 349.762L242.57 344.151Z" fill="#4AAFFF"/>
<path d="M199.121 294.61H237.279C239.683 294.61 241.607 292.686 241.607 290.281C241.607 287.877 239.683 285.953 237.279 285.953H199.121C196.717 285.953 194.793 287.877 194.793 290.281C194.793 292.686 196.717 294.61 199.121 294.61Z" fill="#1487E3"/>
<path d="M199.121 309.841H237.279C239.683 309.841 241.607 307.917 241.607 305.512C241.607 303.107 239.683 301.184 237.279 301.184H199.121C196.717 301.184 194.793 303.107 194.793 305.512C194.793 307.917 196.717 309.841 199.121 309.841Z" fill="#4AAFFF"/>
<path d="M199.121 325.072H237.279C239.683 325.072 241.607 323.148 241.607 320.743C241.607 318.338 239.683 316.414 237.279 316.414H199.121C196.717 316.414 194.793 318.338 194.793 320.743C194.793 323.148 196.717 325.072 199.121 325.072Z" fill="#4AAFFF"/>
<path d="M164.972 305.512H27.7352C25.17 305.512 23.2461 303.428 23.2461 301.023V289.159C23.2461 286.594 25.3303 284.67 27.7352 284.67H164.972C167.538 284.67 169.462 286.754 169.462 289.159V301.023C169.462 303.428 167.538 305.512 164.972 305.512Z" fill="#4AAFFF"/>
<path d="M164.972 335.653H27.7352C25.17 335.653 23.2461 333.569 23.2461 331.164V319.3C23.2461 316.735 25.3303 314.811 27.7352 314.811H164.972C167.538 314.811 169.462 316.895 169.462 319.3V331.164C169.462 333.569 167.538 335.653 164.972 335.653Z" fill="#1487E3"/>
<path d="M237.761 403.951C228.141 390.805 211.307 385.835 196.558 390.644C193.031 391.767 189.503 393.53 186.297 395.935C176.678 402.989 171.387 413.891 171.227 425.114C171.066 432.81 173.471 440.665 178.281 447.399C178.762 448.04 179.243 448.682 179.724 449.323C182.129 452.209 184.854 454.614 187.74 456.538C200.245 464.714 216.919 464.714 229.584 455.415C246.258 443.391 249.785 420.304 237.761 403.951ZM224.294 448.04C214.835 455.095 202.329 454.934 192.87 448.842C190.626 447.399 188.542 445.635 186.778 443.391C186.457 442.91 185.976 442.429 185.656 441.948C181.968 436.978 180.205 431.046 180.365 425.274C180.525 416.938 184.373 408.761 191.588 403.47C193.993 401.707 196.558 400.424 199.283 399.462C210.346 395.775 223.011 399.462 230.226 409.402C239.364 421.747 236.639 438.902 224.294 448.04Z" fill="#4AAFFF"/>
<path d="M180.527 425.274L171.388 425.114C171.549 413.891 176.839 402.989 186.459 395.935C189.665 393.53 193.032 391.766 196.719 390.644L199.605 399.462C196.88 400.424 194.315 401.707 191.91 403.47C184.535 408.761 180.527 416.937 180.527 425.274Z" fill="#1A598C"/>
<path d="M186.937 443.391L179.883 449.323C179.402 448.681 178.921 448.04 178.44 447.399C173.47 440.665 171.226 432.809 171.386 425.114L180.524 425.274C180.364 431.046 182.128 436.978 185.815 441.948C186.136 442.589 186.456 443.07 186.937 443.391Z" fill="#2273B5"/>
<path d="M187.901 456.538C184.855 454.614 182.13 452.209 179.885 449.323L186.939 443.391C188.703 445.475 190.787 447.239 193.032 448.842L187.901 456.538Z" fill="#3788CC"/>
<path d="M109.341 45.7876V50.5973H63.3281V96.6103H58.6787V45.7876H109.341Z" fill="url(#paint7_linear)"/>
<path d="M109.02 124.828H108.058V219.9H109.02V124.828Z" fill="#E0E0E0"/>
<path d="M173.47 124.828H172.508V219.9H173.47V124.828Z" fill="#E0E0E0"/>
<path d="M237.921 124.828H236.959V219.9H237.921V124.828Z" fill="#E0E0E0"/>
<path d="M302.37 124.828H301.408V219.9H302.37V124.828Z" fill="#E0E0E0"/>
<path d="M366.822 124.828H365.86V219.9H366.822V124.828Z" fill="#E0E0E0"/>
<path d="M118.801 225.671H108.54V229.038H118.801V225.671Z" fill="#B8B8B8"/>
<path d="M123.931 113.124H108.54V115.529H123.931V113.124Z" fill="#D9D9D9"/>
<path d="M130.504 117.773H108.54V120.178H130.504V117.773Z" fill="#D9D9D9"/>
<path d="M190.304 113.124H172.187V115.529H190.304V113.124Z" fill="#D9D9D9"/>
<path d="M183.731 117.773H172.187V120.178H183.731V117.773Z" fill="#D9D9D9"/>
<path d="M249.143 113.124H237.92V115.529H249.143V113.124Z" fill="#D9D9D9"/>
<path d="M251.067 117.773H237.92V120.178H251.067V117.773Z" fill="#D9D9D9"/>
<path d="M318.725 113.124H302.372V115.529H318.725V113.124Z" fill="#D9D9D9"/>
<path d="M315.518 117.773H302.372V120.178H315.518V117.773Z" fill="#D9D9D9"/>
<path d="M376.119 113.124H366.339V115.529H376.119V113.124Z" fill="#D9D9D9"/>
<path d="M374.195 117.773H366.339V120.178H374.195V117.773Z" fill="#D9D9D9"/>
<path d="M183.25 225.671H172.989V229.038H183.25V225.671Z" fill="#B8B8B8"/>
<path d="M248.181 225.671H237.92V229.038H248.181V225.671Z" fill="#B8B8B8"/>
<path d="M312.633 225.671H302.372V229.038H312.633V225.671Z" fill="#B8B8B8"/>
<path d="M377.082 225.671H366.821V229.038H377.082V225.671Z" fill="#B8B8B8"/>
<path d="M344.056 191.683C324.015 191.683 306.54 183.025 288.263 173.887C265.818 162.664 242.571 151.121 211.468 154.327C191.748 156.412 179.243 164.428 168.341 171.482C158.401 177.895 149.102 183.506 136.276 184.148C115.755 184.949 108.54 176.131 108.54 175.65V170.039C108.54 170.199 113.029 179.979 136.276 179.819C147.659 179.819 156.156 174.207 165.936 167.955C177.319 160.58 190.145 152.243 210.987 150.159C243.212 146.792 267.1 158.656 290.187 170.199C314.236 182.224 337.322 193.446 366.341 183.667V188.316C358.004 191.041 351.431 191.683 344.056 191.683Z" fill="url(#paint8_linear)"/>
<path d="M223.332 190.561C208.422 190.561 196.718 180.621 185.175 170.841C176.357 163.466 167.379 155.931 156.958 152.083C125.053 140.7 108.7 161.542 108.54 161.702V155.289C108.7 155.129 111.586 151.281 120.083 147.594C127.779 144.227 140.605 141.662 158.401 147.914C169.623 151.762 179.083 159.778 188.061 167.474C206.338 183.025 222.21 196.493 249.785 175.49C270.627 159.618 290.187 144.387 309.586 138.776C328.504 133.325 348.224 137.333 366.661 155.77L366.501 161.542C327.382 122.263 294.035 147.113 252.351 178.857C241.288 187.354 231.829 190.561 223.332 190.561Z" fill="url(#paint9_linear)"/>
<path d="M524.1 344.632H427.745C420.37 344.632 414.438 338.7 414.438 331.325V246.032C414.438 238.657 420.37 232.726 427.745 232.726H524.1C531.474 232.726 537.406 238.657 537.406 246.032V331.325C537.246 338.7 531.314 344.632 524.1 344.632ZM427.745 234.489C421.332 234.489 416.041 239.78 416.041 246.193V331.485C416.041 337.898 421.332 343.189 427.745 343.189H524.1C530.512 343.189 535.803 337.898 535.803 331.485V246.193C535.803 239.78 530.512 234.489 524.1 234.489H427.745Z" fill="#7AC4FF"/>
<defs>
<linearGradient id="paint0_linear" x1="441.982" y1="108.944" x2="593.938" y2="108.944" gradientUnits="userSpaceOnUse">
<stop offset="0.00518135" stop-color="#3C6127"/>
<stop offset="1" stop-color="#639C38"/>
</linearGradient>
<linearGradient id="paint1_linear" x1="433.74" y1="176.488" x2="508.678" y2="100.331" gradientUnits="userSpaceOnUse">
<stop offset="0.00518135" stop-color="#3C6127"/>
<stop offset="1" stop-color="#639C38"/>
</linearGradient>
<linearGradient id="paint2_linear" x1="456.522" y1="63.0773" x2="528.451" y2="63.0773" gradientUnits="userSpaceOnUse">
<stop offset="0.00518135" stop-color="#3C6127"/>
<stop offset="1" stop-color="#639C38"/>
</linearGradient>
<linearGradient id="paint3_linear" x1="456.702" y1="119.404" x2="513.125" y2="30.9609" gradientUnits="userSpaceOnUse">
<stop offset="0.00518135" stop-color="#3C6127"/>
<stop offset="1" stop-color="#639C38"/>
</linearGradient>
<linearGradient id="paint4_linear" x1="282.484" y1="414.43" x2="47.9382" y2="414.43" gradientUnits="userSpaceOnUse">
<stop stop-color="#FFC05C"/>
<stop offset="1" stop-color="#FF3857"/>
</linearGradient>
<linearGradient id="paint5_linear" x1="282.485" y1="427.251" x2="47.9386" y2="427.251" gradientUnits="userSpaceOnUse">
<stop stop-color="#FFC05C"/>
<stop offset="1" stop-color="#FF3857"/>
</linearGradient>
<linearGradient id="paint6_linear" x1="282.485" y1="440.074" x2="47.9385" y2="440.074" gradientUnits="userSpaceOnUse">
<stop stop-color="#FFC05C"/>
<stop offset="1" stop-color="#FF3857"/>
</linearGradient>
<linearGradient id="paint7_linear" x1="109.401" y1="71.2021" x2="58.6418" y2="71.2021" gradientUnits="userSpaceOnUse">
<stop stop-color="#40D5E6"/>
<stop offset="1" stop-color="#5577FF"/>
</linearGradient>
<linearGradient id="paint8_linear" x1="108.473" y1="170.601" x2="366.358" y2="170.601" gradientUnits="userSpaceOnUse">
<stop stop-color="#FFC05C"/>
<stop offset="1" stop-color="#FF3857"/>
</linearGradient>
<linearGradient id="paint9_linear" x1="108.473" y1="163.623" x2="366.493" y2="163.623" gradientUnits="userSpaceOnUse">
<stop stop-color="#40D5E6"/>
<stop offset="1" stop-color="#5577FF"/>
</linearGradient>
</defs>
</svg>
